<svg width="49" height="49" viewBox="0 0 49 49" fill="none" xmlns="http://www.w3.org/2000/svg">
<rect x="0.695007" y="0.5" width="48" height="48" rx="12" fill="#F4F6F8"/>
<g clip-path="url(#clip0_419_874)">
<g clip-path="url(#clip1_419_874)">
<g clip-path="url(#clip2_419_874)">
<path d="M15.9566 16.5228C21.3119 10.2901 31.2415 11.5204 34.9537 18.8009C32.3406 18.8018 28.2487 18.8001 26.0325 18.8009C24.4252 18.8014 23.3873 18.7649 22.2634 19.3565C20.9422 20.052 19.9452 21.3413 19.5972 22.8555L15.9566 16.5228Z" fill="#EA4335"/>
<path d="M20.8625 24.0289C20.8625 26.1412 22.5801 27.8597 24.6913 27.8597C26.8024 27.8597 28.5199 26.1412 28.5199 24.0289C28.5199 21.9166 26.8024 20.198 24.6913 20.198C22.5801 20.198 20.8625 21.9166 20.8625 24.0289Z" fill="#4285F4"/>
<path d="M26.1771 29.0432C24.0281 29.6819 21.5133 28.9736 20.1357 26.5958C19.0842 24.7808 16.306 19.9409 15.0432 17.7401C10.6205 24.5187 14.4322 33.7562 22.4613 35.3329L26.1771 29.0432Z" fill="#34A853"/>
<path d="M28.2475 20.198C30.0373 21.8627 30.4273 24.5583 29.2149 26.6485C28.3014 28.2232 25.3861 33.1437 23.9731 35.5264C32.2456 36.0364 38.276 27.9287 35.5521 20.198H28.2475Z" fill="#FBBC05"/>
</g>
</g>
</g>
<defs>
<clipPath id="clip0_419_874">
<rect width="24" height="24" fill="white" transform="translate(12.695 12.5)"/>
</clipPath>
<clipPath id="clip1_419_874">
<rect width="24" height="24" fill="white" transform="translate(12.695 12.5)"/>
</clipPath>
<clipPath id="clip2_419_874">
<rect width="23.04" height="24" fill="white" transform="translate(13.175 12.5)"/>
</clipPath>
</defs>
</svg>
