<svg width="49" height="49" viewBox="0 0 49 49" fill="none" xmlns="http://www.w3.org/2000/svg">
<rect x="0.695007" y="0.5" width="48" height="48" rx="12" fill="#F4F6F8"/>
<g clip-path="url(#clip0_419_963)">
<g clip-path="url(#clip1_419_963)">
<g clip-path="url(#clip2_419_963)">
<path fill-rule="evenodd" clip-rule="evenodd" d="M33.7717 16.5178C33.6003 15.5984 33.0559 15.1455 32.5633 14.9677C32.0326 14.7747 30.9555 14.5753 29.6021 14.4147C28.5136 14.2866 27.2342 14.2966 26.4611 14.3204C26.3686 13.6825 25.9232 13.1 25.4241 12.8984C24.096 12.3613 22.0427 12.4909 21.5164 12.6392C21.0976 12.7566 20.6336 12.9978 20.3754 13.3686C20.2026 13.6162 20.0907 13.9345 20.09 14.378C20.09 14.586 20.0949 15.0268 20.0998 15.4706L20.1029 15.746C20.1082 16.1837 20.1141 16.5831 20.1159 16.708L20.1165 16.7482C20.1165 17.2169 19.7371 17.5992 19.2674 17.6H17.1138C16.6541 17.6 16.3027 17.6777 16.0352 17.7994C15.7663 17.9225 15.5762 18.0874 15.4314 18.2825C15.1438 18.6706 15.0936 19.1487 15.095 19.6368C15.095 19.6368 15.0993 20.0364 15.1954 20.8083C15.275 21.4058 15.9205 25.5811 16.5336 26.8505C16.771 27.3443 16.9295 27.5502 17.3964 27.7677C18.4369 28.2155 20.8143 28.7131 21.928 28.8556C22.1125 28.8793 22.2855 28.9073 22.4478 28.9335C23.264 29.0654 23.8071 29.1532 24.154 28.4229C24.1555 28.4208 24.2372 28.2048 24.3498 27.8886C24.7112 26.79 24.7614 25.8151 24.7614 25.1102C24.7614 25.0382 24.8662 25.0353 24.8662 25.1102C24.8662 25.1378 24.8659 25.1694 24.8655 25.2045C24.86 25.7998 24.8452 27.3965 26.0975 27.8433C26.621 28.0298 27.7067 28.1954 28.8098 28.3257C29.8073 28.4409 30.5316 28.8347 30.5316 31.4044C30.5316 32.9675 30.2045 33.1821 28.4949 33.1821L28.3678 33.1822C27.0762 33.1832 26.5802 33.1836 26.5802 32.1128C26.5802 31.2954 27.3172 31.3042 27.9419 31.3116C28 31.3123 28.0572 31.313 28.1127 31.313C28.2964 31.313 28.2806 31.2267 28.2437 31.0252C28.222 30.9068 28.193 30.7483 28.193 30.544C28.193 30.3114 28.2544 30.1203 28.3005 29.9769C28.3631 29.7822 28.3975 29.6752 28.2117 29.6707C25.9555 29.608 24.6281 29.6678 24.6281 32.5002C24.6281 35.072 25.6084 35.5494 28.8098 35.5494C31.3204 35.5494 32.2054 35.4666 33.2417 32.2381C33.4468 31.6003 33.9431 29.6555 34.2429 26.3889C34.4329 24.324 34.0642 18.091 33.7717 16.5178ZM29.3956 23.4074C29.0859 23.3966 28.7875 23.4161 28.5093 23.4607C28.5874 22.8264 28.8484 22.0474 29.7728 22.0798C30.7962 22.1158 30.9396 23.0863 30.9433 23.7444C30.5116 23.5507 29.9772 23.4283 29.3956 23.4074ZM17.0141 16.9721H17.0127C16.4834 16.9721 16.0417 17.0621 15.6774 17.2277C15.6609 17.2349 15.5425 17.2932 15.4558 17.3364C15.4579 17.3278 15.4636 17.3184 15.4715 17.312L19.6561 13.1454C19.6647 13.1374 19.6726 13.1331 19.6812 13.1324L19.6073 13.2706C19.4531 13.5802 19.3649 13.9489 19.3649 14.3722V14.3787C19.3649 14.8756 19.3889 16.6157 19.3906 16.7411L19.3907 16.7482C19.3907 16.8706 19.2911 16.9721 19.1677 16.9721H17.0141Z" fill="#20C05C"/>
</g>
</g>
</g>
<defs>
<clipPath id="clip0_419_963">
<rect width="24" height="24" fill="white" transform="translate(12.695 12.5)"/>
</clipPath>
<clipPath id="clip1_419_963">
<rect width="24" height="24" fill="white" transform="translate(12.695 12.5)"/>
</clipPath>
<clipPath id="clip2_419_963">
<rect width="23.04" height="24" fill="white" transform="translate(13.175 12.5)"/>
</clipPath>
</defs>
</svg>
