<svg width="49" height="49" viewBox="0 0 49 49" fill="none" xmlns="http://www.w3.org/2000/svg">
<rect x="0.695007" y="0.5" width="48" height="48" rx="12" fill="#F4F6F8"/>
<g clip-path="url(#clip0_419_934)">
<g clip-path="url(#clip1_419_934)">
<g clip-path="url(#clip2_419_934)">
<path fill-rule="evenodd" clip-rule="evenodd" d="M13.1752 16.9696L19.9525 12.5094L24.6951 16.4994L17.8616 20.7521L13.1752 16.9696ZM31.5284 20.752L24.6951 16.4994L29.4377 12.5095L36.215 16.9697L31.5284 20.752ZM31.5284 20.752L36.2148 24.5352L29.4375 28.9954L24.6949 25.0055L19.9524 28.9953L13.175 24.5351L17.8616 20.7521L24.6949 25.0055L31.5284 20.752ZM24.7089 25.8638L19.9526 29.8422L17.9171 28.5026V30.004L24.7089 34.1094L31.5006 30.004V28.5026L29.4653 29.8422L24.7089 25.8638Z" fill="#0F82E2"/>
</g>
</g>
</g>
<defs>
<clipPath id="clip0_419_934">
<rect width="24" height="24" fill="white" transform="translate(12.695 12.5)"/>
</clipPath>
<clipPath id="clip1_419_934">
<rect width="24" height="24" fill="white" transform="translate(12.695 12.5)"/>
</clipPath>
<clipPath id="clip2_419_934">
<rect width="23.04" height="24" fill="white" transform="translate(13.175 12.5)"/>
</clipPath>
</defs>
</svg>
