<svg width="49" height="49" viewBox="0 0 49 49" fill="none" xmlns="http://www.w3.org/2000/svg">
<rect x="0.695007" y="0.5" width="48" height="48" rx="12" fill="#F4F6F8"/>
<g clip-path="url(#clip0_419_992)">
<g clip-path="url(#clip1_419_992)">
<g clip-path="url(#clip2_419_992)">
<path d="M24.6943 12.9894C18.3331 12.9894 13.175 18.1672 13.175 24.5558C13.175 29.6649 16.4755 33.9999 21.054 35.5294C21.63 35.6357 21.8402 35.2786 21.8402 34.9721C21.8402 34.6974 21.8301 33.9702 21.8244 33.0052C18.6197 33.7042 17.9436 31.4547 17.9436 31.4547C17.4201 30.1189 16.6649 29.7632 16.6649 29.7632C15.6187 29.0454 16.7441 29.0599 16.7441 29.0599C17.8997 29.1415 18.5081 30.2518 18.5081 30.2518C19.5362 32.0192 21.2045 31.5089 21.8611 31.2125C21.9655 30.4651 22.2636 29.9555 22.5926 29.6663C20.0345 29.3743 17.3453 28.3825 17.3453 23.9507C17.3453 22.6879 17.7938 21.6557 18.5311 20.8468C18.4123 20.5541 18.017 19.3787 18.6434 17.7862C18.6434 17.7862 19.6111 17.4754 21.8114 18.9717C22.7309 18.7151 23.7158 18.5872 24.6957 18.5821C25.6742 18.5872 26.6599 18.7151 27.58 18.9717C29.7789 17.4754 30.7445 17.7862 30.7445 17.7862C31.3731 19.3787 30.9777 20.5541 30.8589 20.8468C31.5977 21.6557 32.0433 22.6879 32.0433 23.9507C32.0433 28.3934 29.3498 29.3714 26.7837 29.6577C27.197 30.0147 27.5656 30.7202 27.5656 31.7995C27.5656 33.3456 27.5513 34.5926 27.5513 34.9721C27.5513 35.2815 27.7586 35.6415 28.3433 35.528C32.9174 33.9956 36.215 29.6635 36.215 24.5558C36.215 18.1672 31.0569 12.9894 24.6943 12.9894Z" fill="#3E75C3"/>
</g>
</g>
</g>
<defs>
<clipPath id="clip0_419_992">
<rect width="24" height="24" fill="white" transform="translate(12.695 12.5)"/>
</clipPath>
<clipPath id="clip1_419_992">
<rect width="24" height="24" fill="white" transform="translate(12.695 12.5)"/>
</clipPath>
<clipPath id="clip2_419_992">
<rect width="23.04" height="24" fill="white" transform="translate(13.175 12.5)"/>
</clipPath>
</defs>
</svg>
