<svg width="37" height="37" viewBox="0 0 37 37" fill="none" xmlns="http://www.w3.org/2000/svg">
<g opacity="0.48">
<path d="M17.1383 24.3333C16.9436 24.3337 16.7549 24.2659 16.605 24.1417C16.5206 24.0717 16.4509 23.9858 16.3997 23.8888C16.3486 23.7919 16.3171 23.6858 16.307 23.5766C16.297 23.4675 16.3086 23.3574 16.3411 23.2528C16.3736 23.1481 16.4265 23.0509 16.4967 22.9667L20.23 18.5L16.63 14.025C16.5608 13.9398 16.5091 13.8417 16.4779 13.7364C16.4467 13.6311 16.4366 13.5207 16.4482 13.4115C16.4598 13.3023 16.4929 13.1965 16.5456 13.1001C16.5982 13.0038 16.6694 12.9188 16.755 12.85C16.8412 12.7741 16.9422 12.7169 17.0516 12.6819C17.161 12.6469 17.2764 12.6349 17.3906 12.6467C17.5049 12.6584 17.6155 12.6936 17.7155 12.7501C17.8154 12.8066 17.9027 12.8832 17.9717 12.975L21.9967 17.975C22.1192 18.1241 22.1862 18.3111 22.1862 18.5042C22.1862 18.6972 22.1192 18.8842 21.9967 19.0333L17.83 24.0333C17.7464 24.1342 17.6402 24.2139 17.52 24.266C17.3999 24.3182 17.2691 24.3412 17.1383 24.3333Z" fill="white"/>
</g>
</svg>
