<svg width="37" height="37" viewBox="0 0 37 37" fill="none" xmlns="http://www.w3.org/2000/svg">
<path d="M25.7134 24.575L22.88 21.75C23.7942 20.5854 24.2902 19.1472 24.2884 17.6667C24.2884 16.3481 23.8974 15.0592 23.1648 13.9629C22.4323 12.8665 21.3911 12.0121 20.1729 11.5075C18.9547 11.0029 17.6143 10.8709 16.3211 11.1281C15.0279 11.3853 13.84 12.0203 12.9076 12.9526C11.9753 13.885 11.3404 15.0729 11.0831 16.3661C10.8259 17.6593 10.9579 18.9997 11.4625 20.2179C11.9671 21.4361 12.8216 22.4773 13.9179 23.2098C15.0142 23.9423 16.3031 24.3333 17.6217 24.3333C19.1022 24.3352 20.5404 23.8392 21.705 22.925L24.53 25.7583C24.6075 25.8364 24.6997 25.8984 24.8012 25.9407C24.9028 25.9831 25.0117 26.0048 25.1217 26.0048C25.2317 26.0048 25.3406 25.9831 25.4422 25.9407C25.5437 25.8984 25.6359 25.8364 25.7134 25.7583C25.7915 25.6809 25.8535 25.5887 25.8958 25.4872C25.9381 25.3856 25.9599 25.2767 25.9599 25.1667C25.9599 25.0567 25.9381 24.9477 25.8958 24.8462C25.8535 24.7446 25.7915 24.6525 25.7134 24.575ZM12.6217 17.6667C12.6217 16.6778 12.9149 15.7111 13.4643 14.8888C14.0137 14.0666 14.7946 13.4257 15.7083 13.0473C16.6219 12.6688 17.6272 12.5698 18.5971 12.7627C19.567 12.9557 20.458 13.4319 21.1572 14.1311C21.8565 14.8304 22.3327 15.7213 22.5256 16.6912C22.7185 17.6611 22.6195 18.6665 22.2411 19.5801C21.8626 20.4937 21.2218 21.2746 20.3995 21.824C19.5773 22.3734 18.6106 22.6667 17.6217 22.6667C16.2956 22.6667 15.0238 22.1399 14.0862 21.2022C13.1485 20.2645 12.6217 18.9928 12.6217 17.6667Z" fill="#637381"/>
</svg>
