<svg width="61" height="37" viewBox="0 0 61 37" fill="none" xmlns="http://www.w3.org/2000/svg">
<g opacity="0.48">
<path d="M12.4717 24.3333C12.6664 24.3337 12.8551 24.2659 13.005 24.1417C13.0894 24.0717 13.1591 23.9858 13.2103 23.8888C13.2614 23.7919 13.2929 23.6858 13.3029 23.5766C13.313 23.4675 13.3014 23.3574 13.2689 23.2528C13.2364 23.1481 13.1835 23.0509 13.1133 22.9667L9.37999 18.5L12.98 14.025C13.0492 13.9398 13.1009 13.8417 13.1321 13.7364C13.1633 13.6311 13.1734 13.5207 13.1618 13.4115C13.1501 13.3023 13.1171 13.1965 13.0644 13.1001C13.0118 13.0038 12.9406 12.9188 12.855 12.85C12.7688 12.7741 12.6678 12.7169 12.5584 12.6819C12.449 12.6469 12.3336 12.6349 12.2193 12.6467C12.1051 12.6584 11.9945 12.6936 11.8945 12.7501C11.7945 12.8066 11.7073 12.8832 11.6383 12.975L7.61332 17.975C7.49076 18.1241 7.42375 18.3111 7.42375 18.5042C7.42375 18.6972 7.49076 18.8842 7.61332 19.0333L11.78 24.0333C11.8636 24.1342 11.9698 24.2139 12.09 24.266C12.2101 24.3182 12.3409 24.3412 12.4717 24.3333Z" fill="white"/>
</g>
</svg>
