<svg width="26" height="26" viewBox="0 0 26 26" fill="none" xmlns="http://www.w3.org/2000/svg">
<g filter="url(#filter0_b_419_1280)">
<rect x="0.455017" y="0.5" width="25.45" height="25.45" rx="12.725" fill="white" fill-opacity="0.48"/>
<rect x="0.955017" y="1" width="24.45" height="24.45" rx="12.225" stroke="#919EAB" stroke-opacity="0.2" stroke-dasharray="3 2"/>
<path d="M14.405 17.8967C14.3054 17.897 14.207 17.875 14.117 17.8323C14.027 17.7897 13.9478 17.7273 13.885 17.65L10.665 13.65C10.567 13.5307 10.5134 13.3811 10.5134 13.2267C10.5134 13.0723 10.567 12.9226 10.665 12.8033L13.9984 8.80333C14.1115 8.66719 14.2741 8.58157 14.4504 8.56532C14.6267 8.54907 14.8022 8.60351 14.9384 8.71667C15.0745 8.82983 15.1601 8.99243 15.1764 9.16872C15.1926 9.345 15.1382 9.52052 15.025 9.65667L12.045 13.23L14.925 16.8033C15.0065 16.9012 15.0583 17.0204 15.0743 17.1467C15.0902 17.2731 15.0696 17.4014 15.0149 17.5164C14.9602 17.6314 14.8736 17.7283 14.7656 17.7957C14.6575 17.8631 14.5324 17.8982 14.405 17.8967Z" fill="#637381"/>
</g>
<defs>
<filter id="filter0_b_419_1280" x="-5.54498" y="-5.5" width="37.45" height="37.45" filterUnits="userSpaceOnUse" color-interpolation-filters="sRGB">
<feFlood flood-opacity="0" result="BackgroundImageFix"/>
<feGaussianBlur in="BackgroundImageFix" stdDeviation="3"/>
<feComposite in2="SourceAlpha" operator="in" result="effect1_backgroundBlur_419_1280"/>
<feBlend mode="normal" in="SourceGraphic" in2="effect1_backgroundBlur_419_1280" result="shape"/>
</filter>
</defs>
</svg>
