<svg width="41" height="41" viewBox="0 0 41 41" fill="none" xmlns="http://www.w3.org/2000/svg">
<path opacity="0.4" d="M23.815 17.5C25.4719 17.5 26.815 16.1569 26.815 14.5C26.815 12.8431 25.4719 11.5 23.815 11.5C22.1581 11.5 20.815 12.8431 20.815 14.5C20.815 16.1569 22.1581 17.5 23.815 17.5Z" fill="#637381"/>
<path opacity="0.4" d="M24.815 28.5C27.5764 28.5 29.815 27.1569 29.815 25.5C29.815 23.8431 27.5764 22.5 24.815 22.5C22.0536 22.5 19.815 23.8431 19.815 25.5C19.815 27.1569 22.0536 28.5 24.815 28.5Z" fill="#637381"/>
<path d="M17.816 18.5C20.0251 18.5 21.816 16.7091 21.816 14.5C21.816 12.2909 20.0251 10.5 17.816 10.5C15.6069 10.5 13.816 12.2909 13.816 14.5C13.816 16.7091 15.6069 18.5 17.816 18.5Z" fill="#637381"/>
<path d="M17.816 29.501C21.682 29.501 24.816 27.7101 24.816 25.501C24.816 23.2919 21.682 21.501 17.816 21.501C13.95 21.501 10.816 23.2919 10.816 25.501C10.816 27.7101 13.95 29.501 17.816 29.501Z" fill="#637381"/>
</svg>
