<svg width="94" height="70" viewBox="0 0 94 70" fill="none" xmlns="http://www.w3.org/2000/svg">
<mask id="path-1-inside-1_419_792" fill="white">
<path d="M0.315002 0.859985H93.455V69.59H0.315002V0.859985Z"/>
</mask>
<path d="M0.315002 69.9536H1.78563V69.2264H0.315002V69.9536ZM3.74648 69.9536H6.68774V69.2264H3.74648V69.9536ZM8.64858 69.9536H11.5898V69.2264H8.64858V69.9536ZM13.5507 69.9536H16.492V69.2264H13.5507V69.9536ZM18.4528 69.9536H21.3941V69.2264H18.4528V69.9536ZM23.3549 69.9536H26.2962V69.2264H23.3549V69.9536ZM28.257 69.9536H31.1983V69.2264H28.257V69.9536ZM33.1591 69.9536H36.1004V69.2264H33.1591V69.9536ZM38.0612 69.9536H41.0025V69.2264H38.0612V69.9536ZM42.9633 69.9536H45.9046V69.2264H42.9633V69.9536ZM47.8654 69.9536H50.8067V69.2264H47.8654V69.9536ZM52.7675 69.9536H55.7088V69.2264H52.7675V69.9536ZM57.6696 69.9536H60.6109V69.2264H57.6696V69.9536ZM62.5717 69.9536H65.513V69.2264H62.5717V69.9536ZM67.4739 69.9536H70.4151V69.2264H67.4739V69.9536ZM72.376 69.9536H75.3172V69.2264H72.376V69.9536ZM77.2781 69.9536H80.2193V69.2264H77.2781V69.9536ZM82.1802 69.9536H85.1214V69.2264H82.1802V69.9536ZM87.0823 69.9536H90.0235V69.2264H87.0823V69.9536ZM91.9844 69.9536H93.455V69.2264H91.9844V69.9536ZM0.315002 70.3173H1.78563V68.8627H0.315002V70.3173ZM3.74648 70.3173H6.68774V68.8627H3.74648V70.3173ZM8.64858 70.3173H11.5898V68.8627H8.64858V70.3173ZM13.5507 70.3173H16.492V68.8627H13.5507V70.3173ZM18.4528 70.3173H21.3941V68.8627H18.4528V70.3173ZM23.3549 70.3173H26.2962V68.8627H23.3549V70.3173ZM28.257 70.3173H31.1983V68.8627H28.257V70.3173ZM33.1591 70.3173H36.1004V68.8627H33.1591V70.3173ZM38.0612 70.3173H41.0025V68.8627H38.0612V70.3173ZM42.9633 70.3173H45.9046V68.8627H42.9633V70.3173ZM47.8654 70.3173H50.8067V68.8627H47.8654V70.3173ZM52.7675 70.3173H55.7088V68.8627H52.7675V70.3173ZM57.6696 70.3173H60.6109V68.8627H57.6696V70.3173ZM62.5717 70.3173H65.513V68.8627H62.5717V70.3173ZM67.4739 70.3173H70.4151V68.8627H67.4739V70.3173ZM72.376 70.3173H75.3172V68.8627H72.376V70.3173ZM77.2781 70.3173H80.2193V68.8627H77.2781V70.3173ZM82.1802 70.3173H85.1214V68.8627H82.1802V70.3173ZM87.0823 70.3173H90.0235V68.8627H87.0823V70.3173ZM91.9844 70.3173H93.455V68.8627H91.9844V70.3173Z" fill="#F1F3F4" mask="url(#path-1-inside-1_419_792)"/>
<path d="M67.455 36.8967C68.3755 36.8967 69.1217 36.1505 69.1217 35.23C69.1217 34.3095 68.3755 33.5634 67.455 33.5634C66.5345 33.5634 65.7883 34.3095 65.7883 35.23C65.7883 36.1505 66.5345 36.8967 67.455 36.8967Z" fill="#637381"/>
<path d="M67.455 31.0633C68.3755 31.0633 69.1217 30.3171 69.1217 29.3966C69.1217 28.4762 68.3755 27.73 67.455 27.73C66.5345 27.73 65.7883 28.4762 65.7883 29.3966C65.7883 30.3171 66.5345 31.0633 67.455 31.0633Z" fill="#637381"/>
<path d="M67.455 42.7299C68.3755 42.7299 69.1217 41.9837 69.1217 41.0633C69.1217 40.1428 68.3755 39.3966 67.455 39.3966C66.5345 39.3966 65.7883 40.1428 65.7883 41.0633C65.7883 41.9837 66.5345 42.7299 67.455 42.7299Z" fill="#637381"/>
</svg>
