<svg width="117" height="37" viewBox="0 0 117 37" fill="none" xmlns="http://www.w3.org/2000/svg">
<path d="M18.245 19.8067C19.1655 19.8067 19.9117 19.0605 19.9117 18.1401C19.9117 17.2196 19.1655 16.4734 18.245 16.4734C17.3245 16.4734 16.5783 17.2196 16.5783 18.1401C16.5783 19.0605 17.3245 19.8067 18.245 19.8067Z" fill="#637381"/>
<path d="M18.245 13.9733C19.1655 13.9733 19.9117 13.2272 19.9117 12.3067C19.9117 11.3862 19.1655 10.64 18.245 10.64C17.3245 10.64 16.5783 11.3862 16.5783 12.3067C16.5783 13.2272 17.3245 13.9733 18.245 13.9733Z" fill="#637381"/>
<path d="M18.245 25.64C19.1655 25.64 19.9117 24.8938 19.9117 23.9733C19.9117 23.0528 19.1655 22.3066 18.245 22.3066C17.3245 22.3066 16.5783 23.0528 16.5783 23.9733C16.5783 24.8938 17.3245 25.64 18.245 25.64Z" fill="#637381"/>
</svg>
