<svg width="94" height="70" viewBox="0 0 94 70" fill="none" xmlns="http://www.w3.org/2000/svg">
<mask id="path-1-inside-1_419_808" fill="white">
<path d="M0.315002 0.589966H93.455V69.32H0.315002V0.589966Z"/>
</mask>
<path d="M0.315002 69.6836H1.78563V68.9563H0.315002V69.6836ZM3.74648 69.6836H6.68774V68.9563H3.74648V69.6836ZM8.64858 69.6836H11.5898V68.9563H8.64858V69.6836ZM13.5507 69.6836H16.492V68.9563H13.5507V69.6836ZM18.4528 69.6836H21.3941V68.9563H18.4528V69.6836ZM23.3549 69.6836H26.2962V68.9563H23.3549V69.6836ZM28.257 69.6836H31.1983V68.9563H28.257V69.6836ZM33.1591 69.6836H36.1004V68.9563H33.1591V69.6836ZM38.0612 69.6836H41.0025V68.9563H38.0612V69.6836ZM42.9633 69.6836H45.9046V68.9563H42.9633V69.6836ZM47.8654 69.6836H50.8067V68.9563H47.8654V69.6836ZM52.7675 69.6836H55.7088V68.9563H52.7675V69.6836ZM57.6696 69.6836H60.6109V68.9563H57.6696V69.6836ZM62.5717 69.6836H65.513V68.9563H62.5717V69.6836ZM67.4739 69.6836H70.4151V68.9563H67.4739V69.6836ZM72.376 69.6836H75.3172V68.9563H72.376V69.6836ZM77.2781 69.6836H80.2193V68.9563H77.2781V69.6836ZM82.1802 69.6836H85.1214V68.9563H82.1802V69.6836ZM87.0823 69.6836H90.0235V68.9563H87.0823V69.6836ZM91.9844 69.6836H93.455V68.9563H91.9844V69.6836ZM0.315002 70.0472H1.78563V68.5927H0.315002V70.0472ZM3.74648 70.0472H6.68774V68.5927H3.74648V70.0472ZM8.64858 70.0472H11.5898V68.5927H8.64858V70.0472ZM13.5507 70.0472H16.492V68.5927H13.5507V70.0472ZM18.4528 70.0472H21.3941V68.5927H18.4528V70.0472ZM23.3549 70.0472H26.2962V68.5927H23.3549V70.0472ZM28.257 70.0472H31.1983V68.5927H28.257V70.0472ZM33.1591 70.0472H36.1004V68.5927H33.1591V70.0472ZM38.0612 70.0472H41.0025V68.5927H38.0612V70.0472ZM42.9633 70.0472H45.9046V68.5927H42.9633V70.0472ZM47.8654 70.0472H50.8067V68.5927H47.8654V70.0472ZM52.7675 70.0472H55.7088V68.5927H52.7675V70.0472ZM57.6696 70.0472H60.6109V68.5927H57.6696V70.0472ZM62.5717 70.0472H65.513V68.5927H62.5717V70.0472ZM67.4739 70.0472H70.4151V68.5927H67.4739V70.0472ZM72.376 70.0472H75.3172V68.5927H72.376V70.0472ZM77.2781 70.0472H80.2193V68.5927H77.2781V70.0472ZM82.1802 70.0472H85.1214V68.5927H82.1802V70.0472ZM87.0823 70.0472H90.0235V68.5927H87.0823V70.0472ZM91.9844 70.0472H93.455V68.5927H91.9844V70.0472Z" fill="#F1F3F4" mask="url(#path-1-inside-1_419_808)"/>
<path d="M67.455 36.6167C68.3755 36.6167 69.1217 35.8705 69.1217 34.95C69.1217 34.0295 68.3755 33.2833 67.455 33.2833C66.5345 33.2833 65.7883 34.0295 65.7883 34.95C65.7883 35.8705 66.5345 36.6167 67.455 36.6167Z" fill="#637381"/>
<path d="M67.455 30.7833C68.3755 30.7833 69.1217 30.0371 69.1217 29.1166C69.1217 28.1961 68.3755 27.45 67.455 27.45C66.5345 27.45 65.7883 28.1961 65.7883 29.1166C65.7883 30.0371 66.5345 30.7833 67.455 30.7833Z" fill="#637381"/>
<path d="M67.455 42.4499C68.3755 42.4499 69.1217 41.7037 69.1217 40.7832C69.1217 39.8628 68.3755 39.1166 67.455 39.1166C66.5345 39.1166 65.7883 39.8628 65.7883 40.7832C65.7883 41.7037 66.5345 42.4499 67.455 42.4499Z" fill="#637381"/>
</svg>
