<svg width="25" height="25" viewBox="0 0 25 25" fill="none" xmlns="http://www.w3.org/2000/svg">
<path opacity="0.5" d="M5.04499 18.25C4.89163 18.2501 4.74191 18.2032 4.61603 18.1156C4.49015 18.028 4.39415 17.9039 4.34097 17.7601C4.28779 17.6162 4.27998 17.4595 4.31861 17.3111C4.35724 17.1627 4.44043 17.0297 4.55699 16.93L11.557 10.93C11.6929 10.8135 11.866 10.7495 12.045 10.7495C12.224 10.7495 12.3971 10.8135 12.533 10.93L19.533 16.93C19.6495 17.0297 19.7327 17.1627 19.7714 17.3111C19.81 17.4595 19.8022 17.6162 19.749 17.7601C19.6958 17.9039 19.5998 18.028 19.474 18.1156C19.3481 18.2032 19.1984 18.2501 19.045 18.25H5.04499Z" fill="#22C55E"/>
<path fill-rule="evenodd" clip-rule="evenodd" d="M4.47497 13.988C4.5391 14.0628 4.61735 14.1243 4.70523 14.1689C4.79312 14.2134 4.88893 14.2403 4.98719 14.2478C5.08544 14.2553 5.18422 14.2434 5.27787 14.2127C5.37152 14.182 5.4582 14.1332 5.53297 14.069L12.045 8.48803L18.557 14.069C18.6311 14.1369 18.7182 14.1892 18.8129 14.2228C18.9077 14.2564 19.0083 14.2706 19.1086 14.2645C19.209 14.2585 19.3071 14.2323 19.3972 14.1876C19.4872 14.1429 19.5673 14.0805 19.6328 14.0042C19.6982 13.9278 19.7477 13.8391 19.7782 13.7433C19.8087 13.6475 19.8196 13.5466 19.8103 13.4464C19.801 13.3463 19.7716 13.2491 19.724 13.1606C19.6763 13.072 19.6114 12.994 19.533 12.931L12.533 6.93103C12.3971 6.81456 12.224 6.75055 12.045 6.75055C11.866 6.75055 11.6929 6.81456 11.557 6.93103L4.55697 12.931C4.40616 13.0605 4.31291 13.2446 4.29773 13.4428C4.28254 13.641 4.34665 13.8371 4.47597 13.988" fill="#22C55E"/>
</svg>
