<svg width="41" height="41" viewBox="0 0 41 41" fill="none" xmlns="http://www.w3.org/2000/svg">
<path d="M36.9417 13.8333V13.955C36.9417 15.3883 36.9417 16.1067 36.5967 16.6933C36.2517 17.28 35.6234 17.6283 34.3701 18.3267L33.0484 19.06C33.9584 15.98 34.2634 12.67 34.3751 9.84001L34.3917 9.47168L34.3951 9.38501C35.4801 9.76168 36.0901 10.0433 36.4701 10.57C36.9417 11.225 36.9417 12.095 36.9417 13.8333ZM3.6084 13.8333V13.955C3.6084 15.3883 3.6084 16.1067 3.9534 16.6933C4.2984 17.28 4.92673 17.6283 6.18007 18.3267L7.5034 19.06C6.59173 15.98 6.28673 12.67 6.17506 9.84001L6.1584 9.47168L6.15673 9.38501C5.07007 9.76168 4.46007 10.0433 4.08007 10.57C3.6084 11.225 3.6084 12.0967 3.6084 13.8333Z" fill="#FF5630"/>
<path fill-rule="evenodd" clip-rule="evenodd" d="M20.2751 3.56338C23.2484 3.56338 25.6967 3.82505 27.5701 4.14171C29.4684 4.46171 30.4167 4.62171 31.2101 5.59838C32.0034 6.57505 31.9601 7.63005 31.8767 9.74005C31.5901 16.9884 30.0267 26.04 21.5251 26.84V32.73H23.9084C24.2935 32.7303 24.6667 32.8639 24.9645 33.1082C25.2623 33.3525 25.4662 33.6924 25.5417 34.07L25.8584 35.6467H30.2751C30.6066 35.6467 30.9245 35.7784 31.1589 36.0128C31.3934 36.2473 31.5251 36.5652 31.5251 36.8967C31.5251 37.2282 31.3934 37.5462 31.1589 37.7806C30.9245 38.015 30.6066 38.1467 30.2751 38.1467H10.2751C9.94354 38.1467 9.6256 38.015 9.39118 37.7806C9.15676 37.5462 9.02506 37.2282 9.02506 36.8967C9.02506 36.5652 9.15676 36.2473 9.39118 36.0128C9.6256 35.7784 9.94354 35.6467 10.2751 35.6467H14.6917L15.0084 34.07C15.0839 33.6924 15.2879 33.3525 15.5856 33.1082C15.8834 32.8639 16.2566 32.7303 16.6417 32.73H19.0251V26.84C10.5251 26.04 8.96173 16.9867 8.67506 9.74005C8.59006 7.63005 8.54839 6.57338 9.34173 5.59838C10.1334 4.62171 11.0817 4.46171 12.9801 4.14171C15.3914 3.74651 17.8315 3.55306 20.2751 3.56338ZM21.8617 10.5617L21.6984 10.2684C21.0651 9.13005 20.7484 8.56338 20.2751 8.56338C19.8017 8.56338 19.4851 9.13005 18.8517 10.2684L18.6884 10.5617C18.5084 10.885 18.4184 11.045 18.2784 11.1517C18.1367 11.2584 17.9617 11.2984 17.6117 11.3767L17.2951 11.45C16.0651 11.7284 15.4501 11.8667 15.3034 12.3367C15.1567 12.8084 15.5767 13.2984 16.4151 14.2784L16.6317 14.5317C16.8701 14.81 16.9901 14.9484 17.0434 15.1217C17.0967 15.295 17.0784 15.48 17.0434 15.8517L17.0101 16.19C16.8834 17.4984 16.8201 18.1534 17.2017 18.4434C17.5851 18.7334 18.1617 18.4684 19.3134 17.9384L19.6101 17.8017C19.9384 17.6517 20.1017 17.5767 20.2751 17.5767C20.4484 17.5767 20.6117 17.6517 20.9401 17.8017L21.2367 17.9384C22.3884 18.47 22.9651 18.7334 23.3484 18.4434C23.7317 18.1534 23.6667 17.4984 23.5401 16.19L23.5067 15.8517C23.4717 15.48 23.4534 15.295 23.5067 15.1217C23.5601 14.95 23.6801 14.81 23.9184 14.5317L24.1351 14.2784C24.9734 13.2984 25.3934 12.8084 25.2467 12.3367C25.1001 11.8667 24.4851 11.7284 23.2551 11.45L22.9384 11.3767C22.5884 11.2984 22.4134 11.26 22.2717 11.1517C22.1317 11.045 22.0417 10.885 21.8617 10.5617Z" fill="#FF5630"/>
</svg>
