<svg width="17" height="17" viewBox="0 0 17 17" fill="none" xmlns="http://www.w3.org/2000/svg">
<path d="M8.06496 11.1666C7.90919 11.167 7.75824 11.1127 7.6383 11.0133L3.6383 7.67998C3.50215 7.56682 3.41654 7.40421 3.40028 7.22793C3.38403 7.05165 3.43847 6.87612 3.55163 6.73998C3.66479 6.60384 3.8274 6.51822 4.00368 6.50197C4.17996 6.48571 4.35548 6.54015 4.49163 6.65331L8.06496 9.63998L11.6383 6.75998C11.7065 6.7046 11.785 6.66325 11.8692 6.63829C11.9534 6.61334 12.0417 6.60528 12.1291 6.61457C12.2164 6.62386 12.3011 6.65033 12.3782 6.69244C12.4553 6.73456 12.5233 6.7915 12.5783 6.85998C12.6393 6.92853 12.6856 7.00895 12.7141 7.09619C12.7426 7.18344 12.7528 7.27564 12.7441 7.36702C12.7353 7.4584 12.7078 7.54698 12.6632 7.62721C12.6186 7.70745 12.5579 7.77762 12.485 7.83331L8.48496 11.0533C8.36157 11.137 8.2137 11.1769 8.06496 11.1666Z" fill="#212B36"/>
</svg>
