<svg width="25" height="25" viewBox="0 0 25 25" fill="none" xmlns="http://www.w3.org/2000/svg">
<path opacity="0.5" d="M5.27485 6.75C5.12149 6.74989 4.97177 6.79679 4.84589 6.88439C4.72001 6.97199 4.62401 7.09608 4.57083 7.23993C4.51765 7.38378 4.50984 7.54047 4.54847 7.68889C4.5871 7.83731 4.67029 7.97033 4.78685 8.07L11.7868 14.07C12.0668 14.31 12.4818 14.31 12.7628 14.07L19.7629 8.07C19.8794 7.97033 19.9626 7.83731 20.0012 7.68889C20.0399 7.54047 20.0321 7.38378 19.9789 7.23993C19.9257 7.09608 19.8297 6.97199 19.7038 6.88439C19.5779 6.79679 19.4282 6.74989 19.2748 6.75H5.27485Z" fill="#FF5630"/>
<path fill-rule="evenodd" clip-rule="evenodd" d="M4.70496 11.012C4.76909 10.9372 4.84733 10.8757 4.93522 10.8312C5.02311 10.7866 5.11892 10.7598 5.21717 10.7522C5.31543 10.7447 5.4142 10.7566 5.50785 10.7873C5.6015 10.818 5.68819 10.8668 5.76296 10.931L12.275 16.512L18.787 10.931C18.8616 10.8661 18.9484 10.8167 19.0423 10.7855C19.1361 10.7543 19.2353 10.742 19.3339 10.7492C19.4326 10.7565 19.5288 10.7832 19.6171 10.8278C19.7054 10.8724 19.784 10.9341 19.8483 11.0092C19.9127 11.0843 19.9616 11.1714 19.9921 11.2655C20.0227 11.3596 20.0343 11.4588 20.0264 11.5574C20.0185 11.656 19.9911 11.752 19.9459 11.84C19.9007 11.928 19.8385 12.0061 19.763 12.07L12.763 18.07C12.627 18.1865 12.454 18.2505 12.275 18.2505C12.096 18.2505 11.9229 18.1865 11.787 18.07L4.78696 12.07C4.71214 12.0059 4.65068 11.9276 4.60612 11.8397C4.56155 11.7518 4.53474 11.656 4.52721 11.5578C4.51969 11.4595 4.5316 11.3607 4.56228 11.2671C4.59295 11.1735 4.64177 11.0868 4.70596 11.012" fill="#FF5630"/>
</svg>
