<svg width="15" height="15" viewBox="0 0 15 15" fill="none" xmlns="http://www.w3.org/2000/svg">
<path d="M13.095 7.81334V12.1498C13.095 12.2673 13.0713 12.3836 13.0254 12.4918C12.9794 12.6 12.9122 12.6978 12.8276 12.7794C12.7431 12.861 12.643 12.9247 12.5333 12.9668C12.4236 13.0089 12.3065 13.0284 12.1891 13.0243L12.1115 13.0178L7.84497 12.4847V7.81334H13.095ZM6.6783 7.81334V12.3388L3.61697 11.9562C3.33476 11.9209 3.07515 11.7838 2.88694 11.5705C2.69874 11.3573 2.59491 11.0827 2.59497 10.7983V7.81334H6.6783ZM12.1115 1.44217C12.2281 1.42761 12.3464 1.43667 12.4594 1.46883C12.5724 1.50099 12.6778 1.55558 12.7693 1.62935C12.8607 1.70311 12.9364 1.79454 12.9917 1.89818C13.0471 2.00183 13.081 2.11556 13.0915 2.23259L13.095 2.31017V6.64667H7.84497V1.97534L12.1115 1.44217ZM6.6783 2.12117V6.64667H2.59497V3.66176C2.59491 3.37735 2.69874 3.10271 2.88694 2.88948C3.07515 2.67625 3.33476 2.53911 3.61697 2.50384L6.6783 2.12117Z" fill="#919EAB"/>
</svg>
