<svg width="29" height="21" viewBox="0 0 29 21" fill="none" xmlns="http://www.w3.org/2000/svg">
<path fill-rule="evenodd" clip-rule="evenodd" d="M0.71167 0.22998H27.3783V20.23H0.71167V0.22998Z" fill="#F7FCFF"/>
<path fill-rule="evenodd" clip-rule="evenodd" d="M0.71167 12.4525V14.1191H27.3783V12.4525H0.71167ZM0.71167 15.5075V17.1741H27.3783V15.5075H0.71167ZM0.71167 6.34081V8.00748H27.3783V6.34081H0.71167ZM0.71167 18.5633V20.23H27.3783V18.5633H0.71167ZM0.71167 9.39665V11.0633H27.3783V9.39665H0.71167ZM0.71167 0.22998V1.89665H27.3783V0.22998H0.71167ZM0.71167 3.28581V4.95248H27.3783V3.28581H0.71167Z" fill="#E31D1C"/>
<path d="M0.71167 0.22998H17.3783V11.0633H0.71167V0.22998Z" fill="#2E42A5"/>
<path fill-rule="evenodd" clip-rule="evenodd" d="M2.14665 2.67925L1.54165 3.10342L1.74581 2.34842L1.20831 1.87008H1.91081L2.14581 1.25342L2.42165 1.87008H3.01998L2.54998 2.34842L2.73165 3.10342L2.14665 2.67925ZM5.47998 2.67925L4.87498 3.10342L5.07915 2.34842L4.54248 1.87008H5.24415L5.47915 1.25342L5.75498 1.87008H6.35331L5.88331 2.34842L6.06498 3.10342L5.47998 2.67925ZM8.20831 3.10342L8.81331 2.67842L9.39831 3.10342L9.21665 2.34842L9.68665 1.87008H9.08831L8.81248 1.25342L8.57748 1.87008H7.87581L8.41248 2.34842L8.20831 3.10342ZM12.1466 2.67842L11.5416 3.10342L11.7458 2.34842L11.2091 1.87008H11.9108L12.1458 1.25342L12.4216 1.87008H13.02L12.55 2.34842L12.7316 3.10342L12.1466 2.67842ZM1.54165 6.43758L2.14665 6.01258L2.73165 6.43758L2.54998 5.68258L3.01998 5.20425H2.42165L2.14581 4.58758L1.91081 5.20425H1.20831L1.74581 5.68258L1.54165 6.43758ZM5.47998 6.01258L4.87498 6.43758L5.07915 5.68258L4.54248 5.20425H5.24415L5.47915 4.58758L5.75498 5.20425H6.35331L5.88331 5.68258L6.06498 6.43758L5.47998 6.01258ZM8.20831 6.43758L8.81331 6.01258L9.39831 6.43758L9.21665 5.68258L9.68665 5.20425H9.08831L8.81248 4.58758L8.57748 5.20425H7.87581L8.41248 5.68258L8.20831 6.43758ZM12.1466 6.01258L11.5416 6.43758L11.7458 5.68258L11.2091 5.20425H11.9108L12.1458 4.58758L12.4216 5.20425H13.02L12.55 5.68258L12.7316 6.43758L12.1466 6.01258ZM1.54165 9.77092L2.14665 9.34592L2.73165 9.77092L2.54998 9.01592L3.01998 8.53758H2.42165L2.14581 7.92092L1.91081 8.53758H1.20831L1.74581 9.01592L1.54165 9.77092ZM5.47998 9.34592L4.87498 9.77092L5.07915 9.01592L4.54248 8.53758H5.24415L5.47915 7.92092L5.75498 8.53758H6.35331L5.88331 9.01592L6.06498 9.77092L5.47998 9.34592ZM8.20831 9.77092L8.81331 9.34592L9.39831 9.77092L9.21665 9.01592L9.68665 8.53758H9.08831L8.81248 7.92092L8.57748 8.53758H7.87581L8.41248 9.01592L8.20831 9.77092ZM12.1466 9.34592L11.5416 9.77092L11.7458 9.01592L11.2091 8.53758H11.9108L12.1458 7.92092L12.4216 8.53758H13.02L12.55 9.01592L12.7316 9.77092L12.1466 9.34592ZM14.875 3.10425L15.48 2.67925L16.065 3.10425L15.8833 2.34925L16.3533 1.87092H15.755L15.4791 1.25425L15.2441 1.87092H14.5416L15.0791 2.34925L14.875 3.10425ZM15.48 6.01258L14.875 6.43758L15.0791 5.68258L14.5416 5.20425H15.2441L15.4791 4.58758L15.755 5.20425H16.3533L15.8833 5.68258L16.065 6.43758L15.48 6.01258ZM14.875 9.77092L15.48 9.34592L16.065 9.77092L15.8833 9.01592L16.3533 8.53758H15.755L15.4791 7.92092L15.2441 8.53758H14.5416L15.0791 9.01592L14.875 9.77092ZM3.81331 4.34508L3.20831 4.77008L3.41248 4.01508L2.87498 3.53675H3.57748L3.81248 2.92008L4.08831 3.53675H4.68665L4.21665 4.01508L4.39831 4.77008L3.81331 4.34508ZM6.54165 4.77008L7.14665 4.34508L7.73165 4.77008L7.54998 4.01508L8.01998 3.53675H7.42165L7.14581 2.92008L6.91081 3.53675H6.20831L6.74581 4.01508L6.54165 4.77008ZM10.48 4.34508L9.87498 4.77008L10.0791 4.01508L9.54248 3.53675H10.2441L10.4791 2.92008L10.755 3.53675H11.3533L10.8833 4.01508L11.065 4.77008L10.48 4.34508ZM3.20831 8.10342L3.81331 7.67842L4.39831 8.10342L4.21665 7.34842L4.68665 6.87008H4.08831L3.81248 6.25342L3.57748 6.87008H2.87498L3.41248 7.34842L3.20831 8.10342ZM7.14665 7.67842L6.54165 8.10342L6.74581 7.34842L6.20915 6.87008H6.91081L7.14581 6.25342L7.42165 6.87008H8.01998L7.54998 7.34842L7.73165 8.10342L7.14665 7.67842ZM9.87498 8.10342L10.48 7.67842L11.065 8.10342L10.8833 7.34842L11.3533 6.87008H10.755L10.4791 6.25342L10.2441 6.87008H9.54248L10.0791 7.34842L9.87498 8.10342ZM13.8133 4.34508L13.2083 4.77008L13.4125 4.01508L12.8758 3.53675H13.5775L13.8125 2.92008L14.0883 3.53675H14.6866L14.2166 4.01508L14.3983 4.77008L13.8133 4.34508ZM13.2083 8.10342L13.8133 7.67842L14.3983 8.10342L14.2166 7.34842L14.6866 6.87008H14.0883L13.8125 6.25342L13.5775 6.87008H12.8758L13.4125 7.34842L13.2083 8.10342Z" fill="#F7FCFF"/>
</svg>
