<svg width="15" height="15" viewBox="0 0 15 15" fill="none" xmlns="http://www.w3.org/2000/svg">
<path d="M3.73773 10.3705C3.73773 10.6904 3.99886 10.9515 4.32015 10.9515H4.98597V12.5976C4.98597 13.0146 5.32093 13.355 5.73246 13.355C6.14535 13.355 6.47894 13.016 6.47894 12.5976V10.9502H7.64105V12.5962C7.64105 13.0132 7.97601 13.3537 8.38754 13.3537C8.80043 13.3537 9.13402 13.0146 9.13402 12.5962V10.9502H9.79984C10.1211 10.9502 10.3823 10.689 10.3823 10.3691V4.96597H3.73773V10.3705ZM8.61996 2.16597L9.23383 1.2773C9.26937 1.22535 9.26117 1.15562 9.21332 1.12144C9.16547 1.08863 9.09711 1.10504 9.06156 1.15699L8.42445 2.08121C8.00472 1.91578 7.53715 1.82418 7.04633 1.82418C6.5555 1.82418 6.08793 1.91578 5.6682 2.08121L5.03109 1.15836C4.99554 1.1064 4.92719 1.08863 4.87933 1.12281C4.83148 1.15562 4.82328 1.22398 4.85883 1.27867L5.47269 2.16734C4.49652 2.62125 3.81293 3.48121 3.72543 4.48609H10.37C10.2797 3.47984 9.59476 2.61988 8.61996 2.16597ZM5.64359 3.56734C5.57085 3.56734 5.49975 3.54577 5.43927 3.50536C5.37879 3.46495 5.33165 3.40751 5.30381 3.34031C5.27598 3.27311 5.26869 3.19916 5.28288 3.12782C5.29708 3.05648 5.3321 2.99095 5.38354 2.93951C5.43497 2.88808 5.5005 2.85305 5.57184 2.83886C5.64318 2.82467 5.71713 2.83195 5.78433 2.85979C5.85153 2.88763 5.90897 2.93476 5.94938 2.99524C5.9898 3.05572 6.01136 3.12683 6.01136 3.19957C6.01111 3.29703 5.97228 3.39043 5.90337 3.45934C5.83445 3.52826 5.74105 3.56709 5.64359 3.56734ZM8.49281 3.56734C8.42007 3.56734 8.34897 3.54577 8.28849 3.50536C8.22801 3.46495 8.18087 3.40751 8.15303 3.34031C8.1252 3.27311 8.11791 3.19916 8.1321 3.12782C8.14629 3.05648 8.18132 2.99095 8.23276 2.93951C8.28419 2.88808 8.34972 2.85305 8.42106 2.83886C8.4924 2.82467 8.56635 2.83195 8.63355 2.85979C8.70075 2.88763 8.75819 2.93476 8.7986 2.99524C8.83901 3.05572 8.86058 3.12683 8.86058 3.19957C8.86033 3.29703 8.8215 3.39043 8.75259 3.45934C8.68367 3.52826 8.59027 3.56709 8.49281 3.56734ZM11.5471 4.9441C11.1342 4.9441 10.8006 5.28316 10.8006 5.70152V8.66011C10.8006 9.07711 11.1356 9.41754 11.5471 9.41754C11.96 9.41754 12.2936 9.07847 12.2936 8.66011V5.70015C12.295 5.2818 11.9614 4.9441 11.5471 4.9441ZM2.54281 4.9441C2.12992 4.9441 1.79633 5.28316 1.79633 5.70152V8.66011C1.79633 9.07711 2.13129 9.41754 2.54281 9.41754C2.9557 9.41754 3.28929 9.07847 3.28929 8.66011V5.70015C3.28929 5.2818 2.95433 4.9441 2.54281 4.9441Z" fill="#919EAB"/>
</svg>
