<svg width="15" height="15" viewBox="0 0 15 15" fill="none" xmlns="http://www.w3.org/2000/svg">
<path d="M8.04571 4.12961L8.4803 3.95111C8.83321 3.81111 9.28938 3.6682 9.8278 3.75861C10.9309 3.94411 11.6915 4.5397 12.1448 5.32953C12.3198 5.63403 12.1786 6.03536 11.852 6.16311C11.5721 6.27259 11.3329 6.46581 11.167 6.71637C11.0011 6.96693 10.9166 7.2626 10.9251 7.56299C10.9336 7.86337 11.0346 8.1538 11.2144 8.39459C11.3942 8.63538 11.644 8.81478 11.9295 8.90828C12.2317 9.00744 12.402 9.34286 12.3029 9.64503C12.045 10.4279 11.674 11.1506 11.2348 11.7339C10.8008 12.3103 10.2711 12.7886 9.68138 13.0225C9.29638 13.1742 8.88338 13.1176 8.48846 13.0196L8.25396 12.9572L7.90571 12.8563C7.74763 12.8102 7.58488 12.7705 7.42505 12.7705C7.26463 12.7705 7.10246 12.8102 6.94438 12.8563L6.59613 12.9572L6.36163 13.0196C5.96671 13.1176 5.55313 13.1748 5.16871 13.0225C4.42613 12.7285 3.77105 12.0425 3.2758 11.2334C2.73964 10.3425 2.38589 9.35382 2.23513 8.32494C2.10271 7.41844 2.17446 6.40053 2.59388 5.53953C3.02555 4.65228 3.81655 3.96161 5.0223 3.75861C5.5123 3.67636 5.93346 3.78661 6.27063 3.9132L6.46371 3.98903L6.80438 4.12961C7.03771 4.2212 7.22146 4.27486 7.42505 4.27486C7.62805 4.27486 7.81238 4.2212 8.04571 4.12961ZM7.28971 1.8447C7.85905 1.27478 8.73346 1.22578 8.93938 1.43228C9.14588 1.6382 9.09688 2.51261 8.52696 3.08195C7.95763 3.65128 7.08321 3.70028 6.8773 3.49436C6.6708 3.28845 6.7198 2.41403 7.28971 1.8447Z" fill="#919EAB"/>
</svg>
