<svg width="17" height="17" viewBox="0 0 17 17" fill="none" xmlns="http://www.w3.org/2000/svg">
<path d="M7.48168 13.1667C7.32591 13.167 7.17496 13.1127 7.05502 13.0133C6.98751 12.9574 6.93171 12.8886 6.89081 12.8111C6.84991 12.7335 6.82471 12.6486 6.81666 12.5613C6.80861 12.474 6.81786 12.386 6.84389 12.3022C6.86992 12.2185 6.91221 12.1407 6.96835 12.0733L9.95502 8.5L7.07502 4.92C7.01964 4.85181 6.97828 4.77335 6.95333 4.68912C6.92838 4.60489 6.92031 4.51657 6.92961 4.42921C6.9389 4.34186 6.96536 4.25721 7.00748 4.18011C7.04959 4.10302 7.10653 4.03502 7.17502 3.98C7.24399 3.91931 7.32477 3.87353 7.41228 3.84554C7.49979 3.81755 7.59214 3.80794 7.68353 3.81733C7.77493 3.82672 7.8634 3.8549 7.94338 3.9001C8.02337 3.94531 8.09315 4.00655 8.14835 4.08L11.3683 8.08C11.4664 8.19929 11.52 8.34892 11.52 8.50333C11.52 8.65775 11.4664 8.80738 11.3683 8.92667L8.03502 12.9267C7.96814 13.0073 7.88318 13.0711 7.78704 13.1128C7.6909 13.1545 7.58629 13.173 7.48168 13.1667Z" fill="#637381"/>
</svg>
