<svg width="41" height="41" viewBox="0 0 41 41" fill="none" xmlns="http://www.w3.org/2000/svg">
<path d="M36.9417 13.8333V13.955C36.9417 15.3883 36.9417 16.1067 36.5967 16.6933C36.2517 17.28 35.6234 17.6283 34.3701 18.3267L33.0484 19.06C33.9584 15.98 34.2634 12.67 34.3751 9.84001L34.3917 9.47168L34.3951 9.38501C35.4801 9.76168 36.0901 10.0433 36.4701 10.57C36.9417 11.225 36.9417 12.095 36.9417 13.8333ZM3.6084 13.8333V13.955C3.6084 15.3883 3.6084 16.1067 3.9534 16.6933C4.2984 17.28 4.92673 17.6283 6.18007 18.3267L7.5034 19.06C6.59173 15.98 6.28673 12.67 6.17506 9.84001L6.1584 9.47168L6.15673 9.38501C5.07007 9.76168 4.46007 10.0433 4.08007 10.57C3.6084 11.225 3.6084 12.0967 3.6084 13.8333Z" fill="#00A76F"/>
<path fill-rule="evenodd" clip-rule="evenodd" d="M20.2751 3.56326C23.2484 3.56326 25.6967 3.82492 27.5701 4.14159C29.4684 4.46159 30.4167 4.62159 31.2101 5.59826C32.0034 6.57492 31.9601 7.62992 31.8767 9.73993C31.5901 16.9883 30.0267 26.0399 21.5251 26.8399V32.7299H23.9084C24.2935 32.7302 24.6667 32.8638 24.9645 33.1081C25.2623 33.3524 25.4662 33.6922 25.5417 34.0699L25.8584 35.6466H30.2751C30.6066 35.6466 30.9245 35.7783 31.1589 36.0127C31.3934 36.2471 31.5251 36.5651 31.5251 36.8966C31.5251 37.2281 31.3934 37.5461 31.1589 37.7805C30.9245 38.0149 30.6066 38.1466 30.2751 38.1466H10.2751C9.94354 38.1466 9.6256 38.0149 9.39118 37.7805C9.15676 37.5461 9.02506 37.2281 9.02506 36.8966C9.02506 36.5651 9.15676 36.2471 9.39118 36.0127C9.6256 35.7783 9.94354 35.6466 10.2751 35.6466H14.6917L15.0084 34.0699C15.0839 33.6922 15.2879 33.3524 15.5856 33.1081C15.8834 32.8638 16.2566 32.7302 16.6417 32.7299H19.0251V26.8399C10.5251 26.0399 8.96173 16.9866 8.67506 9.73993C8.59006 7.62992 8.54839 6.57326 9.34173 5.59826C10.1334 4.62159 11.0817 4.46159 12.9801 4.14159C15.3914 3.74639 17.8315 3.55294 20.2751 3.56326ZM21.8617 10.5616L21.6984 10.2683C21.0651 9.12992 20.7484 8.56326 20.2751 8.56326C19.8017 8.56326 19.4851 9.12992 18.8517 10.2683L18.6884 10.5616C18.5084 10.8849 18.4184 11.0449 18.2784 11.1516C18.1367 11.2583 17.9617 11.2983 17.6117 11.3766L17.2951 11.4499C16.0651 11.7283 15.4501 11.8666 15.3034 12.3366C15.1567 12.8083 15.5767 13.2983 16.4151 14.2783L16.6317 14.5316C16.8701 14.8099 16.9901 14.9483 17.0434 15.1216C17.0967 15.2949 17.0784 15.4799 17.0434 15.8516L17.0101 16.1899C16.8834 17.4983 16.8201 18.1533 17.2017 18.4433C17.5851 18.7333 18.1617 18.4683 19.3134 17.9383L19.6101 17.8016C19.9384 17.6516 20.1017 17.5766 20.2751 17.5766C20.4484 17.5766 20.6117 17.6516 20.9401 17.8016L21.2367 17.9383C22.3884 18.4699 22.9651 18.7333 23.3484 18.4433C23.7317 18.1533 23.6667 17.4983 23.5401 16.1899L23.5067 15.8516C23.4717 15.4799 23.4534 15.2949 23.5067 15.1216C23.5601 14.9499 23.6801 14.8099 23.9184 14.5316L24.1351 14.2783C24.9734 13.2983 25.3934 12.8083 25.2467 12.3366C25.1001 11.8666 24.4851 11.7283 23.2551 11.4499L22.9384 11.3766C22.5884 11.2983 22.4134 11.2599 22.2717 11.1516C22.1317 11.0449 22.0417 10.8849 21.8617 10.5616Z" fill="#00A76F"/>
</svg>
