<svg width="25" height="25" viewBox="0 0 25 25" fill="none" xmlns="http://www.w3.org/2000/svg">
<g clip-path="url(#clip0_419_2454)">
<g clip-path="url(#clip1_419_2454)">
<g clip-path="url(#clip2_419_2454)">
<path d="M3.54651 4.52282C8.90181 -1.70989 18.8315 -0.479581 22.5436 6.80086C19.9306 6.80181 15.8387 6.80007 13.6224 6.80086C12.0151 6.80141 10.9772 6.76488 9.85338 7.35653C8.53211 8.05203 7.53517 9.34126 7.18717 10.8555L3.54651 4.52282Z" fill="#EA4335"/>
<path d="M8.45239 12.0289C8.45239 14.1412 10.1699 15.8597 12.2812 15.8597C14.3923 15.8597 16.1098 14.1412 16.1098 12.0289C16.1098 9.91655 14.3923 8.198 12.2812 8.198C10.1699 8.198 8.45239 9.91655 8.45239 12.0289Z" fill="#4285F4"/>
<path d="M13.7669 17.0432C11.618 17.6819 9.10314 16.9736 7.7256 14.5958C6.6741 12.7808 3.89587 7.94087 2.63308 5.74011C-1.7896 12.5187 2.02213 21.7562 10.0512 23.3329L13.7669 17.0432Z" fill="#34A853"/>
<path d="M15.8374 8.198C17.6272 9.86272 18.0172 12.5583 16.8048 14.6485C15.8913 16.2232 12.976 21.1437 11.563 23.5264C19.8355 24.0364 25.8659 15.9287 23.142 8.198H15.8374Z" fill="#FBBC05"/>
</g>
</g>
</g>
<defs>
<clipPath id="clip0_419_2454">
<rect width="24" height="24" fill="white" transform="translate(0.284912 0.5)"/>
</clipPath>
<clipPath id="clip1_419_2454">
<rect width="24" height="24" fill="white" transform="translate(0.284912 0.5)"/>
</clipPath>
<clipPath id="clip2_419_2454">
<rect width="23.04" height="24" fill="white" transform="translate(0.764893 0.5)"/>
</clipPath>
</defs>
</svg>
