<svg width="25" height="25" viewBox="0 0 25 25" fill="none" xmlns="http://www.w3.org/2000/svg">
<g clip-path="url(#clip0_419_2558)">
<g clip-path="url(#clip1_419_2558)">
<g clip-path="url(#clip2_419_2558)">
<path fill-rule="evenodd" clip-rule="evenodd" d="M0.765037 4.96965L7.5424 0.509399L12.285 4.49936L5.45152 8.75209L0.765037 4.96965ZM19.1183 8.75204L12.285 4.49936L17.0276 0.509472L23.8049 4.96973L19.1183 8.75204ZM19.1183 8.75204L23.8047 12.5352L17.0274 16.9954L12.2848 13.0055L7.54225 16.9953L0.764893 12.5351L5.45152 8.75209L12.2848 13.0055L19.1183 8.75204ZM12.2988 13.8638L7.54246 17.8422L5.50702 16.5026V18.004L12.2988 22.1094L19.0905 18.004V16.5026L17.0551 17.8422L12.2988 13.8638Z" fill="#0F82E2"/>
</g>
</g>
</g>
<defs>
<clipPath id="clip0_419_2558">
<rect width="24" height="24" fill="white" transform="translate(0.284912 0.5)"/>
</clipPath>
<clipPath id="clip1_419_2558">
<rect width="24" height="24" fill="white" transform="translate(0.284912 0.5)"/>
</clipPath>
<clipPath id="clip2_419_2558">
<rect width="23.04" height="24" fill="white" transform="translate(0.764893 0.5)"/>
</clipPath>
</defs>
</svg>
