<svg width="25" height="25" viewBox="0 0 25 25" fill="none" xmlns="http://www.w3.org/2000/svg">
<g clip-path="url(#clip0_419_2606)">
<g clip-path="url(#clip1_419_2606)">
<g clip-path="url(#clip2_419_2606)">
<path fill-rule="evenodd" clip-rule="evenodd" d="M21.3616 4.51782C21.1902 3.59839 20.6459 3.14551 20.1532 2.96767C19.6225 2.77472 18.5454 2.57528 17.1921 2.41472C16.1035 2.28656 14.8241 2.29664 14.051 2.3204C13.9585 1.68249 13.5132 1.10001 13.0141 0.898406C11.6859 0.361291 9.63268 0.49089 9.10629 0.639211C8.68748 0.756566 8.22348 0.997766 7.96531 1.36856C7.79248 1.61625 7.6806 1.93448 7.67988 2.378C7.67988 2.58598 7.6848 3.02679 7.68974 3.47057L7.6928 3.74599C7.69815 4.18367 7.70401 4.58313 7.70584 4.70804L7.70642 4.74822C7.70642 5.21693 7.32706 5.59925 6.85732 5.59997H4.70373C4.24404 5.59997 3.89264 5.67773 3.62514 5.79941C3.35622 5.92253 3.16618 6.0874 3.02131 6.28252C2.73373 6.6706 2.68354 7.14867 2.68497 7.63683C2.68497 7.63683 2.68927 8.03643 2.78536 8.80826C2.86497 9.40585 3.5104 13.5811 4.12356 14.8505C4.36093 15.3443 4.51943 15.5502 4.98629 15.7677C6.02687 16.2155 8.4042 16.7131 9.51793 16.8556C9.70239 16.8793 9.87546 16.9073 10.0377 16.9335C10.854 17.0654 11.397 17.1532 11.744 16.4229C11.7454 16.4208 11.8271 16.2048 11.9397 15.8886C12.3012 14.79 12.3514 13.8151 12.3514 13.1102C12.3514 13.0382 12.4561 13.0353 12.4561 13.1102C12.4561 13.1378 12.4558 13.1694 12.4554 13.2045C12.45 13.7998 12.4352 15.3965 13.6874 15.8433C14.2109 16.0298 15.2966 16.1954 16.3997 16.3257C17.3972 16.4409 18.1215 16.8347 18.1215 19.4044C18.1215 20.9675 17.7945 21.1821 16.0848 21.1821L15.9577 21.1822C14.6661 21.1832 14.1701 21.1836 14.1701 20.1128C14.1701 19.2954 14.9072 19.3042 15.5318 19.3116C15.5899 19.3123 15.6471 19.313 15.7026 19.313C15.8864 19.313 15.8705 19.2267 15.8337 19.0252C15.812 18.9068 15.7829 18.7483 15.7829 18.544C15.7829 18.3114 15.8443 18.1203 15.8904 17.9769C15.953 17.7822 15.9875 17.6752 15.8016 17.6707C13.5454 17.608 12.218 17.6678 12.218 20.5002C12.218 23.072 13.1983 23.5494 16.3997 23.5494C18.9104 23.5494 19.7953 23.4666 20.8316 20.2381C21.0367 19.6003 21.533 17.6555 21.8328 14.3889C22.0228 12.324 21.6542 6.091 21.3616 4.51782ZM16.9856 11.4074C16.6758 11.3966 16.3774 11.4161 16.0992 11.4607C16.1774 10.8264 16.4384 10.0474 17.3628 10.0798C18.3861 10.1158 18.5295 11.0863 18.5332 11.7444C18.1015 11.5507 17.5671 11.4283 16.9856 11.4074ZM4.60404 4.97213H4.60261C4.07337 4.97213 3.6316 5.06213 3.26729 5.22773C3.2508 5.23493 3.13247 5.29325 3.0457 5.33645C3.04785 5.32781 3.05358 5.31845 3.06147 5.31197L7.24601 1.14537C7.25462 1.13745 7.2625 1.13313 7.27112 1.13241L7.19724 1.27064C7.04306 1.58025 6.95485 1.94888 6.95485 2.37224V2.37872C6.95485 2.87565 6.97884 4.6157 6.98057 4.74107L6.98067 4.74822C6.98067 4.87062 6.88098 4.97213 6.75764 4.97213H4.60404Z" fill="#20C05C"/>
</g>
</g>
</g>
<defs>
<clipPath id="clip0_419_2606">
<rect width="24" height="24" fill="white" transform="translate(0.284912 0.5)"/>
</clipPath>
<clipPath id="clip1_419_2606">
<rect width="24" height="24" fill="white" transform="translate(0.284912 0.5)"/>
</clipPath>
<clipPath id="clip2_419_2606">
<rect width="23.04" height="24" fill="white" transform="translate(0.764893 0.5)"/>
</clipPath>
</defs>
</svg>
