<svg width="25" height="25" viewBox="0 0 25 25" fill="none" xmlns="http://www.w3.org/2000/svg">
<g clip-path="url(#clip0_419_2654)">
<g clip-path="url(#clip1_419_2654)">
<g clip-path="url(#clip2_419_2654)">
<path d="M12.2842 0.98938C5.92297 0.98938 0.764893 6.16718 0.764893 12.5558C0.764893 17.6649 4.06537 21.9999 8.64385 23.5294C9.21985 23.6357 9.43009 23.2786 9.43009 22.9721C9.43009 22.6974 9.42001 21.9702 9.41425 21.0052C6.20953 21.7042 5.53345 19.4547 5.53345 19.4547C5.01001 18.1189 4.25473 17.7632 4.25473 17.7632C3.20857 17.0454 4.33393 17.0599 4.33393 17.0599C5.48953 17.1415 6.09793 18.2518 6.09793 18.2518C7.12609 20.0192 8.79433 19.5089 9.45097 19.2125C9.55537 18.4651 9.85345 17.9555 10.1825 17.6663C7.62433 17.3743 4.93513 16.3825 4.93513 11.9507C4.93513 10.6879 5.38369 9.65568 6.12097 8.8468C6.00217 8.55405 5.60689 7.37868 6.23329 5.78624C6.23329 5.78624 7.20097 5.47542 9.40129 6.97172C10.3207 6.71511 11.3057 6.58716 12.2856 6.5821C13.2641 6.58716 14.2498 6.71511 15.1699 6.97172C17.3688 5.47542 18.3343 5.78624 18.3343 5.78624C18.9629 7.37868 18.5676 8.55405 18.4488 8.8468C19.1876 9.65568 19.6332 10.6879 19.6332 11.9507C19.6332 16.3934 16.9396 17.3714 14.3736 17.6577C14.7868 18.0147 15.1555 18.7202 15.1555 19.7995C15.1555 21.3456 15.1412 22.5926 15.1412 22.9721C15.1412 23.2815 15.3484 23.6415 15.9332 23.528C20.5073 21.9956 23.8049 17.6635 23.8049 12.5558C23.8049 6.16718 18.6468 0.98938 12.2842 0.98938Z" fill="#3E75C3"/>
</g>
</g>
</g>
<defs>
<clipPath id="clip0_419_2654">
<rect width="24" height="24" fill="white" transform="translate(0.284912 0.5)"/>
</clipPath>
<clipPath id="clip1_419_2654">
<rect width="24" height="24" fill="white" transform="translate(0.284912 0.5)"/>
</clipPath>
<clipPath id="clip2_419_2654">
<rect width="23.04" height="24" fill="white" transform="translate(0.764893 0.5)"/>
</clipPath>
</defs>
</svg>
