<svg width="113" height="113" viewBox="0 0 113 113" fill="none" xmlns="http://www.w3.org/2000/svg">
<g opacity="0.08">
<path d="M103.052 40.9006V78.8966C103.052 82.7706 101.57 86.4978 98.9091 89.3137C96.2486 92.1296 92.6114 93.8206 88.7436 94.0399L87.8849 94.0633H24.8849C21.011 94.0635 17.2837 92.5813 14.4679 89.9208C11.652 87.2603 9.96092 83.623 9.7416 79.7553L9.71826 78.8966V40.9006L54.7609 64.4953C55.262 64.7577 55.8193 64.8948 56.3849 64.8948C56.9506 64.8948 57.5078 64.7577 58.0089 64.4953L103.052 40.9006ZM24.8849 19.3966H87.8849C91.6443 19.3962 95.2699 20.7919 98.0584 23.3132C100.847 25.8345 102.6 29.3015 102.977 33.0419L56.3849 57.4486L9.79293 33.0419C10.1547 29.4501 11.7858 26.105 14.3931 23.6081C17.0004 21.1112 20.4128 19.6261 24.0169 19.4199L24.8849 19.3966Z" fill="white"/>
</g>
</svg>
