<svg width="21" height="21" viewBox="0 0 21 21" fill="none" xmlns="http://www.w3.org/2000/svg">
<path d="M10.125 11.8953C11.0455 11.8953 11.7917 11.1492 11.7917 10.2287C11.7917 9.3082 11.0455 8.56201 10.125 8.56201C9.20457 8.56201 8.45837 9.3082 8.45837 10.2287C8.45837 11.1492 9.20457 11.8953 10.125 11.8953Z" fill="#637381"/>
<path d="M10.125 6.06197C11.0455 6.06197 11.7917 5.31578 11.7917 4.3953C11.7917 3.47483 11.0455 2.72864 10.125 2.72864C9.20457 2.72864 8.45837 3.47483 8.45837 4.3953C8.45837 5.31578 9.20457 6.06197 10.125 6.06197Z" fill="#637381"/>
<path d="M10.125 17.7286C11.0455 17.7286 11.7917 16.9824 11.7917 16.0619C11.7917 15.1415 11.0455 14.3953 10.125 14.3953C9.20457 14.3953 8.45837 15.1415 8.45837 16.0619C8.45837 16.9824 9.20457 17.7286 10.125 17.7286Z" fill="#637381"/>
</svg>
