<svg width="21" height="21" viewBox="0 0 21 21" fill="none" xmlns="http://www.w3.org/2000/svg">
<path d="M12.0616 16.3333C12.2563 16.3337 12.445 16.2659 12.5949 16.1417C12.6793 16.0717 12.749 15.9858 12.8002 15.8888C12.8513 15.7919 12.8828 15.6858 12.8928 15.5766C12.9029 15.4675 12.8913 15.3574 12.8588 15.2528C12.8263 15.1481 12.7734 15.0509 12.7032 14.9667L8.9699 10.5L12.5699 6.025C12.6391 5.93976 12.6908 5.84168 12.722 5.7364C12.7532 5.63112 12.7633 5.52071 12.7517 5.41152C12.74 5.30233 12.707 5.19651 12.6543 5.10014C12.6017 5.00378 12.5305 4.91877 12.4449 4.85C12.3587 4.77414 12.2577 4.71691 12.1483 4.68192C12.0389 4.64693 11.9235 4.63493 11.8093 4.64667C11.695 4.6584 11.5844 4.69363 11.4844 4.75013C11.3845 4.80663 11.2972 4.88319 11.2282 4.975L7.20323 9.975C7.08066 10.1241 7.01366 10.3111 7.01366 10.5042C7.01366 10.6972 7.08066 10.8842 7.20323 11.0333L11.3699 16.0333C11.4535 16.1342 11.5597 16.2139 11.6799 16.266C11.8 16.3182 11.9308 16.3412 12.0616 16.3333Z" fill="white"/>
</svg>
