<svg width="19" height="19" viewBox="0 0 19 19" fill="none" xmlns="http://www.w3.org/2000/svg">
<path d="M8.195 14.4799C8.01976 14.4803 7.84993 14.4192 7.715 14.3074C7.63906 14.2445 7.57628 14.1671 7.53027 14.0799C7.48425 13.9926 7.4559 13.8971 7.44685 13.7989C7.43779 13.7007 7.4482 13.6016 7.47749 13.5074C7.50677 13.4132 7.55435 13.3257 7.6175 13.2499L10.9775 9.22994L7.7375 5.20244C7.6752 5.12572 7.62868 5.03745 7.6006 4.94269C7.57253 4.84794 7.56346 4.74857 7.57391 4.6503C7.58437 4.55203 7.61414 4.45679 7.66152 4.37006C7.7089 4.28334 7.77295 4.20683 7.85 4.14494C7.9276 4.07666 8.01847 4.02516 8.11692 3.99367C8.21537 3.96217 8.31926 3.95137 8.42208 3.96194C8.5249 3.9725 8.62443 4.0042 8.71441 4.05505C8.8044 4.1059 8.8829 4.17481 8.945 4.25744L12.5675 8.75744C12.6778 8.89164 12.7381 9.05997 12.7381 9.23369C12.7381 9.4074 12.6778 9.57574 12.5675 9.70994L8.8175 14.2099C8.74226 14.3007 8.64669 14.3724 8.53853 14.4194C8.43037 14.4663 8.31268 14.487 8.195 14.4799Z" fill="#212B36"/>
</svg>
