<svg width="15" height="15" viewBox="0 0 15 15" fill="none" xmlns="http://www.w3.org/2000/svg">
<path d="M7.90558 4.39963L8.34016 4.22113C8.69308 4.08113 9.14924 3.93821 9.68766 4.02863C10.7907 4.21413 11.5514 4.80971 12.0047 5.59955C12.1797 5.90405 12.0385 6.30538 11.7118 6.43313C11.432 6.54261 11.1928 6.73583 11.0269 6.98639C10.861 7.23695 10.7765 7.53262 10.785 7.833C10.7935 8.13339 10.8945 8.42382 11.0743 8.66461C11.2541 8.9054 11.5038 9.0848 11.7894 9.1783C12.0916 9.27746 12.2619 9.61288 12.1627 9.91505C11.9049 10.6979 11.5339 11.4206 11.0947 12.004C10.6607 12.5803 10.131 13.0586 9.54124 13.2925C9.15624 13.4442 8.74324 13.3876 8.34833 13.2896L8.11383 13.2272L7.76558 13.1263C7.60749 13.0802 7.44474 13.0405 7.28491 13.0405C7.12449 13.0405 6.96233 13.0802 6.80424 13.1263L6.45599 13.2272L6.22149 13.2896C5.82658 13.3876 5.41299 13.4448 5.02858 13.2925C4.28599 12.9985 3.63091 12.3125 3.13566 11.5035C2.5995 10.6125 2.24576 9.62384 2.09499 8.59496C1.96258 7.68846 2.03433 6.67055 2.45374 5.80955C2.88541 4.9223 3.67641 4.23163 4.88216 4.02863C5.37216 3.94638 5.79333 4.05663 6.13049 4.18321L6.32358 4.25905L6.66424 4.39963C6.89758 4.49121 7.08133 4.54488 7.28491 4.54488C7.48791 4.54488 7.67224 4.49121 7.90558 4.39963ZM7.14958 2.11471C7.71891 1.5448 8.59333 1.4958 8.79924 1.7023C9.00574 1.90821 8.95674 2.78263 8.38683 3.35196C7.81749 3.9213 6.94308 3.9703 6.73716 3.76438C6.53066 3.55847 6.57966 2.68405 7.14958 2.11471Z" fill="#637381"/>
</svg>
