<svg width="21" height="21" viewBox="0 0 21 21" fill="none" xmlns="http://www.w3.org/2000/svg">
<path d="M8.72823 16.3333C8.53352 16.3337 8.34483 16.2659 8.1949 16.1417C8.11052 16.0717 8.04077 15.9858 7.98964 15.8888C7.93851 15.7919 7.90702 15.6858 7.89695 15.5766C7.88689 15.4675 7.89846 15.3574 7.93099 15.2528C7.96353 15.1481 8.0164 15.0509 8.08657 14.9667L11.8199 10.5L8.2199 6.025C8.15068 5.93976 8.09898 5.84168 8.06779 5.7364C8.0366 5.63112 8.02652 5.52071 8.03814 5.41152C8.04975 5.30233 8.08283 5.19651 8.13548 5.10014C8.18812 5.00378 8.25929 4.91877 8.3449 4.85C8.43112 4.77414 8.53209 4.71691 8.64148 4.68192C8.75086 4.64693 8.8663 4.63493 8.98054 4.64667C9.09479 4.6584 9.20537 4.69363 9.30536 4.75013C9.40534 4.80663 9.49257 4.88319 9.56157 4.975L13.5866 9.975C13.7091 10.1241 13.7761 10.3111 13.7761 10.5042C13.7761 10.6972 13.7091 10.8842 13.5866 11.0333L9.4199 16.0333C9.3363 16.1342 9.23011 16.2139 9.10993 16.266C8.98976 16.3182 8.85899 16.3412 8.72823 16.3333Z" fill="white"/>
</svg>
