<svg width="17" height="17" viewBox="0 0 17 17" fill="none" xmlns="http://www.w3.org/2000/svg">
<path d="M8.80498 11.1666C8.64922 11.167 8.49826 11.1127 8.37832 11.0133L4.37832 7.67998C4.24217 7.56682 4.15656 7.40421 4.1403 7.22793C4.12405 7.05165 4.17849 6.87612 4.29165 6.73998C4.40481 6.60384 4.56742 6.51822 4.7437 6.50197C4.91998 6.48571 5.09551 6.54015 5.23165 6.65331L8.80498 9.63998L12.3783 6.75998C12.4465 6.7046 12.525 6.66325 12.6092 6.63829C12.6934 6.61334 12.7818 6.60528 12.8691 6.61457C12.9565 6.62386 13.0411 6.65033 13.1182 6.69244C13.1953 6.73456 13.2633 6.7915 13.3183 6.85998C13.3794 6.92853 13.4256 7.00895 13.4541 7.09619C13.4827 7.18344 13.4929 7.27564 13.4841 7.36702C13.4753 7.4584 13.4478 7.54698 13.4032 7.62721C13.3586 7.70745 13.2979 7.77762 13.225 7.83331L9.22498 11.0533C9.10159 11.137 8.95372 11.1769 8.80498 11.1666Z" fill="#212B36"/>
</svg>
