<svg width="101" height="21" viewBox="0 0 101 21" fill="none" xmlns="http://www.w3.org/2000/svg">
<path d="M15.3283 18C15.1951 18.0005 15.0636 17.9691 14.945 17.9083L10.695 15.6833L6.44501 17.9083C6.16346 18.0564 5.82218 18.0312 5.56537 17.8435C5.30857 17.6557 5.18104 17.3382 5.23668 17.025L6.07001 12.3333L2.63668 8.99997C2.41839 8.78213 2.33825 8.46156 2.42835 8.16663C2.52688 7.86448 2.7887 7.64469 3.10335 7.59997L7.85335 6.9083L9.94501 2.6333C10.0843 2.34581 10.3756 2.16321 10.695 2.16321C11.0144 2.16321 11.3058 2.34581 11.445 2.6333L13.5617 6.89997L18.3117 7.59163C18.6263 7.63636 18.8881 7.85615 18.9867 8.1583C19.0768 8.45323 18.9966 8.7738 18.7783 8.99163L15.345 12.325L16.1783 17.0166C16.2391 17.3356 16.109 17.6609 15.845 17.85C15.6941 17.9557 15.5124 18.0085 15.3283 18Z" fill="#FAAF00"/>
<path d="M35.3283 18C35.1951 18.0005 35.0636 17.9691 34.945 17.9083L30.695 15.6833L26.445 17.9083C26.1635 18.0564 25.8222 18.0312 25.5654 17.8435C25.3086 17.6557 25.181 17.3382 25.2367 17.025L26.07 12.3333L22.6367 8.99997C22.4184 8.78213 22.3383 8.46156 22.4283 8.16663C22.5269 7.86448 22.7887 7.64469 23.1033 7.59997L27.8533 6.9083L29.945 2.6333C30.0843 2.34581 30.3756 2.16321 30.695 2.16321C31.0144 2.16321 31.3058 2.34581 31.445 2.6333L33.5617 6.89997L38.3117 7.59163C38.6263 7.63636 38.8881 7.85615 38.9867 8.1583C39.0768 8.45323 38.9966 8.7738 38.7783 8.99163L35.345 12.325L36.1783 17.0166C36.2391 17.3356 36.109 17.6609 35.845 17.85C35.6941 17.9557 35.5124 18.0085 35.3283 18Z" fill="#FAAF00"/>
<path d="M55.3283 18C55.1951 18.0005 55.0636 17.9691 54.945 17.9083L50.695 15.6833L46.445 17.9083C46.1635 18.0564 45.8222 18.0312 45.5654 17.8435C45.3086 17.6557 45.181 17.3382 45.2367 17.025L46.07 12.3333L42.6367 8.99997C42.4184 8.78213 42.3383 8.46156 42.4283 8.16663C42.5269 7.86448 42.7887 7.64469 43.1033 7.59997L47.8533 6.9083L49.945 2.6333C50.0843 2.34581 50.3756 2.16321 50.695 2.16321C51.0144 2.16321 51.3058 2.34581 51.445 2.6333L53.5617 6.89997L58.3117 7.59163C58.6263 7.63636 58.8881 7.85615 58.9867 8.1583C59.0768 8.45323 58.9966 8.7738 58.7783 8.99163L55.345 12.325L56.1783 17.0166C56.2391 17.3356 56.109 17.6609 55.845 17.85C55.6941 17.9557 55.5124 18.0085 55.3283 18Z" fill="#FAAF00"/>
<path d="M75.3283 18C75.1951 18.0005 75.0636 17.9691 74.945 17.9083L70.695 15.6833L66.445 17.9083C66.1635 18.0564 65.8222 18.0312 65.5654 17.8435C65.3086 17.6557 65.181 17.3382 65.2367 17.025L66.07 12.3333L62.6367 8.99997C62.4184 8.78213 62.3383 8.46156 62.4283 8.16663C62.5269 7.86448 62.7887 7.64469 63.1033 7.59997L67.8533 6.9083L69.945 2.6333C70.0843 2.34581 70.3756 2.16321 70.695 2.16321C71.0144 2.16321 71.3058 2.34581 71.445 2.6333L73.5617 6.89997L78.3117 7.59163C78.6263 7.63636 78.8881 7.85615 78.9867 8.1583C79.0768 8.45323 78.9966 8.7738 78.7783 8.99163L75.345 12.325L76.1783 17.0166C76.2391 17.3356 76.109 17.6609 75.845 17.85C75.6941 17.9557 75.5124 18.0085 75.3283 18Z" fill="#FAAF00"/>
<path d="M95.3283 18C95.1951 18.0005 95.0636 17.9691 94.945 17.9083L90.695 15.6833L86.445 17.9083C86.1635 18.0564 85.8222 18.0312 85.5654 17.8435C85.3086 17.6557 85.181 17.3382 85.2367 17.025L86.07 12.3333L82.6367 8.99997C82.4184 8.78213 82.3383 8.46156 82.4283 8.16663C82.5269 7.86448 82.7887 7.64469 83.1033 7.59997L87.8533 6.9083L89.945 2.6333C90.0843 2.34581 90.3756 2.16321 90.695 2.16321C91.0144 2.16321 91.3058 2.34581 91.445 2.6333L93.5617 6.89997L98.3117 7.59163C98.6263 7.63636 98.8881 7.85615 98.9867 8.1583C99.0768 8.45323 98.9966 8.7738 98.7783 8.99163L95.345 12.325L96.1783 17.0166C96.2391 17.3356 96.109 17.6609 95.845 17.85C95.6941 17.9557 95.5124 18.0085 95.3283 18Z" fill="#919EAB" fill-opacity="0.48"/>
<g clip-path="url(#clip0_419_940)">
<path d="M95.3283 18C95.1951 18.0005 95.0636 17.9691 94.945 17.9083L90.695 15.6833L86.445 17.9083C86.1635 18.0564 85.8222 18.0312 85.5654 17.8435C85.3086 17.6557 85.181 17.3382 85.2367 17.025L86.07 12.3333L82.6367 8.99997C82.4184 8.78213 82.3383 8.46156 82.4283 8.16663C82.5269 7.86448 82.7887 7.64469 83.1033 7.59997L87.8533 6.9083L89.945 2.6333C90.0843 2.34581 90.3756 2.16321 90.695 2.16321C91.0144 2.16321 91.3058 2.34581 91.445 2.6333L93.5617 6.89997L98.3117 7.59163C98.6263 7.63636 98.8881 7.85615 98.9867 8.1583C99.0768 8.45323 98.9966 8.7738 98.7783 8.99163L95.345 12.325L96.1783 17.0166C96.2391 17.3356 96.109 17.6609 95.845 17.85C95.6941 17.9557 95.5124 18.0085 95.3283 18Z" fill="#FAAF00"/>
</g>
<defs>
<clipPath id="clip0_419_940">
<rect width="10" height="20" fill="white" transform="translate(80.695 0.5)"/>
</clipPath>
</defs>
</svg>
