<svg width="19" height="19" viewBox="0 0 19 19" fill="none" xmlns="http://www.w3.org/2000/svg">
<path d="M7.78489 14.4799C7.60965 14.4803 7.43982 14.4192 7.30489 14.3074C7.22895 14.2445 7.16617 14.1671 7.12016 14.0799C7.07414 13.9926 7.04579 13.8971 7.03674 13.7989C7.02768 13.7007 7.03809 13.6016 7.06737 13.5074C7.09666 13.4132 7.14424 13.3257 7.20739 13.2499L10.5674 9.22994L7.32739 5.20244C7.26509 5.12572 7.21857 5.03745 7.19049 4.94269C7.16242 4.84794 7.15335 4.74857 7.1638 4.6503C7.17426 4.55203 7.20403 4.45679 7.25141 4.37006C7.29879 4.28334 7.36284 4.20683 7.43989 4.14494C7.51749 4.07666 7.60836 4.02516 7.70681 3.99367C7.80526 3.96217 7.90915 3.95137 8.01197 3.96194C8.11479 3.9725 8.21432 4.0042 8.3043 4.05505C8.39429 4.1059 8.47279 4.17481 8.53489 4.25744L12.1574 8.75744C12.2677 8.89164 12.328 9.05997 12.328 9.23369C12.328 9.4074 12.2677 9.57574 12.1574 9.70994L8.40739 14.2099C8.33215 14.3007 8.23658 14.3724 8.12842 14.4194C8.02026 14.4663 7.90257 14.487 7.78489 14.4799Z" fill="#212B36"/>
</svg>
