<svg width="41" height="41" viewBox="0 0 41 41" fill="none" xmlns="http://www.w3.org/2000/svg">
<g clip-path="url(#clip0_419_1187)">
<rect x="0.684998" y="0.22998" width="40" height="40" rx="20" fill="#FF5630" fill-opacity="0.08"/>
<path d="M37.3517 13.8333V13.955C37.3517 15.3883 37.3517 16.1067 37.0067 16.6933C36.6617 17.28 36.0333 17.6283 34.78 18.3267L33.4583 19.06C34.3683 15.98 34.6733 12.67 34.785 9.84001L34.8017 9.47168L34.805 9.38501C35.89 9.76168 36.5 10.0433 36.88 10.57C37.3517 11.225 37.3517 12.095 37.3517 13.8333ZM4.01833 13.8333V13.955C4.01833 15.3883 4.01833 16.1067 4.36333 16.6933C4.70833 17.28 5.33666 17.6283 6.59 18.3267L7.91333 19.06C7.00166 15.98 6.69666 12.67 6.585 9.84001L6.56833 9.47168L6.56666 9.38501C5.48 9.76168 4.87 10.0433 4.49 10.57C4.01833 11.225 4.01833 12.0967 4.01833 13.8333Z" fill="#FF5630"/>
<path fill-rule="evenodd" clip-rule="evenodd" d="M20.685 3.56326C23.6583 3.56326 26.1067 3.82492 27.98 4.14159C29.8783 4.46159 30.8267 4.62159 31.62 5.59826C32.4133 6.57492 32.37 7.62992 32.2867 9.73993C32 16.9883 30.4367 26.0399 21.935 26.8399V32.7299H24.3183C24.7035 32.7302 25.0767 32.8638 25.3744 33.1081C25.6722 33.3524 25.8762 33.6922 25.9517 34.0699L26.2683 35.6466H30.685C31.0165 35.6466 31.3345 35.7783 31.5689 36.0127C31.8033 36.2471 31.935 36.5651 31.935 36.8966C31.935 37.2281 31.8033 37.5461 31.5689 37.7805C31.3345 38.0149 31.0165 38.1466 30.685 38.1466H10.685C10.3535 38.1466 10.0355 38.0149 9.80112 37.7805C9.56669 37.5461 9.435 37.2281 9.435 36.8966C9.435 36.5651 9.56669 36.2471 9.80112 36.0127C10.0355 35.7783 10.3535 35.6466 10.685 35.6466H15.1017L15.4183 34.0699C15.4938 33.6922 15.6978 33.3524 15.9956 33.1081C16.2933 32.8638 16.6665 32.7302 17.0517 32.7299H19.435V26.8399C10.935 26.0399 9.37167 16.9866 9.085 9.73993C9 7.62992 8.95833 6.57326 9.75167 5.59826C10.5433 4.62159 11.4917 4.46159 13.39 4.14159C15.8014 3.74639 18.2415 3.55294 20.685 3.56326ZM22.2717 10.5616L22.1083 10.2683C21.475 9.12992 21.1583 8.56326 20.685 8.56326C20.2117 8.56326 19.895 9.12992 19.2617 10.2683L19.0983 10.5616C18.9183 10.8849 18.8283 11.0449 18.6883 11.1516C18.5467 11.2583 18.3717 11.2983 18.0217 11.3766L17.705 11.4499C16.475 11.7283 15.86 11.8666 15.7133 12.3366C15.5667 12.8083 15.9867 13.2983 16.825 14.2783L17.0417 14.5316C17.28 14.8099 17.4 14.9483 17.4533 15.1216C17.5067 15.2949 17.4883 15.4799 17.4533 15.8516L17.42 16.1899C17.2933 17.4983 17.23 18.1533 17.6117 18.4433C17.995 18.7333 18.5717 18.4683 19.7233 17.9383L20.02 17.8016C20.3483 17.6516 20.5117 17.5766 20.685 17.5766C20.8583 17.5766 21.0217 17.6516 21.35 17.8016L21.6467 17.9383C22.7983 18.4699 23.375 18.7333 23.7583 18.4433C24.1417 18.1533 24.0767 17.4983 23.95 16.1899L23.9167 15.8516C23.8817 15.4799 23.8633 15.2949 23.9167 15.1216C23.97 14.9499 24.09 14.8099 24.3283 14.5316L24.545 14.2783C25.3833 13.2983 25.8033 12.8083 25.6567 12.3366C25.51 11.8666 24.895 11.7283 23.665 11.4499L23.3483 11.3766C22.9983 11.2983 22.8233 11.2599 22.6817 11.1516C22.5417 11.0449 22.4517 10.8849 22.2717 10.5616Z" fill="#FF5630"/>
</g>
<defs>
<clipPath id="clip0_419_1187">
<rect x="0.684998" y="0.22998" width="40" height="40" rx="20" fill="white"/>
</clipPath>
</defs>
</svg>
