<svg width="29" height="21" viewBox="0 0 29 21" fill="none" xmlns="http://www.w3.org/2000/svg">
<g clip-path="url(#clip0_419_1136)">
<path fill-rule="evenodd" clip-rule="evenodd" d="M1.1217 0.22998H27.7884V20.23H1.1217V0.22998Z" fill="#F7FCFF"/>
<path fill-rule="evenodd" clip-rule="evenodd" d="M1.1217 12.4525V14.1191H27.7884V12.4525H1.1217ZM1.1217 15.5075V17.1741H27.7884V15.5075H1.1217ZM1.1217 6.34081V8.00748H27.7884V6.34081H1.1217ZM1.1217 18.5633V20.23H27.7884V18.5633H1.1217ZM1.1217 9.39665V11.0633H27.7884V9.39665H1.1217ZM1.1217 0.22998V1.89665H27.7884V0.22998H1.1217ZM1.1217 3.28581V4.95248H27.7884V3.28581H1.1217Z" fill="#E31D1C"/>
<path d="M1.1217 0.22998H17.7884V11.0633H1.1217V0.22998Z" fill="#2E42A5"/>
<path fill-rule="evenodd" clip-rule="evenodd" d="M2.55668 2.67913L1.95168 3.1033L2.15585 2.3483L1.61835 1.86996H2.32085L2.55585 1.2533L2.83168 1.86996H3.43001L2.96001 2.3483L3.14168 3.1033L2.55668 2.67913ZM5.89001 2.67913L5.28501 3.1033L5.48918 2.3483L4.95251 1.86996H5.65418L5.88918 1.2533L6.16501 1.86996H6.76335L6.29335 2.3483L6.47501 3.1033L5.89001 2.67913ZM8.61835 3.1033L9.22335 2.6783L9.80835 3.1033L9.62668 2.3483L10.0967 1.86996H9.49835L9.22251 1.2533L8.98751 1.86996H8.28585L8.82251 2.3483L8.61835 3.1033ZM12.5567 2.6783L11.9517 3.1033L12.1558 2.3483L11.6192 1.86996H12.3208L12.5558 1.2533L12.8317 1.86996H13.43L12.96 2.3483L13.1417 3.1033L12.5567 2.6783ZM1.95168 6.43746L2.55668 6.01246L3.14168 6.43746L2.96001 5.68246L3.43001 5.20413H2.83168L2.55585 4.58746L2.32085 5.20413H1.61835L2.15585 5.68246L1.95168 6.43746ZM5.89001 6.01246L5.28501 6.43746L5.48918 5.68246L4.95251 5.20413H5.65418L5.88918 4.58746L6.16501 5.20413H6.76335L6.29335 5.68246L6.47501 6.43746L5.89001 6.01246ZM8.61835 6.43746L9.22335 6.01246L9.80835 6.43746L9.62668 5.68246L10.0967 5.20413H9.49835L9.22251 4.58746L8.98751 5.20413H8.28585L8.82251 5.68246L8.61835 6.43746ZM12.5567 6.01246L11.9517 6.43746L12.1558 5.68246L11.6192 5.20413H12.3208L12.5558 4.58746L12.8317 5.20413H13.43L12.96 5.68246L13.1417 6.43746L12.5567 6.01246ZM1.95168 9.7708L2.55668 9.3458L3.14168 9.7708L2.96001 9.0158L3.43001 8.53746H2.83168L2.55585 7.9208L2.32085 8.53746H1.61835L2.15585 9.0158L1.95168 9.7708ZM5.89001 9.3458L5.28501 9.7708L5.48918 9.0158L4.95251 8.53746H5.65418L5.88918 7.9208L6.16501 8.53746H6.76335L6.29335 9.0158L6.47501 9.7708L5.89001 9.3458ZM8.61835 9.7708L9.22335 9.3458L9.80835 9.7708L9.62668 9.0158L10.0967 8.53746H9.49835L9.22251 7.9208L8.98751 8.53746H8.28585L8.82251 9.0158L8.61835 9.7708ZM12.5567 9.3458L11.9517 9.7708L12.1558 9.0158L11.6192 8.53746H12.3208L12.5558 7.9208L12.8317 8.53746H13.43L12.96 9.0158L13.1417 9.7708L12.5567 9.3458ZM15.285 3.10413L15.89 2.67913L16.475 3.10413L16.2933 2.34913L16.7633 1.8708H16.165L15.8892 1.25413L15.6542 1.8708H14.9517L15.4892 2.34913L15.285 3.10413ZM15.89 6.01246L15.285 6.43746L15.4892 5.68246L14.9517 5.20413H15.6542L15.8892 4.58746L16.165 5.20413H16.7633L16.2933 5.68246L16.475 6.43746L15.89 6.01246ZM15.285 9.7708L15.89 9.3458L16.475 9.7708L16.2933 9.0158L16.7633 8.53746H16.165L15.8892 7.9208L15.6542 8.53746H14.9517L15.4892 9.0158L15.285 9.7708ZM4.22335 4.34496L3.61835 4.76996L3.82251 4.01496L3.28501 3.53663H3.98751L4.22251 2.91996L4.49835 3.53663H5.09668L4.62668 4.01496L4.80835 4.76996L4.22335 4.34496ZM6.95168 4.76996L7.55668 4.34496L8.14168 4.76996L7.96001 4.01496L8.43001 3.53663H7.83168L7.55585 2.91996L7.32085 3.53663H6.61835L7.15585 4.01496L6.95168 4.76996ZM10.89 4.34496L10.285 4.76996L10.4892 4.01496L9.95251 3.53663H10.6542L10.8892 2.91996L11.165 3.53663H11.7633L11.2933 4.01496L11.475 4.76996L10.89 4.34496ZM3.61835 8.1033L4.22335 7.67829L4.80835 8.1033L4.62668 7.3483L5.09668 6.86996H4.49835L4.22251 6.2533L3.98751 6.86996H3.28501L3.82251 7.3483L3.61835 8.1033ZM7.55668 7.67829L6.95168 8.1033L7.15585 7.3483L6.61918 6.86996H7.32085L7.55585 6.2533L7.83168 6.86996H8.43001L7.96001 7.3483L8.14168 8.1033L7.55668 7.67829ZM10.285 8.1033L10.89 7.67829L11.475 8.1033L11.2933 7.3483L11.7633 6.86996H11.165L10.8892 6.2533L10.6542 6.86996H9.95251L10.4892 7.3483L10.285 8.1033ZM14.2233 4.34496L13.6183 4.76996L13.8225 4.01496L13.2858 3.53663H13.9875L14.2225 2.91996L14.4983 3.53663H15.0967L14.6267 4.01496L14.8083 4.76996L14.2233 4.34496ZM13.6183 8.1033L14.2233 7.67829L14.8083 8.1033L14.6267 7.3483L15.0967 6.86996H14.4983L14.2225 6.2533L13.9875 6.86996H13.2858L13.8225 7.3483L13.6183 8.1033Z" fill="#F7FCFF"/>
</g>
<defs>
<clipPath id="clip0_419_1136">
<rect x="0.455017" y="0.22998" width="28" height="20" rx="5.2" fill="white"/>
</clipPath>
</defs>
</svg>
