<svg width="25" height="25" viewBox="0 0 25 25" fill="none" xmlns="http://www.w3.org/2000/svg">
<path opacity="0.4" d="M15.915 9.51514C17.5719 9.51514 18.915 8.17199 18.915 6.51514C18.915 4.85828 17.5719 3.51514 15.915 3.51514C14.2582 3.51514 12.915 4.85828 12.915 6.51514C12.915 8.17199 14.2582 9.51514 15.915 9.51514Z" fill="#637381"/>
<path opacity="0.4" d="M16.915 20.5151C19.6765 20.5151 21.915 19.172 21.915 17.5151C21.915 15.8583 19.6765 14.5151 16.915 14.5151C14.1536 14.5151 11.915 15.8583 11.915 17.5151C11.915 19.172 14.1536 20.5151 16.915 20.5151Z" fill="#637381"/>
<path d="M9.91602 10.5151C12.1252 10.5151 13.916 8.72428 13.916 6.51514C13.916 4.306 12.1252 2.51514 9.91602 2.51514C7.70688 2.51514 5.91602 4.306 5.91602 6.51514C5.91602 8.72428 7.70688 10.5151 9.91602 10.5151Z" fill="#637381"/>
<path d="M9.91602 21.5161C13.782 21.5161 16.916 19.7253 16.916 17.5161C16.916 15.307 13.782 13.5161 9.91602 13.5161C6.05002 13.5161 2.91602 15.307 2.91602 17.5161C2.91602 19.7253 6.05002 21.5161 9.91602 21.5161Z" fill="#637381"/>
</svg>
