<svg width="25" height="25" viewBox="0 0 25 25" fill="none" xmlns="http://www.w3.org/2000/svg">
<path opacity="0.5" d="M19.665 9.51514V10.2191C19.665 11.0641 19.905 11.8901 20.357 12.5931L21.465 14.3161C22.476 15.8901 21.704 18.0291 19.945 18.5261C15.3487 19.8281 10.4812 19.8281 5.88498 18.5261C4.12598 18.0291 3.35398 15.8901 4.36498 14.3161L5.47298 12.5931C5.92655 11.8845 6.16709 11.0605 6.16598 10.2191V9.51514C6.16598 5.64914 9.18798 2.51514 12.915 2.51514C16.642 2.51514 19.665 5.64914 19.665 9.51514Z" fill="#637381"/>
<path d="M13.6651 6.51514C13.6651 6.31622 13.5861 6.12546 13.4454 5.98481C13.3048 5.84415 13.114 5.76514 12.9151 5.76514C12.7162 5.76514 12.5254 5.84415 12.3848 5.98481C12.2441 6.12546 12.1651 6.31622 12.1651 6.51514V10.5151C12.1651 10.714 12.2441 10.9048 12.3848 11.0455C12.5254 11.1861 12.7162 11.2651 12.9151 11.2651C13.114 11.2651 13.3048 11.1861 13.4454 11.0455C13.5861 10.9048 13.6651 10.714 13.6651 10.5151V6.51514ZM8.15808 19.0601C8.48483 20.0643 9.12096 20.9392 9.97538 21.5597C10.8298 22.1802 11.8586 22.5143 12.9146 22.5143C13.9705 22.5143 14.9994 22.1802 15.8538 21.5597C16.7082 20.9392 17.3443 20.0643 17.6711 19.0601C14.5261 19.6501 11.3041 19.6501 8.15808 19.0601Z" fill="#637381"/>
</svg>
