<svg width="15" height="15" viewBox="0 0 15 15" fill="none" xmlns="http://www.w3.org/2000/svg">
<path d="M12.5349 8.08336V12.4199C12.5349 12.5374 12.5112 12.6537 12.4653 12.7618C12.4194 12.87 12.3521 12.9678 12.2676 13.0494C12.183 13.131 12.0829 13.1947 11.9732 13.2368C11.8635 13.2789 11.7464 13.2984 11.629 13.2943L11.5514 13.2879L7.28491 12.7547V8.08336H12.5349ZM6.11825 8.08336V12.6089L3.05691 12.2262C2.7747 12.1909 2.51509 12.0538 2.32688 11.8406C2.13868 11.6273 2.03485 11.3527 2.03491 11.0683V8.08336H6.11825ZM11.5514 1.71219C11.668 1.69763 11.7863 1.70669 11.8994 1.73885C12.0124 1.77101 12.1177 1.8256 12.2092 1.89936C12.3007 1.97313 12.3763 2.06456 12.4317 2.1682C12.487 2.27185 12.521 2.38558 12.5314 2.50261L12.5349 2.58019V6.91669H7.28491V2.24536L11.5514 1.71219ZM6.11825 2.39119V6.91669H2.03491V3.93178C2.03485 3.64737 2.13868 3.37273 2.32688 3.1595C2.51509 2.94627 2.7747 2.80913 3.05691 2.77386L6.11825 2.39119Z" fill="#637381"/>
</svg>
