<svg width="17" height="17" viewBox="0 0 17 17" fill="none" xmlns="http://www.w3.org/2000/svg">
<path opacity="0.5" d="M13.315 6.50004V6.96937C13.315 7.53271 13.475 8.08337 13.7763 8.55204L14.515 9.70071C15.189 10.75 14.6743 12.176 13.5017 12.5074C10.4375 13.3754 7.19248 13.3754 4.12832 12.5074C2.95565 12.176 2.44098 10.75 3.11498 9.70071L3.85365 8.55204C4.15603 8.07961 4.31639 7.53029 4.31565 6.96937V6.50004C4.31565 3.92271 6.33032 1.83337 8.81498 1.83337C11.2996 1.83337 13.315 3.92271 13.315 6.50004Z" fill="#006C9C"/>
<path d="M9.31501 4.5C9.31501 4.36739 9.26233 4.24021 9.16856 4.14645C9.0748 4.05268 8.94762 4 8.81501 4C8.6824 4 8.55523 4.05268 8.46146 4.14645C8.36769 4.24021 8.31501 4.36739 8.31501 4.5V7.16667C8.31501 7.29928 8.36769 7.42645 8.46146 7.52022C8.55523 7.61399 8.6824 7.66667 8.81501 7.66667C8.94762 7.66667 9.0748 7.61399 9.16856 7.52022C9.26233 7.42645 9.31501 7.29928 9.31501 7.16667V4.5ZM5.64368 12.8633C5.86151 13.5327 6.2856 14.116 6.85521 14.5297C7.42481 14.9433 8.11072 15.1661 8.81468 15.1661C9.51864 15.1661 10.2045 14.9433 10.7741 14.5297C11.3438 14.116 11.7678 13.5327 11.9857 12.8633C9.88901 13.2567 7.74101 13.2567 5.64368 12.8633Z" fill="#006C9C"/>
</svg>
