<svg width="7" height="17" viewBox="0 0 7 17" fill="none" xmlns="http://www.w3.org/2000/svg">
<path d="M3.22505 13.1667C3.16664 13.167 3.11003 13.1127 3.06505 13.0133C3.03973 12.9574 3.01881 12.8886 3.00347 12.8111C2.98813 12.7335 2.97868 12.6486 2.97567 12.5613C2.97265 12.474 2.97612 12.386 2.98588 12.3022C2.99564 12.2185 3.0115 12.1407 3.03255 12.0733L4.15255 8.5L3.07255 4.92C3.05178 4.85181 3.03628 4.77335 3.02692 4.68912C3.01756 4.60489 3.01454 4.51657 3.01802 4.42921C3.02151 4.34186 3.03143 4.25721 3.04722 4.18011C3.06302 4.10302 3.08437 4.03502 3.11005 3.98C3.13592 3.91931 3.16621 3.87353 3.19902 3.84554C3.23184 3.81755 3.26647 3.80794 3.30074 3.81733C3.33502 3.82672 3.36819 3.8549 3.39819 3.9001C3.42818 3.94531 3.45435 4.00655 3.47505 4.08L4.68255 8.08C4.71932 8.19929 4.73942 8.34892 4.73942 8.50333C4.73942 8.65775 4.71932 8.80738 4.68255 8.92667L3.43255 12.9267C3.40747 13.0073 3.37561 13.0711 3.33956 13.1128C3.30351 13.1545 3.26428 13.173 3.22505 13.1667Z" fill="#637381"/>
</svg>
