<svg width="73" height="65" viewBox="0 0 73 65" fill="none" xmlns="http://www.w3.org/2000/svg">
<path fill-rule="evenodd" clip-rule="evenodd" d="M46.765 46.8104L46.537 47.2243L46.3048 47.6433L46.0824 48.0413L45.9048 48.3572L45.734 48.6585L45.5382 49.0009L45.4132 49.2176L45.234 49.5254L45.1481 49.6714L45.0375 49.858L44.9574 49.9918L44.8545 50.1621L44.7803 50.2838L44.662 50.475L44.5944 50.5828L44.5293 50.6853L44.4667 50.7826L44.4065 50.8748L44.3488 50.9616L44.2757 51.0694L44.2238 51.1441L44.1906 51.191L44.1586 51.2357L44.1125 51.2982L44.0831 51.337L44.0412 51.3909L44.0278 51.4076C43.1872 52.4522 42.2703 53.243 41.1427 53.6994C38.7719 54.8136 35.8247 54.8657 33.5488 53.4881L39.2009 43.7473L39.4196 43.613C43.2678 41.3219 45.1291 43.7002 46.765 46.8104Z" fill="url(#paint0_linear_419_37)"/>
<path fill-rule="evenodd" clip-rule="evenodd" d="M67.1667 42.4473C63.5519 36.1227 59.8152 30.1639 55.5228 38.9048C54.9356 40.0286 54.5075 42.2124 53.5488 42.2124V42.2013C52.59 42.2013 52.162 40.0175 51.5749 38.8937C47.2824 30.1528 43.5456 36.1116 39.9308 42.4362C39.6587 42.9133 39.3974 43.3684 39.1738 43.7641C47.458 38.5198 46.7605 54.363 53.5488 54.4889V54.5C60.3371 54.3741 59.6395 38.5309 67.9238 43.775C67.7003 43.3795 67.4389 42.9244 67.1667 42.4473Z" fill="url(#paint1_linear_419_37)"/>
<path fill-rule="evenodd" clip-rule="evenodd" d="M67.6113 54.5C69.6823 54.5 71.3613 52.821 71.3613 50.75C71.3613 48.679 69.6823 47 67.6113 47C65.5403 47 63.8613 48.679 63.8613 50.75C63.8613 52.821 65.5403 54.5 67.6113 54.5Z" fill="url(#paint2_linear_419_37)"/>
<defs>
<linearGradient id="paint0_linear_419_37" x1="1355.17" y1="160.351" x2="752.828" y2="699.47" gradientUnits="userSpaceOnUse">
<stop stop-color="#007867"/>
<stop offset="1" stop-color="#00A76F"/>
</linearGradient>
<linearGradient id="paint1_linear_419_37" x1="1476.67" y1="34.5" x2="1476.67" y2="2034.5" gradientUnits="userSpaceOnUse">
<stop stop-color="#5BE49B"/>
<stop offset="1" stop-color="#00A76F"/>
</linearGradient>
<linearGradient id="paint2_linear_419_37" x1="438.861" y1="47" x2="438.861" y2="797" gradientUnits="userSpaceOnUse">
<stop stop-color="#5BE49B"/>
<stop offset="1" stop-color="#00A76F"/>
</linearGradient>
</defs>
</svg>
