<svg width="25" height="25" viewBox="0 0 25 25" fill="none" xmlns="http://www.w3.org/2000/svg">
<mask id="mask0_419_1768" style="mask-type:alpha" maskUnits="userSpaceOnUse" x="0" y="0" width="25" height="25">
<g clip-path="url(#clip0_419_1768)">
<path opacity="0.32" fill-rule="evenodd" clip-rule="evenodd" d="M4.32186 21.8755C3.47759 21.6957 2.91464 21.0161 2.82597 20.1575C2.6945 18.8844 2.54498 16.5469 2.54498 12.5C2.54498 8.45305 2.6945 6.1156 2.82597 4.84251C2.91464 3.98389 3.47759 3.30424 4.32186 3.12451C5.65448 2.84081 8.16658 2.5 12.545 2.5C16.9234 2.5 19.4355 2.84081 20.7681 3.12451C21.6124 3.30424 22.1754 3.98389 22.264 4.84251C22.3955 6.1156 22.545 8.45305 22.545 12.5C22.545 16.5469 22.3955 18.8844 22.264 20.1575C22.1754 21.0161 21.6124 21.6957 20.7682 21.8755C19.4355 22.1592 16.9234 22.5 12.545 22.5C8.16658 22.5 5.65448 22.1592 4.32186 21.8755ZM17.545 8.87267V15.736C17.5386 16.0958 17.3913 16.4387 17.135 16.6909C16.8786 16.9431 16.5336 17.0844 16.1743 17.0844C15.815 17.0844 15.47 16.9431 15.2136 16.6909C14.9573 16.4387 14.81 16.0958 14.8036 15.736V12.1671L9.89458 17.0953C9.3576 17.6344 8.48523 17.635 7.9476 17.0965C7.41187 16.56 7.41026 15.6919 7.94586 15.1553C9.66902 13.4289 12.2412 10.8625 12.8846 10.2453H9.32081C8.96152 10.2389 8.61913 10.0915 8.36732 9.83474C8.11551 9.57801 7.97442 9.23254 7.97442 8.87267C7.97442 8.51281 8.11551 8.16734 8.36732 7.91061C8.61913 7.65389 8.96152 7.50644 9.32081 7.5H16.1743C16.5375 7.50109 16.8855 7.64606 17.1423 7.90325C17.3992 8.16044 17.5439 8.50895 17.545 8.87267Z" fill="#1877F2"/>
<path d="M17.5449 15.736V8.87267C17.5438 8.50895 17.399 8.16044 17.1422 7.90325C16.8854 7.64606 16.5374 7.50109 16.1742 7.5H9.3207C8.96141 7.50644 8.61902 7.65389 8.36721 7.91061C8.1154 8.16734 7.9743 8.51281 7.9743 8.87267C7.9743 9.23254 8.1154 9.57801 8.36721 9.83474C8.61902 10.0915 8.96141 10.2389 9.3207 10.2453H12.8845C12.2411 10.8625 9.66891 13.4289 7.94575 15.1553C7.41014 15.6919 7.41176 16.56 7.94748 17.0965C8.48512 17.635 9.35749 17.6344 9.89446 17.0953L14.8035 12.1671V15.736C14.8099 16.0958 14.9572 16.4387 15.2135 16.6909C15.4699 16.9431 15.8148 17.0844 16.1742 17.0844C16.5335 17.0844 16.8785 16.9431 17.1349 16.6909C17.3912 16.4387 17.5385 16.0958 17.5449 15.736Z" fill="#1877F2"/>
</g>
</mask>
<g mask="url(#mask0_419_1768)">
<rect x="0.544983" y="0.5" width="24" height="24" fill="#637381"/>
</g>
<defs>
<clipPath id="clip0_419_1768">
<rect width="24" height="24" fill="white" transform="translate(0.544983 0.5)"/>
</clipPath>
</defs>
</svg>
