<svg width="25" height="25" viewBox="0 0 25 25" fill="none" xmlns="http://www.w3.org/2000/svg">
<mask id="mask0_419_1482" style="mask-type:alpha" maskUnits="userSpaceOnUse" x="0" y="0" width="25" height="25">
<g clip-path="url(#clip0_419_1482)">
<path opacity="0.32" d="M10.831 4.41C10.831 3.842 11.369 3.25 12.205 3.25C13.041 3.25 13.579 3.842 13.579 4.41C13.579 4.721 13.467 4.991 13.285 5.19C13.1615 5.32138 13.0348 5.44975 12.905 5.575L12.825 5.655C12.6408 5.83334 12.4643 6.01951 12.296 6.213C12.031 6.525 11.743 6.936 11.638 7.443C11.0002 7.54826 10.394 7.79496 9.86399 8.165L2.76899 13.157C1.84199 13.809 1.60299 14.859 1.94099 15.739C2.27299 16.605 3.13499 17.25 4.24699 17.25H6.55499C6.57099 16.613 6.61599 16.13 6.73899 15.75H4.24899C3.74599 15.75 3.44799 15.477 3.34199 15.202C3.24199 14.941 3.28799 14.626 3.63199 14.383L10.728 9.393C11.2067 9.06204 11.7741 8.88325 12.356 8.88C12.9437 8.86959 13.5208 9.03765 14.011 9.362L21.444 14.372C21.8 14.613 21.85 14.932 21.752 15.195C21.649 15.473 21.352 15.75 20.843 15.75H18.353C18.476 16.13 18.521 16.613 18.537 17.25H20.843C21.968 17.25 22.833 16.593 23.159 15.716C23.489 14.826 23.232 13.769 22.282 13.129L14.849 8.119C14.3613 7.79185 13.8122 7.5673 13.235 7.459C13.285 7.378 13.353 7.287 13.44 7.185C13.566 7.036 13.714 6.887 13.88 6.721L13.955 6.649C14.095 6.509 14.25 6.357 14.39 6.204C14.833 5.724 15.08 5.089 15.08 4.409C15.08 2.867 13.716 1.75 12.206 1.75C10.696 1.75 9.33099 2.867 9.33099 4.41C9.33099 4.60891 9.41001 4.79968 9.55066 4.94033C9.69131 5.08098 9.88208 5.16 10.081 5.16C10.2799 5.16 10.4707 5.08098 10.6113 4.94033C10.752 4.79968 10.831 4.60891 10.831 4.41Z" fill="#1877F2"/>
<path d="M6.54498 18.5C6.54498 16.614 6.54498 15.672 7.13098 15.086C7.71698 14.5 8.65898 14.5 10.545 14.5H14.545C16.431 14.5 17.373 14.5 17.959 15.086C18.545 15.672 18.545 16.614 18.545 18.5C18.545 20.386 18.545 21.328 17.959 21.914C17.373 22.5 16.431 22.5 14.545 22.5H10.545C8.65898 22.5 7.71698 22.5 7.13098 21.914C6.54498 21.328 6.54498 20.386 6.54498 18.5Z" fill="#1877F2"/>
</g>
</mask>
<g mask="url(#mask0_419_1482)">
<rect x="0.544983" y="0.5" width="24" height="24" fill="#637381"/>
</g>
<defs>
<clipPath id="clip0_419_1482">
<rect width="24" height="24" fill="white" transform="translate(0.544983 0.5)"/>
</clipPath>
</defs>
</svg>
