<svg width="25" height="25" viewBox="0 0 25 25" fill="none" xmlns="http://www.w3.org/2000/svg">
<mask id="mask0_419_1376" style="mask-type:alpha" maskUnits="userSpaceOnUse" x="0" y="0" width="25" height="25">
<g clip-path="url(#clip0_419_1376)">
<path opacity="0.32" d="M4.8749 6.5C4.39369 6.5 3.98022 6.84385 3.89352 7.3172C2.52792 14.7724 2.29498 18.5 2.29498 18.5H22.795C22.795 18.5 22.562 14.7724 21.1964 7.3172C21.1097 6.84385 20.6963 6.5 20.215 6.5H4.8749Z" fill="#1877F2"/>
<path fill-rule="evenodd" clip-rule="evenodd" d="M22.795 18.5H2.29498C2.29498 18.5 2.29498 19.195 2.3462 20.1754C2.4178 21.5459 3.5012 22.5861 4.87264 22.638C6.39998 22.6959 8.82318 22.75 12.545 22.75C16.2668 22.75 18.69 22.6959 20.2173 22.638C21.5888 22.5861 22.6722 21.5459 22.7438 20.1754C22.795 19.195 22.795 18.5 22.795 18.5Z" fill="#1877F2"/>
<path d="M12.545 1.5C9.78358 1.5 7.54498 3.73857 7.54498 6.5H9.54498C9.54498 4.84314 10.8882 3.5 12.545 3.5C14.2018 3.5 15.545 4.84314 15.545 6.5H17.545C17.545 3.73857 15.3064 1.5 12.545 1.5Z" fill="#1877F2"/>
</g>
</mask>
<g mask="url(#mask0_419_1376)">
<rect x="0.544983" y="0.5" width="24" height="24" fill="#637381"/>
</g>
<defs>
<clipPath id="clip0_419_1376">
<rect width="24" height="24" fill="white" transform="translate(0.544983 0.5)"/>
</clipPath>
</defs>
</svg>
