<svg width="25" height="25" viewBox="0 0 25 25" fill="none" xmlns="http://www.w3.org/2000/svg">
<mask id="mask0_419_1499" style="mask-type:alpha" maskUnits="userSpaceOnUse" x="0" y="0" width="25" height="25">
<g clip-path="url(#clip0_419_1499)">
<path opacity="0.32" d="M3.95514 2.50012C3.26479 2.50012 2.70514 3.05977 2.70514 3.75012C2.70514 4.44048 3.26479 5.00012 3.95514 5.00012H4.79749C5.03484 5.00012 5.23934 5.16605 5.28779 5.39837C5.51089 6.46777 6.14264 9.45907 6.64959 11.5001C7.27633 14.0236 7.84433 15.842 8.20238 16.9029C8.64426 16.6467 9.15757 16.5 9.70514 16.5C10.991 16.5 12.0879 17.309 12.5147 18.4457C13.2628 18.4791 14.1362 18.5001 15.1496 18.5001C16.007 18.5001 16.7492 18.4851 17.3902 18.4602C17.8131 17.3159 18.9139 16.5 20.2052 16.5C20.7593 16.5 21.2784 16.6503 21.7239 16.9123C22.0773 16.0226 22.5523 14.5331 22.9552 12.2501C23.2442 10.6123 23.4218 9.38287 23.531 8.49032C23.6651 7.39392 22.8097 6.50012 21.7052 6.50012H8.20514L7.58389 4.01505C7.36129 3.12472 6.56134 2.50012 5.64359 2.50012H3.95514Z" fill="#1877F2"/>
<path d="M18.0955 11.0941C18.1541 10.5083 17.6941 10 17.1054 10C16.5942 10 16.1662 10.3874 16.1153 10.8961L15.8144 13.9059C15.7558 14.4917 16.2158 15 16.8045 15C17.3157 15 17.7437 14.6126 17.7946 14.1039L18.0955 11.0941Z" fill="#1877F2"/>
<path d="M13.2946 10.8961C13.2437 10.3874 12.8157 10 12.3045 10C11.7158 10 11.2558 10.5083 11.3144 11.0941L11.6153 14.1039C11.6662 14.6126 12.0942 15 12.6054 15C13.1941 15 13.6541 14.4917 13.5955 13.9059L13.2946 10.8961Z" fill="#1877F2"/>
<path d="M17.2052 19.5C17.2052 21.1569 18.5483 22.5 20.2052 22.5C21.862 22.5 23.2052 21.1569 23.2052 19.5C23.2052 17.8432 21.862 16.5 20.2052 16.5C18.5483 16.5 17.2052 17.8432 17.2052 19.5Z" fill="#1877F2"/>
<path d="M6.70514 19.5C6.70514 21.1569 8.04829 22.5 9.70514 22.5C11.362 22.5 12.7052 21.1569 12.7052 19.5C12.7052 17.8432 11.362 16.5 9.70514 16.5C8.04829 16.5 6.70514 17.8432 6.70514 19.5Z" fill="#1877F2"/>
</g>
</mask>
<g mask="url(#mask0_419_1499)">
<rect x="0.544983" y="0.5" width="24" height="24" fill="#637381"/>
</g>
<defs>
<clipPath id="clip0_419_1499">
<rect width="24" height="24" fill="white" transform="translate(0.544983 0.5)"/>
</clipPath>
</defs>
</svg>
