<svg width="25" height="25" viewBox="0 0 25 25" fill="none" xmlns="http://www.w3.org/2000/svg">
<mask id="mask0_419_1359" style="mask-type:alpha" maskUnits="userSpaceOnUse" x="0" y="0" width="25" height="25">
<g clip-path="url(#clip0_419_1359)">
<path opacity="0.32" d="M21.7258 17.4703C21.4421 18.1255 20.7675 18.5 20.0536 18.5H15.3604C15.3912 18.4145 15.4185 18.3269 15.4421 18.2373C15.7159 17.1974 15.4275 16.139 14.7664 15.3963C15.0104 13.4091 15.1627 11.3733 15.2558 9.76516C15.3019 8.96731 14.3245 8.70081 13.9724 9.41526C13.2628 10.8553 12.3943 12.6958 11.6292 14.541C10.6917 14.8479 9.92178 15.6177 9.64793 16.6576C9.4814 17.2899 9.5228 17.9291 9.72949 18.5H5.03639C4.32245 18.5 3.64786 18.1255 3.36416 17.4703C2.8371 16.2533 2.54498 14.9108 2.54498 13.5C2.54498 7.97715 7.02213 3.5 12.545 3.5C18.0679 3.5 22.545 7.97715 22.545 13.5C22.545 14.9108 22.2529 16.2533 21.7258 17.4703Z" fill="#1877F2"/>
<path d="M15.2558 9.76516C15.3019 8.96731 14.3245 8.70081 13.9724 9.41526C13.2628 10.8553 12.3943 12.6958 11.6292 14.541C10.6917 14.8479 9.92178 15.6177 9.64793 16.6576C9.21918 18.2856 10.1687 19.959 11.7688 20.3953C13.3688 20.8315 15.0134 19.8654 15.4421 18.2373C15.7159 17.1974 15.4275 16.139 14.7664 15.3963C15.0104 13.4091 15.1627 11.3733 15.2558 9.76516Z" fill="#1877F2"/>
</g>
</mask>
<g mask="url(#mask0_419_1359)">
<rect x="0.544983" y="0.5" width="24" height="24" fill="#00A76F"/>
</g>
<defs>
<clipPath id="clip0_419_1359">
<rect width="24" height="24" fill="white" transform="translate(0.544983 0.5)"/>
</clipPath>
</defs>
</svg>
