<svg width="25" height="25" viewBox="0 0 25 25" fill="none" xmlns="http://www.w3.org/2000/svg">
<mask id="mask0_419_1393" style="mask-type:alpha" maskUnits="userSpaceOnUse" x="0" y="0" width="25" height="25">
<g clip-path="url(#clip0_419_1393)">
<g opacity="0.32">
<path d="M3.15444 23.4843C2.3179 23.4631 1.68426 22.9599 1.61587 22.1259C1.57491 21.6264 1.54498 20.9398 1.54498 20C1.54498 19.0602 1.57491 18.3736 1.61587 17.8741C1.68426 17.0401 2.3179 16.5369 3.15444 16.5157C3.52043 16.5064 3.97804 16.5 4.54498 16.5C5.11192 16.5 5.56953 16.5064 5.93553 16.5157C6.77208 16.5369 7.40568 17.0401 7.47408 17.8741C7.51503 18.3736 7.54498 19.0602 7.54498 20C7.54498 20.9398 7.51503 21.6264 7.47408 22.1259C7.40568 22.9599 6.77208 23.4631 5.93553 23.4843C5.56953 23.4936 5.11192 23.5 4.54498 23.5C3.97804 23.5 3.52043 23.4936 3.15444 23.4843Z" fill="#1877F2"/>
<path d="M19.3905 23.4792C18.4159 23.4408 17.7325 22.7557 17.6693 21.7823C17.6038 20.7731 17.545 19.1337 17.545 16.5C17.545 13.8663 17.6038 12.227 17.6693 11.2177C17.7325 10.2444 18.4159 9.5592 19.3905 9.52075C19.7121 9.50805 20.0939 9.5 20.545 9.5C20.9961 9.5 21.3779 9.50805 21.6995 9.52075C22.6741 9.5592 23.3575 10.2444 23.4207 11.2177C23.4862 12.227 23.545 13.8663 23.545 16.5C23.545 19.1337 23.4862 20.7731 23.4207 21.7823C23.3575 22.7557 22.6741 23.4408 21.6995 23.4792C21.3779 23.4919 20.9961 23.5 20.545 23.5C20.0939 23.5 19.7121 23.4919 19.3905 23.4792Z" fill="#1877F2"/>
<path d="M11.3216 23.4832C10.3877 23.4548 9.70698 22.8419 9.63988 21.91C9.58718 21.1775 9.54498 20.0936 9.54498 18.5C9.54498 16.9064 9.58718 15.8225 9.63988 15.09C9.70698 14.1581 10.3877 13.5453 11.3216 13.5169C11.6571 13.5067 12.0613 13.5 12.545 13.5C13.0287 13.5 13.4329 13.5067 13.7684 13.5169C14.7023 13.5453 15.383 14.1581 15.4501 15.09C15.5028 15.8225 15.545 16.9064 15.545 18.5C15.545 20.0936 15.5028 21.1775 15.4501 21.91C15.383 22.8419 14.7023 23.4548 13.7684 23.4832C13.4329 23.4934 13.0287 23.5 12.545 23.5C12.0613 23.5 11.6571 23.4934 11.3216 23.4832Z" fill="#1877F2"/>
</g>
<path d="M21.5053 6.5506C21.4556 7.53855 20.5159 7.90975 19.787 7.241C19.4556 6.9369 19.0588 6.56255 18.5868 6.10285C17.5206 7.0731 15.867 8.58585 13.8956 10.4164C13.3779 10.8972 12.537 10.8435 12.0847 10.3007C11.1971 9.23875 10.3025 8.1807 9.37718 7.1514C8.29588 7.9453 6.35498 9.45825 4.42887 11.3844C3.94071 11.8725 3.14925 11.8725 2.6611 11.3844C2.17294 10.8962 2.17294 10.1048 2.6611 9.6166C4.55071 7.727 6.62398 5.9545 8.84753 4.46314L8.85098 4.46082C9.34678 4.1303 10.0075 4.19527 10.4289 4.6166C11.3969 5.58455 12.2715 6.64925 13.1568 7.69265C14.6619 6.30065 15.9298 5.14087 16.819 4.3314C16.4155 3.91506 16.0812 3.56006 15.805 3.25898C15.136 2.52997 15.5074 1.58998 16.4956 1.54025C17.7565 1.4768 19.0505 1.43946 20.2961 1.67232C20.8569 1.77718 21.2683 2.18863 21.3731 2.74948C21.606 3.99521 21.5688 5.28949 21.5053 6.5506Z" fill="#1877F2"/>
</g>
</mask>
<g mask="url(#mask0_419_1393)">
<rect x="0.544983" y="0.5" width="24" height="24" fill="#637381"/>
</g>
<defs>
<clipPath id="clip0_419_1393">
<rect width="24" height="24" fill="white" transform="translate(0.544983 0.5)"/>
</clipPath>
</defs>
</svg>
