<svg width="25" height="25" viewBox="0 0 25 25" fill="none" xmlns="http://www.w3.org/2000/svg">
<mask id="mask0_419_1642" style="mask-type:alpha" maskUnits="userSpaceOnUse" x="0" y="0" width="25" height="25">
<g clip-path="url(#clip0_419_1642)">
<path opacity="0.32" fill-rule="evenodd" clip-rule="evenodd" d="M2.66909 8.5H22.4208C22.4917 9.70109 22.545 11.3266 22.545 13.5C22.545 16.9843 22.4081 19.0605 22.2812 20.2371C22.1872 21.1088 21.5968 21.781 20.7353 21.9442C19.3944 22.1983 16.8878 22.5 12.545 22.5C8.20223 22.5 5.69553 22.1983 4.35465 21.9442C3.49324 21.781 2.90283 21.1088 2.80877 20.2371C2.6818 19.0605 2.54498 16.9843 2.54498 13.5C2.54498 11.3266 2.59822 9.70109 2.66909 8.5ZM7.04498 13.1815C7.04498 12.5806 7.47813 12.1082 8.07868 12.0868C8.85858 12.059 10.2119 12.0275 12.545 12.0069C15.0519 11.9848 16.4276 12.0197 17.1762 12.0599C17.7004 12.0881 18.045 12.4946 18.045 13.0196V13.4107C18.045 13.9726 17.6607 14.4093 17.0993 14.434C16.3348 14.4675 14.9685 14.5 12.545 14.5C10.1215 14.5 8.75523 14.4675 7.99063 14.434C7.42933 14.4093 7.04498 13.9726 7.04498 13.4107V13.1815ZM7.04498 17.5891C7.04498 17.0276 7.42938 16.5793 7.99013 16.5503C8.51773 16.5231 9.32448 16.5001 10.545 16.5001C11.7655 16.5001 12.5722 16.5231 13.0998 16.5503C13.6606 16.5793 14.045 17.0276 14.045 17.5891V17.9111C14.045 18.4726 13.6606 18.9208 13.0998 18.9498C12.5722 18.9771 11.7655 19.0001 10.545 19.0001C9.32448 19.0001 8.51773 18.9771 7.99013 18.9498C7.42938 18.9208 7.04498 18.4726 7.04498 17.9111V17.5891Z" fill="#1877F2"/>
<path d="M18.46 2.53126C18.7726 2.55703 18.9874 2.78598 19.0086 3.09889C19.0281 3.38636 19.045 3.82917 19.045 4.5C19.045 4.60776 19.0445 4.70964 19.0437 4.80593C19.7449 4.88632 20.3011 4.97356 20.7352 5.05581C21.5966 5.21901 22.187 5.89115 22.2811 6.76285C22.3289 7.2055 22.378 7.77555 22.4208 8.5H2.66901C2.71176 7.77555 2.76092 7.2055 2.80869 6.76285C2.90275 5.89115 3.49316 5.21902 4.35457 5.05581C4.78868 4.97355 5.34499 4.8863 6.04624 4.80591C6.04544 4.70962 6.04499 4.60775 6.04499 4.5C6.04499 3.82917 6.06189 3.38636 6.08139 3.09889C6.10259 2.78598 6.31739 2.55703 6.62994 2.53126C6.84264 2.51372 7.13879 2.5 7.54499 2.5C7.95119 2.5 8.24734 2.51372 8.46004 2.53126C8.77259 2.55703 8.98739 2.78598 9.00859 3.09889C9.02809 3.38636 9.04499 3.82917 9.04499 4.5C9.04499 4.5254 9.04499 4.55047 9.04494 4.57521C10.0514 4.52844 11.2116 4.5 12.5449 4.5C13.8782 4.5 15.0385 4.52845 16.045 4.57522V4.5C16.045 3.82917 16.0619 3.38636 16.0814 3.09889C16.1026 2.78598 16.3174 2.55703 16.6299 2.53126C16.8426 2.51372 17.1388 2.5 17.545 2.5C17.9512 2.5 18.2473 2.51372 18.46 2.53126Z" fill="#1877F2"/>
<path fill-rule="evenodd" clip-rule="evenodd" d="M8.07868 12.0868C7.47813 12.1081 7.04498 12.5805 7.04498 13.1815V13.4107C7.04498 13.9725 7.42933 14.4093 7.99063 14.4339C8.75523 14.4674 10.1215 14.5 12.545 14.5C14.9685 14.5 16.3347 14.4674 17.0993 14.4339C17.6606 14.4093 18.045 13.9725 18.045 13.4107V13.0196C18.045 12.4946 17.7004 12.0881 17.1762 12.0599C16.4275 12.0196 15.0519 11.9847 12.545 12.0069C10.2119 12.0274 8.85858 12.059 8.07868 12.0868ZM7.99013 16.5503C7.42938 16.5793 7.04498 17.0275 7.04498 17.589V17.911C7.04498 18.4725 7.42938 18.9208 7.99013 18.9498C8.51773 18.977 9.32448 19 10.545 19C11.7655 19 12.5722 18.977 13.0998 18.9498C13.6606 18.9208 14.045 18.4725 14.045 17.911V17.589C14.045 17.0275 13.6606 16.5793 13.0998 16.5503C12.5722 16.523 11.7655 16.5 10.545 16.5C9.32448 16.5 8.51773 16.523 7.99013 16.5503Z" fill="#1877F2"/>
</g>
</mask>
<g mask="url(#mask0_419_1642)">
<rect x="0.544983" y="0.5" width="24" height="24" fill="#637381"/>
</g>
<defs>
<clipPath id="clip0_419_1642">
<rect width="24" height="24" fill="white" transform="translate(0.544983 0.5)"/>
</clipPath>
</defs>
</svg>
