<svg width="25" height="25" viewBox="0 0 25 25" fill="none" xmlns="http://www.w3.org/2000/svg">
<mask id="mask0_419_1590" style="mask-type:alpha" maskUnits="userSpaceOnUse" x="0" y="0" width="25" height="25">
<g clip-path="url(#clip0_419_1590)">
<path opacity="0.32" d="M9.97448 4.02977C9.37063 3.32611 8.47683 2.9354 7.55713 3.00878C6.08783 3.126 5.04913 3.28455 4.34 3.42833C3.48661 3.60136 2.90913 4.28264 2.81774 5.15587C2.68834 6.39235 2.54498 8.61915 2.54498 12.4167C2.54498 16.2144 2.68834 18.4412 2.81774 19.6776C2.90913 20.5509 3.48573 21.2319 4.33911 21.405C5.67613 21.6762 8.18538 22 12.545 22C13.4741 22 14.3192 21.9853 15.0868 21.9595C15.0799 21.4401 15.0729 20.7894 15.0666 19.9853C14.8308 19.977 14.6357 19.9662 14.4816 19.9557C14.2311 19.9386 14.045 19.729 14.045 19.4779V19.0222C14.045 18.7711 14.2311 18.5616 14.4816 18.5444C14.6336 18.5341 14.8254 18.5234 15.0569 18.5152C15.0537 17.9045 15.0509 17.2294 15.0488 16.4846C14.821 16.4764 14.6319 16.4659 14.4816 16.4557C14.2311 16.4386 14.045 16.229 14.045 15.9779V15.5222C14.045 15.2711 14.2311 15.0616 14.4816 15.0444C14.6312 15.0342 14.8194 15.0238 15.0459 15.0156C15.0453 14.535 15.045 14.0302 15.045 13.5001L15.0451 12.9845C14.8189 12.9763 14.6311 12.9659 14.4816 12.9557C14.2311 12.9386 14.045 12.729 14.045 12.4779V12.0222C14.045 11.7711 14.2311 11.5616 14.4816 11.5444C14.6314 11.5342 14.8197 11.5238 15.0466 11.5156C15.0479 10.78 15.0499 10.1044 15.0523 9.48476C14.8229 9.47651 14.6326 9.46596 14.4816 9.45566C14.2311 9.43856 14.045 9.22896 14.045 8.97791V8.52216C14.045 8.27111 14.2311 8.06156 14.4816 8.04441C14.6342 8.03401 14.8269 8.02336 15.0596 8.01511C15.0647 7.16621 15.0708 6.45346 15.0771 5.85986H16.5129C16.5192 6.45151 16.5252 7.16146 16.5303 8.00661C16.8049 8.01341 17.0108 8.02461 17.1626 8.03641C17.3893 8.05406 17.545 8.24196 17.545 8.46931V9.03081C17.545 9.25816 17.3893 9.44606 17.1626 9.46366C17.0121 9.47536 16.8086 9.48651 16.5377 9.49331C16.5401 10.1082 16.5421 10.7781 16.5434 11.507C16.8114 11.5138 17.0132 11.5248 17.1626 11.5364C17.3893 11.5541 17.545 11.742 17.545 11.9693V12.5308C17.545 12.7582 17.3893 12.9461 17.1626 12.9637C17.0135 12.9753 16.8123 12.9863 16.5449 12.9931L16.545 13.5001C16.545 14.027 16.5447 14.529 16.5441 15.007C16.8118 15.0138 17.0133 15.0248 17.1626 15.0364C17.3893 15.0541 17.545 15.242 17.545 15.4693V16.0308C17.545 16.2582 17.3893 16.4461 17.1626 16.4637C17.0128 16.4753 16.8104 16.4864 16.5411 16.4932C16.5391 17.2311 16.5364 17.9006 16.5331 18.5067C16.8063 18.5135 17.0113 18.5247 17.1626 18.5364C17.3893 18.5541 17.545 18.742 17.545 18.9693V19.5308C17.545 19.7582 17.3893 19.9461 17.1626 19.9637C17.0095 19.9756 16.8015 19.9869 16.5234 19.9937C16.5174 20.7611 16.5107 21.3886 16.5041 21.8953C18.5319 21.7777 19.8864 21.5804 20.7509 21.405C21.6042 21.2319 22.1808 20.5509 22.2722 19.6776C22.4016 18.4412 22.545 16.2144 22.545 12.4167C22.545 10.929 22.523 9.6823 22.4885 8.64175C22.4362 7.0679 21.1362 5.85985 19.5751 5.85985H12.4589C11.8785 5.85985 11.3267 5.60545 10.9468 5.16279L9.97448 4.02977Z" fill="#1877F2"/>
<path d="M16.5041 21.8953C16.064 21.9209 15.5921 21.9426 15.0868 21.9596C15.0799 21.4402 15.0729 20.7894 15.0666 19.9853C14.8308 19.977 14.6357 19.9662 14.4816 19.9557C14.2311 19.9386 14.045 19.729 14.045 19.4779V19.0222C14.045 18.7711 14.2311 18.5616 14.4816 18.5444C14.6336 18.5341 14.8254 18.5234 15.0569 18.5152C15.0537 17.9045 15.0509 17.2294 15.0488 16.4846C14.821 16.4764 14.6319 16.4659 14.4816 16.4557C14.2311 16.4386 14.045 16.229 14.045 15.9779V15.5222C14.045 15.2711 14.2311 15.0616 14.4816 15.0444C14.6312 15.0342 14.8193 15.0238 15.0459 15.0156C15.0453 14.535 15.045 14.0302 15.045 13.5001L15.0451 12.9845C14.8189 12.9763 14.6311 12.9659 14.4816 12.9557C14.2311 12.9386 14.045 12.729 14.045 12.4779V12.0222C14.045 11.7711 14.2311 11.5616 14.4816 11.5444C14.6314 11.5342 14.8197 11.5238 15.0466 11.5156C15.0479 10.78 15.0499 10.1044 15.0523 9.48476C14.8229 9.47651 14.6326 9.46596 14.4816 9.45566C14.2311 9.43856 14.045 9.22896 14.045 8.97791V8.52216C14.045 8.27111 14.2311 8.06156 14.4816 8.04441C14.6342 8.03401 14.8269 8.02336 15.0596 8.01511C15.0647 7.16621 15.0708 6.45346 15.0771 5.85986H16.5129C16.5192 6.45151 16.5252 7.16146 16.5303 8.00661C16.8049 8.01341 17.0108 8.02461 17.1626 8.03641C17.3893 8.05406 17.545 8.24196 17.545 8.46931V9.03081C17.545 9.25816 17.3893 9.44606 17.1626 9.46366C17.0121 9.47536 16.8086 9.48651 16.5377 9.49331C16.5401 10.1082 16.5421 10.7781 16.5434 11.507C16.8115 11.5138 17.0132 11.5248 17.1626 11.5364C17.3893 11.5541 17.545 11.742 17.545 11.9693V12.5308C17.545 12.7582 17.3893 12.9461 17.1626 12.9637C17.0135 12.9753 16.8122 12.9863 16.5449 12.9931L16.545 13.5001C16.545 14.027 16.5447 14.529 16.5441 15.007C16.8118 15.0138 17.0133 15.0248 17.1626 15.0364C17.3893 15.0541 17.545 15.242 17.545 15.4693V16.0308C17.545 16.2582 17.3893 16.4461 17.1626 16.4637C17.0128 16.4753 16.8104 16.4864 16.5411 16.4932C16.5391 17.2311 16.5364 17.9006 16.5331 18.5067C16.8064 18.5135 17.0113 18.5247 17.1626 18.5364C17.3893 18.5541 17.545 18.742 17.545 18.9693V19.5308C17.545 19.7582 17.3893 19.9461 17.1626 19.9637C17.0095 19.9756 16.8015 19.9869 16.5234 19.9937C16.5174 20.7612 16.5107 21.3887 16.5041 21.8953Z" fill="#1877F2"/>
</g>
</mask>
<g mask="url(#mask0_419_1590)">
<rect x="0.544983" y="0.5" width="24" height="24" fill="#637381"/>
</g>
<defs>
<clipPath id="clip0_419_1590">
<rect width="24" height="24" fill="white" transform="translate(0.544983 0.5)"/>
</clipPath>
</defs>
</svg>
