<svg width="25" height="25" viewBox="0 0 25 25" fill="none" xmlns="http://www.w3.org/2000/svg">
<mask id="mask0_419_1713" style="mask-type:alpha" maskUnits="userSpaceOnUse" x="0" y="0" width="25" height="25">
<g clip-path="url(#clip0_419_1713)">
<path opacity="0.32" fill-rule="evenodd" clip-rule="evenodd" d="M12.545 23C18.344 23 23.045 18.299 23.045 12.5C23.045 6.70101 18.344 2 12.545 2C6.74599 2 2.04498 6.70101 2.04498 12.5C2.04498 18.299 6.74599 23 12.545 23ZM12.545 18.8C16.0244 18.8 18.845 15.9794 18.845 12.5C18.845 9.02061 16.0244 6.2 12.545 6.2C9.06559 6.2 6.24498 9.02061 6.24498 12.5C6.24498 15.9794 9.06559 18.8 12.545 18.8Z" fill="#1877F2"/>
<path d="M19.148 3.51123C19.7631 2.89616 20.7603 2.89616 21.3754 3.51123C21.9905 4.12631 21.9905 5.12355 21.3754 5.73862L5.78367 21.3303C5.16859 21.9454 4.17136 21.9454 3.55628 21.3303C2.9412 20.7152 2.9412 19.718 3.55628 19.1029L19.148 3.51123Z" fill="#1877F2"/>
</g>
</mask>
<g mask="url(#mask0_419_1713)">
<rect x="0.544983" y="0.5" width="24" height="24" fill="#637381"/>
</g>
<defs>
<clipPath id="clip0_419_1713">
<rect width="24" height="24" fill="white" transform="translate(0.544983 0.5)"/>
</clipPath>
</defs>
</svg>
