<svg width="25" height="25" viewBox="0 0 25 25" fill="none" xmlns="http://www.w3.org/2000/svg">
<mask id="mask0_419_1410" style="mask-type:alpha" maskUnits="userSpaceOnUse" x="0" y="0" width="25" height="25">
<g clip-path="url(#clip0_419_1410)">
<g opacity="0.32">
<path d="M12.545 11.25C17.2488 11.25 20.0223 11.1481 21.413 11.0745C22.0567 11.0404 22.545 10.5077 22.545 9.86312V8.69432C22.545 8.24462 22.4001 7.80342 22.0816 7.48592C20.2133 5.62352 15.9197 3.22326 13.01 2.58812C12.7026 2.521 12.3874 2.521 12.08 2.58812C9.17033 3.22326 4.87669 5.62352 3.00838 7.48592C2.68988 7.80342 2.54498 8.24462 2.54498 8.69432V9.86312C2.54498 10.5077 3.03327 11.0404 3.67693 11.0745C5.06769 11.1481 7.84113 11.25 12.545 11.25Z" fill="#1877F2"/>
<path d="M2.72368 19.2287C2.85361 18.8515 3.23125 18.6799 3.62958 18.6573C4.66409 18.5986 7.19668 18.5 12.545 18.5C17.8933 18.5 20.4259 18.5986 21.4604 18.6573C21.8587 18.6799 22.2364 18.8515 22.3663 19.2287C22.4626 19.5082 22.545 19.9175 22.545 20.5C22.545 21.0825 22.4626 21.4919 22.3663 21.7714C22.2364 22.1486 21.8587 22.3201 21.4604 22.3427C20.4259 22.4015 17.8933 22.5 12.545 22.5C7.19668 22.5 4.66409 22.4015 3.62958 22.3427C3.23125 22.3201 2.85361 22.1486 2.72368 21.7714C2.62741 21.4919 2.54498 21.0825 2.54498 20.5C2.54498 19.9175 2.62741 19.5082 2.72368 19.2287Z" fill="#1877F2"/>
</g>
<path d="M12.545 9.5C13.6496 9.5 14.545 8.60457 14.545 7.5C14.545 6.39543 13.6496 5.5 12.545 5.5C11.4404 5.5 10.545 6.39543 10.545 7.5C10.545 8.60457 11.4404 9.5 12.545 9.5Z" fill="#1877F2"/>
<path d="M14.4917 11.2438C13.8832 11.2478 13.2349 11.25 12.545 11.25C11.8551 11.25 11.2068 11.2478 10.5983 11.2438C10.5727 11.8951 10.545 13.0511 10.545 15C10.545 16.7195 10.5666 17.8217 10.5892 18.5047C11.195 18.5017 11.8459 18.5 12.545 18.5C13.2441 18.5 13.895 18.5017 14.5008 18.5047C14.5234 17.8217 14.545 16.7195 14.545 15C14.545 13.0511 14.5173 11.8951 14.4917 11.2438Z" fill="#1877F2"/>
<path d="M16.5992 11.2212C16.5734 11.8682 16.545 13.0284 16.545 15C16.545 16.7343 16.567 17.8407 16.5898 18.5223C18.3918 18.5443 19.6472 18.5792 20.4971 18.6123C20.521 17.9396 20.545 16.8128 20.545 15C20.545 12.9185 20.5134 11.7414 20.4865 11.1177C19.5571 11.1562 18.2819 11.1956 16.5992 11.2212Z" fill="#1877F2"/>
<path d="M4.60343 11.1177C5.53286 11.1562 6.80812 11.1956 8.49081 11.2212C8.51661 11.8682 8.54498 13.0284 8.54498 15C8.54498 16.7343 8.52303 17.8407 8.50018 18.5223C6.69822 18.5443 5.44277 18.5792 4.59289 18.6123C4.56898 17.9396 4.54498 16.8128 4.54498 15C4.54498 12.9185 4.57663 11.7414 4.60343 11.1177Z" fill="#1877F2"/>
</g>
</mask>
<g mask="url(#mask0_419_1410)">
<rect x="0.544983" y="0.5" width="24" height="24" fill="#637381"/>
</g>
<defs>
<clipPath id="clip0_419_1410">
<rect width="24" height="24" fill="white" transform="translate(0.544983 0.5)"/>
</clipPath>
</defs>
</svg>
