<svg width="25" height="25" viewBox="0 0 25 25" fill="none" xmlns="http://www.w3.org/2000/svg">
<mask id="mask0_419_1429" style="mask-type:alpha" maskUnits="userSpaceOnUse" x="0" y="0" width="25" height="25">
<g clip-path="url(#clip0_419_1429)">
<path d="M3.16998 20.75C2.87161 20.75 2.58546 20.8685 2.37448 21.0795C2.16351 21.2905 2.04498 21.5766 2.04498 21.875C2.04498 22.1734 2.16351 22.4595 2.37448 22.6705C2.58546 22.8815 2.87161 23 3.16998 23H21.92C22.2184 23 22.5045 22.8815 22.7155 22.6705C22.9265 22.4595 23.045 22.1734 23.045 21.875C23.045 21.5766 22.9265 21.2905 22.7155 21.0795C22.5045 20.8685 22.2184 20.75 21.92 20.75H3.16998Z" fill="#1877F2"/>
<path opacity="0.32" d="M12.998 6.72499C13.1255 6.52999 13.271 6.32449 13.433 6.11299L13.457 6.07999C13.855 5.55215 14.3131 5.07242 14.822 4.65049C15.4115 4.17049 16.1255 3.75949 16.9445 3.58549C17.2175 3.52849 17.504 3.49849 17.7995 3.49999C19.826 3.51349 21.3575 4.89499 22.2965 6.05599C22.415 6.20149 22.5215 6.34249 22.6205 6.47749L22.6625 6.53599C22.763 6.67399 22.8425 6.81799 22.9025 6.96349L22.9145 6.99199C23.3105 7.99999 22.772 9.08899 21.845 9.54949C21.7733 9.58553 21.6997 9.61758 21.6245 9.64549L18.2765 10.8725L13.6175 17.5925C12.2105 19.622 9.03648 18.2345 9.57198 15.8225L10.04 13.712L5.38248 15.0245C4.99232 15.1345 4.58198 15.1527 4.18362 15.0776C3.78527 15.0025 3.40972 14.8361 3.08641 14.5916C2.76311 14.347 2.50083 14.0309 2.32015 13.668C2.13947 13.3052 2.04528 12.9054 2.04498 12.5V8.23999C2.04498 6.42499 4.50198 5.85949 5.29398 7.49449L6.20148 9.36799L11.3495 8.01199C11.9975 7.84249 12.5735 7.36999 12.9995 6.72499H12.998ZM7.06098 7.35949L7.21098 7.55149L10.9685 6.56149C11.1665 6.51049 11.465 6.32449 11.747 5.89849C11.8966 5.67038 12.0537 5.44726 12.218 5.22949L10.307 3.91999C9.90826 3.64641 9.43604 3.49998 8.95248 3.49999C6.96498 3.49999 5.84148 5.78749 7.06098 7.35949Z" fill="#1877F2"/>
</g>
</mask>
<g mask="url(#mask0_419_1429)">
<rect x="0.544983" y="0.5" width="24" height="24" fill="#637381"/>
</g>
<defs>
<clipPath id="clip0_419_1429">
<rect width="24" height="24" fill="white" transform="translate(0.544983 0.5)"/>
</clipPath>
</defs>
</svg>
