<svg width="25" height="25" viewBox="0 0 25 25" fill="none" xmlns="http://www.w3.org/2000/svg">
<mask id="mask0_419_1626" style="mask-type:alpha" maskUnits="userSpaceOnUse" x="0" y="0" width="25" height="25">
<g clip-path="url(#clip0_419_1626)">
<path opacity="0.32" fill-rule="evenodd" clip-rule="evenodd" d="M4.66817 2.74369C5.86268 2.62083 7.84973 2.5 11.045 2.5C14.2402 2.5 16.2273 2.62083 17.4218 2.74369C18.4422 2.84863 19.1848 3.60549 19.3022 4.62444C19.4247 5.68775 19.545 7.2933 19.545 9.5C19.545 11.7067 19.4247 13.3123 19.3022 14.3756C19.1848 15.3945 18.4423 16.1514 17.422 16.2563C16.367 16.3648 14.6939 16.4717 12.116 16.4952C11.7164 16.4989 11.3325 16.6592 11.052 16.9437L9.36098 18.6584C8.62683 19.4029 7.35748 18.9707 7.23028 17.9328L7.09643 16.8414C7.06673 16.599 6.86468 16.4137 6.62088 16.4011C5.81043 16.359 5.17 16.3079 4.66895 16.2564C3.64863 16.1515 2.9052 15.3945 2.78776 14.3756C2.66521 13.3123 2.54498 11.7067 2.54498 9.5C2.54498 7.2933 2.66521 5.68775 2.78776 4.62444C2.9052 3.60549 3.64785 2.84863 4.66817 2.74369ZM7.54498 6.5C6.99268 6.5 6.54498 6.9477 6.54498 7.5C6.54498 8.0523 6.99268 8.5 7.54498 8.5H14.545C15.0973 8.5 15.545 8.0523 15.545 7.5C15.545 6.9477 15.0973 6.5 14.545 6.5H7.54498ZM7.54498 11C6.99268 11 6.54498 11.4477 6.54498 12C6.54498 12.5523 6.99268 13 7.54498 13H11.545C12.0973 13 12.545 12.5523 12.545 12C12.545 11.4477 12.0973 11 11.545 11H7.54498Z" fill="#1877F2"/>
<path d="M6.54425 7.5C6.54425 6.9477 6.99195 6.5 7.54425 6.5H14.5443C15.0966 6.5 15.5443 6.9477 15.5443 7.5C15.5443 8.0523 15.0966 8.5 14.5443 8.5H7.54425C6.99195 8.5 6.54425 8.0523 6.54425 7.5Z" fill="#1877F2"/>
<path d="M6.54425 12C6.54425 11.4477 6.99195 11 7.54425 11H11.5443C12.0966 11 12.5443 11.4477 12.5443 12C12.5443 12.5523 12.0966 13 11.5443 13H7.54425C6.99195 13 6.54425 12.5523 6.54425 12Z" fill="#1877F2"/>
<path d="M10.5709 17.4308L11.0513 16.9437C11.3318 16.6592 11.7157 16.4989 12.1153 16.4952C14.6931 16.4717 16.3663 16.3648 17.4213 16.2563C18.4416 16.1514 19.1841 15.3945 19.3015 14.3755C19.3815 13.6809 19.4606 12.7547 19.5058 11.5808C20.0126 11.6109 20.4117 11.6462 20.7225 11.6811C21.348 11.7514 21.8067 12.2033 21.8845 12.8279C21.9658 13.4808 22.0443 14.4995 22.0443 16C22.0443 17.5005 21.9658 18.5192 21.8845 19.1721C21.8067 19.7967 21.3474 20.2486 20.7219 20.3189C20.3038 20.3659 19.7261 20.4136 18.9414 20.4483C18.7094 20.4585 18.5125 20.6252 18.4676 20.8531L18.2969 21.719C18.1849 22.2868 17.4991 22.5192 17.065 22.1364L15.6164 20.8589C15.3481 20.6223 15.0028 20.4901 14.6451 20.4816C13.3302 20.4504 12.4462 20.384 11.8675 20.319C11.242 20.2488 10.7819 19.7967 10.7041 19.1721C10.6518 18.7528 10.6008 18.1826 10.5709 17.4308Z" fill="#1877F2"/>
</g>
</mask>
<g mask="url(#mask0_419_1626)">
<rect x="0.544983" y="0.5" width="24" height="24" fill="#637381"/>
</g>
<defs>
<clipPath id="clip0_419_1626">
<rect width="24" height="24" fill="white" transform="translate(0.544983 0.5)"/>
</clipPath>
</defs>
</svg>
