<svg width="25" height="25" viewBox="0 0 25 25" fill="none" xmlns="http://www.w3.org/2000/svg">
<mask id="mask0_419_1604" style="mask-type:alpha" maskUnits="userSpaceOnUse" x="0" y="0" width="25" height="25">
<g clip-path="url(#clip0_419_1604)">
<path opacity="0.32" d="M4.54498 10.455V5.5C4.54498 3.84315 5.88813 2.5 7.54498 2.5H17.545C19.2018 2.5 20.545 3.84315 20.545 5.5V10.455C20.545 11.1097 20.2269 11.7218 19.6793 12.0806C17.9867 13.1896 14.255 15.5 12.545 15.5C10.835 15.5 7.10333 13.1896 5.41069 12.0806C4.86306 11.7218 4.54498 11.1097 4.54498 10.455Z" fill="#1877F2"/>
<path d="M4.54401 6.75098C4.03451 7.12917 3.58424 7.47505 3.22295 7.75758C2.62096 8.22833 2.2436 8.92258 2.19267 9.68508C2.12338 10.7227 2.04401 12.4645 2.04401 15C2.04401 17.3978 2.18597 19.0858 2.31861 20.1396C2.42797 21.0085 3.0097 21.6975 3.8674 21.8746C5.24264 22.1585 7.86871 22.5 12.544 22.5C17.2193 22.5 19.8454 22.1585 21.2206 21.8746C22.0783 21.6975 22.6601 21.0085 22.7694 20.1396C22.9021 19.0858 23.044 17.3978 23.044 15C23.044 12.4645 22.9647 10.7227 22.8954 9.68508C22.8444 8.92258 22.4671 8.22833 21.8651 7.75758C21.5038 7.47505 21.0535 7.12917 20.544 6.75098V10.4549C20.544 11.1097 20.2259 11.7218 19.6783 12.0806C17.9857 13.1896 14.254 15.5 12.544 15.5C10.834 15.5 7.10236 13.1896 5.40972 12.0806C4.86209 11.7218 4.54401 11.1097 4.54401 10.4549V6.75098Z" fill="#1877F2"/>
<path d="M7.54401 6.25C7.54401 5.8358 7.87981 5.5 8.29401 5.5H12.794C13.2082 5.5 13.544 5.8358 13.544 6.25C13.544 6.6642 13.2082 7 12.794 7H8.29401C7.87981 7 7.54401 6.6642 7.54401 6.25Z" fill="#1877F2"/>
<path d="M7.54401 9.75C7.54401 9.3358 7.87981 9 8.29401 9H15.794C16.2082 9 16.544 9.3358 16.544 9.75C16.544 10.1642 16.2082 10.5 15.794 10.5H8.29401C7.87981 10.5 7.54401 10.1642 7.54401 9.75Z" fill="#1877F2"/>
</g>
</mask>
<g mask="url(#mask0_419_1604)">
<rect x="0.544983" y="0.5" width="24" height="24" fill="#637381"/>
</g>
<defs>
<clipPath id="clip0_419_1604">
<rect width="24" height="24" fill="white" transform="translate(0.544983 0.5)"/>
</clipPath>
</defs>
</svg>
