<svg width="25" height="25" viewBox="0 0 25 25" fill="none" xmlns="http://www.w3.org/2000/svg">
<mask id="mask0_419_1556" style="mask-type:alpha" maskUnits="userSpaceOnUse" x="0" y="0" width="25" height="25">
<g clip-path="url(#clip0_419_1556)">
<path opacity="0.32" d="M2.70698 9C2.54498 10.103 2.54498 11.55 2.54498 13.5C2.54498 17.271 2.54498 19.157 3.71698 20.328C4.88798 21.5 6.77398 21.5 10.545 21.5H14.545C18.316 21.5 20.202 21.5 21.373 20.328C22.545 19.157 22.545 17.271 22.545 13.5C22.545 11.55 22.545 10.103 22.383 9C20.106 10.48 18.647 11.423 17.295 12.005V12.5C17.2961 12.5985 17.2777 12.6962 17.241 12.7876C17.2043 12.879 17.1499 12.9623 17.081 13.0327C16.9418 13.1748 16.7519 13.2559 16.553 13.258C16.3541 13.2601 16.1625 13.1831 16.0203 13.044C15.8782 12.9048 15.7971 12.7149 15.795 12.516C13.6647 13.0776 11.4253 13.0776 9.29498 12.516C9.29286 12.7149 9.21181 12.9048 9.06965 13.044C8.9275 13.1831 8.73589 13.2601 8.53698 13.258C8.33807 13.2559 8.14815 13.1748 8.00899 13.0327C7.86984 12.8905 7.79286 12.6989 7.79498 12.5V12.004C6.44298 11.424 4.98498 10.48 2.70698 9Z" fill="#1877F2"/>
<path fill-rule="evenodd" clip-rule="evenodd" d="M11.126 2.74999H11.106C10.992 2.74999 10.904 2.74999 10.82 2.75499C10.3004 2.78658 9.80048 2.96498 9.37829 3.26945C8.95609 3.57392 8.62899 3.99197 8.43498 4.47499C8.39236 4.58839 8.35235 4.70276 8.31498 4.81799L8.31098 4.82999C8.20783 5.10265 8.03344 5.34265 7.80598 5.52499C7.57898 5.53299 7.36198 5.54199 7.15398 5.55499C5.50998 5.65099 4.46698 5.92099 3.71598 6.67199C3.47198 6.91599 3.27798 7.19199 3.12598 7.50999C3.18444 7.53005 3.2402 7.55726 3.29198 7.59099C5.39198 8.95599 6.71198 9.81099 7.80798 10.358C7.84266 10.1742 7.94479 10.0099 8.09434 9.89749C8.24388 9.78507 8.43005 9.73261 8.61629 9.75039C8.80252 9.76818 8.97539 9.85493 9.10096 9.99361C9.22653 10.1323 9.29573 10.3129 9.29498 10.5V10.958C11.415 11.598 13.675 11.598 15.795 10.958V10.5C15.7955 10.3138 15.8653 10.1345 15.9908 9.99692C16.1162 9.85933 16.2883 9.77332 16.4736 9.75561C16.659 9.7379 16.8443 9.78976 16.9935 9.9011C17.1427 10.0124 17.2452 10.1753 17.281 10.358C18.378 9.80999 19.698 8.95599 21.798 7.59099C21.8501 7.55722 21.9062 7.53001 21.965 7.50999C21.8169 7.19896 21.6166 6.91554 21.373 6.67199C20.623 5.92199 19.58 5.65199 17.936 5.55399C17.739 5.54299 17.533 5.53399 17.318 5.52599C17.0664 5.32098 16.8721 5.05433 16.754 4.75199L16.75 4.74299C16.714 4.63599 16.686 4.55199 16.655 4.47399C16.4608 3.99116 16.1337 3.57332 15.7115 3.26903C15.2893 2.96474 14.7895 2.78649 14.27 2.75499C14.1747 2.7505 14.0794 2.74883 13.984 2.74999H11.126ZM15.363 5.31599L15.358 5.30499L15.353 5.29299L15.348 5.28099L15.345 5.27099L15.343 5.26599L15.339 5.25399L15.335 5.24199L15.333 5.23599L15.33 5.22799L15.328 5.22099L15.326 5.21499C15.3065 5.15414 15.2855 5.09378 15.263 5.03399C15.1748 4.81442 15.0262 4.62437 14.8343 4.48594C14.6424 4.34751 14.4152 4.26638 14.179 4.25199C14.1074 4.24949 14.0357 4.24882 13.964 4.24999H11.126C10.983 4.24999 10.943 4.24999 10.911 4.25199C10.6748 4.26638 10.4476 4.34751 10.2557 4.48594C10.0638 4.62437 9.91513 4.81442 9.82698 5.03399L9.82398 5.04099L9.81598 5.06199C9.7883 5.13808 9.76229 5.21476 9.73798 5.29199L9.73698 5.29799L9.73398 5.30499L9.73198 5.31299L9.72998 5.31899L9.72598 5.33099L9.72098 5.34299L9.71998 5.34799L9.71598 5.35799L9.71098 5.36999L9.70698 5.38199L9.70198 5.39199C9.68805 5.42829 9.67338 5.4653 9.65798 5.50099L10.545 5.49999H15.441C15.4126 5.43955 15.3873 5.37818 15.363 5.31599Z" fill="#1877F2"/>
</g>
</mask>
<g mask="url(#mask0_419_1556)">
<rect x="0.544983" y="0.5" width="24" height="24" fill="#637381"/>
</g>
<defs>
<clipPath id="clip0_419_1556">
<rect width="24" height="24" fill="white" transform="translate(0.544983 0.5)"/>
</clipPath>
</defs>
</svg>
