<svg width="25" height="25" viewBox="0 0 25 25" fill="none" xmlns="http://www.w3.org/2000/svg">
<mask id="mask0_419_1443" style="mask-type:alpha" maskUnits="userSpaceOnUse" x="0" y="0" width="25" height="25">
<g clip-path="url(#clip0_419_1443)">
<path opacity="0.32" fill-rule="evenodd" clip-rule="evenodd" d="M21.4564 8.72695C20.0167 9.0891 18.3168 9.11315 16.8485 8.6646C16.2278 8.47495 15.7438 7.9914 15.5343 7.3771C15.0124 5.84677 14.8835 3.97362 15.267 2.5318C14.4729 2.51186 13.5698 2.5 12.545 2.5C9.06073 2.5 6.98443 2.63682 5.80783 2.76379C4.93614 2.85785 4.264 3.44826 4.10078 4.30967C3.84673 5.65055 3.54498 8.15725 3.54498 12.5C3.54498 16.8428 3.84673 19.3494 4.10078 20.6903C4.264 21.5518 4.93614 22.1422 5.80783 22.2362C6.98443 22.3631 9.06073 22.5 12.545 22.5C16.0293 22.5 18.1056 22.3631 19.2822 22.2362C20.1539 22.1422 20.826 21.5518 20.9892 20.6903C21.2432 19.3494 21.545 16.8428 21.545 12.5C21.545 11.0445 21.5111 9.7952 21.4564 8.72695ZM8.54498 13.5C7.99268 13.5 7.54498 13.0523 7.54498 12.5C7.54498 11.9477 7.99268 11.5 8.54498 11.5H12.545C13.0973 11.5 13.545 11.9477 13.545 12.5C13.545 13.0523 13.0973 13.5 12.545 13.5H8.54498ZM8.54498 18C7.99268 18 7.54498 17.5523 7.54498 17C7.54498 16.4477 7.99268 16 8.54498 16H15.545C16.0973 16 16.545 16.4477 16.545 17C16.545 17.5523 16.0973 18 15.545 18H8.54498Z" fill="#1877F2"/>
<path d="M7.54498 17C7.54498 17.5523 7.99268 18 8.54498 18H15.545C16.0973 18 16.545 17.5523 16.545 17C16.545 16.4477 16.0973 16 15.545 16H8.54498C7.99268 16 7.54498 16.4477 7.54498 17Z" fill="#1877F2"/>
<path d="M7.54498 12.5C7.54498 13.0523 7.99268 13.5 8.54498 13.5H12.545C13.0973 13.5 13.545 13.0523 13.545 12.5C13.545 11.9477 13.0973 11.5 12.545 11.5H8.54498C7.99268 11.5 7.54498 11.9477 7.54498 12.5Z" fill="#1877F2"/>
<path d="M21.4564 8.72695C20.0167 9.0891 18.3168 9.11315 16.8486 8.6646C16.2278 8.47495 15.7438 7.9914 15.5343 7.3771C15.0124 5.84675 14.8834 3.97357 15.267 2.53174C15.267 2.53174 16.4911 2.99994 18.7411 5.24994C20.9911 7.49995 21.4564 8.72695 21.4564 8.72695Z" fill="#1877F2"/>
</g>
</mask>
<g mask="url(#mask0_419_1443)">
<rect x="0.544983" y="0.5" width="24" height="24" fill="#637381"/>
</g>
<defs>
<clipPath id="clip0_419_1443">
<rect width="24" height="24" fill="white" transform="translate(0.544983 0.5)"/>
</clipPath>
</defs>
</svg>
