<svg width="25" height="25" viewBox="0 0 25 25" fill="none" xmlns="http://www.w3.org/2000/svg">
<mask id="mask0_419_1695" style="mask-type:alpha" maskUnits="userSpaceOnUse" x="0" y="0" width="25" height="25">
<g clip-path="url(#clip0_419_1695)">
<path opacity="0.32" d="M15.8248 5H5.26518C4.31667 5 3.54498 5.56057 3.54498 6.25042C3.54498 6.93943 4.31667 7.5 5.26518 7.5H15.8248C16.7733 7.5 17.545 6.93943 17.545 6.25042C17.545 5.56054 16.7733 5 15.8248 5Z" fill="#1877F2"/>
<path d="M19.8248 11.25H9.26518C8.31667 11.25 7.54498 11.8106 7.54498 12.5004C7.54498 13.1894 8.31667 13.75 9.26518 13.75H19.8248C20.7733 13.75 21.545 13.1894 21.545 12.5004C21.545 11.8105 20.7733 11.25 19.8248 11.25Z" fill="#1877F2"/>
<path d="M15.8248 17.5H5.26518C4.31667 17.5 3.54498 18.0606 3.54498 18.7504C3.54498 19.4394 4.31667 20 5.26518 20H15.8248C16.7733 20 17.545 19.4394 17.545 18.7504C17.545 18.0606 16.7733 17.5 15.8248 17.5Z" fill="#1877F2"/>
</g>
</mask>
<g mask="url(#mask0_419_1695)">
<rect x="0.544983" y="0.5" width="24" height="24" fill="#637381"/>
</g>
<defs>
<clipPath id="clip0_419_1695">
<rect width="24" height="24" fill="white" transform="translate(0.544983 0.5)"/>
</clipPath>
</defs>
</svg>
