<svg width="25" height="25" viewBox="0 0 25 25" fill="none" xmlns="http://www.w3.org/2000/svg">
<mask id="mask0_419_1573" style="mask-type:alpha" maskUnits="userSpaceOnUse" x="0" y="0" width="25" height="25">
<g clip-path="url(#clip0_419_1573)">
<path opacity="0.32" d="M12.545 22.5C18.0678 22.5 22.545 20.933 22.545 19C22.545 17.067 18.0678 15.5 12.545 15.5C7.02213 15.5 2.54498 17.067 2.54498 19C2.54498 20.933 7.02213 22.5 12.545 22.5Z" fill="#1877F2"/>
<path d="M12.545 1.75C12.7439 1.75 12.9347 1.82902 13.0753 1.96967C13.216 2.11032 13.295 2.30109 13.295 2.5V3.536L18.303 6.04L18.357 6.067C19.091 6.434 19.717 6.747 20.153 7.051C20.595 7.36 21.059 7.807 21.059 8.5C21.059 9.193 20.595 9.64 20.153 9.949C19.717 10.253 19.091 10.566 18.357 10.933L13.295 13.463V18.5C13.295 18.6989 13.216 18.8897 13.0753 19.0303C12.9347 19.171 12.7439 19.25 12.545 19.25C12.3461 19.25 12.1553 19.171 12.0147 19.0303C11.874 18.8897 11.795 18.6989 11.795 18.5V2.5C11.795 2.30109 11.874 2.11032 12.0147 1.96967C12.1553 1.82902 12.3461 1.75 12.545 1.75Z" fill="#1877F2"/>
</g>
</mask>
<g mask="url(#mask0_419_1573)">
<rect x="0.544983" y="0.5" width="24" height="24" fill="#637381"/>
</g>
<defs>
<clipPath id="clip0_419_1573">
<rect width="24" height="24" fill="white" transform="translate(0.544983 0.5)"/>
</clipPath>
</defs>
</svg>
