<svg width="25" height="25" viewBox="0 0 25 25" fill="none" xmlns="http://www.w3.org/2000/svg">
<mask id="mask0_419_1465" style="mask-type:alpha" maskUnits="userSpaceOnUse" x="0" y="0" width="25" height="25">
<g clip-path="url(#clip0_419_1465)">
<path opacity="0.32" d="M2.82597 20.1575C2.91464 21.0161 3.47759 21.6957 4.32186 21.8755C5.65448 22.1592 8.16658 22.5 12.545 22.5C16.9234 22.5 19.4355 22.1592 20.7682 21.8755C21.6124 21.6957 22.1753 21.0161 22.264 20.1575C22.3955 18.8844 22.545 16.5469 22.545 12.5C22.545 8.45305 22.3955 6.1156 22.264 4.84251C22.1753 3.98389 21.6124 3.30424 20.7681 3.12451C19.4355 2.84081 16.9234 2.5 12.545 2.5C8.16658 2.5 5.65448 2.84081 4.32186 3.12451C3.47759 3.30424 2.91464 3.98389 2.82597 4.84251C2.6945 6.1156 2.54498 8.45305 2.54498 12.5C2.54498 16.5469 2.6945 18.8844 2.82597 20.1575Z" fill="#1877F2"/>
<path d="M14.4832 14.3559C15.808 13.6583 16.7113 12.2679 16.7113 10.6666C16.7113 8.3655 14.8458 6.5 12.5446 6.5C10.2434 6.5 8.37789 8.3655 8.37789 10.6666C8.37789 12.268 9.28124 13.6584 10.6062 14.356C8.83189 15.032 7.47714 16.6092 7.05749 18.5529C6.99944 18.8219 7.14744 19.0981 7.41839 19.1471C8.39079 19.3231 10.0011 19.5 12.5456 19.5C15.09 19.5 16.7004 19.3231 17.6728 19.1471C17.9427 19.0983 18.0904 18.8231 18.0326 18.5551C17.6135 16.6103 16.2583 15.0321 14.4832 14.3559Z" fill="#1877F2"/>
</g>
</mask>
<g mask="url(#mask0_419_1465)">
<rect x="0.544983" y="0.5" width="24" height="24" fill="#637381"/>
</g>
<defs>
<clipPath id="clip0_419_1465">
<rect width="24" height="24" fill="white" transform="translate(0.544983 0.5)"/>
</clipPath>
</defs>
</svg>
