<svg width="25" height="25" viewBox="0 0 25 25" fill="none" xmlns="http://www.w3.org/2000/svg">
<mask id="mask0_419_1727" style="mask-type:alpha" maskUnits="userSpaceOnUse" x="0" y="0" width="25" height="25">
<g clip-path="url(#clip0_419_1727)">
<path opacity="0.32" fill-rule="evenodd" clip-rule="evenodd" d="M2.04498 12.5C2.04498 18.299 6.74599 23 12.545 23C18.344 23 23.045 18.299 23.045 12.5C23.045 6.70101 18.344 2 12.545 2C6.74599 2 2.04498 6.70101 2.04498 12.5ZM13.4941 6.30725C13.0951 5.56425 11.9949 5.56425 11.596 6.30725L10.0936 9.10535L6.9085 9.7112C6.0943 9.86605 5.7652 10.819 6.32005 11.4151L8.5786 13.8415L8.16375 17.0888C8.0593 17.9065 8.93925 18.5073 9.70225 18.1394L12.545 16.7687L15.3878 18.1394C16.1508 18.5073 17.0307 17.9065 16.9263 17.0888L16.5114 13.8415L18.77 11.4151C19.3248 10.819 18.9957 9.86605 18.1815 9.7112L14.9964 9.10535L13.4941 6.30725Z" fill="#1877F2"/>
<path d="M11.5959 6.30725C11.9949 5.56425 13.0951 5.56425 13.494 6.30725L14.9964 9.10535L18.1815 9.7112C18.9957 9.86605 19.3248 10.819 18.7699 11.4151L16.5114 13.8415L16.9262 17.0888C17.0307 17.9065 16.1507 18.5073 15.3877 18.1394L12.545 16.7687L9.70225 18.1394C8.93925 18.5073 8.0593 17.9065 8.16375 17.0888L8.5786 13.8415L6.32005 11.4151C5.7652 10.819 6.0943 9.86605 6.9085 9.7112L10.0936 9.10535L11.5959 6.30725Z" fill="#1877F2"/>
</g>
</mask>
<g mask="url(#mask0_419_1727)">
<rect x="0.544983" y="0.5" width="24" height="24" fill="#637381"/>
</g>
<defs>
<clipPath id="clip0_419_1727">
<rect width="24" height="24" fill="white" transform="translate(0.544983 0.5)"/>
</clipPath>
</defs>
</svg>
