<svg width="25" height="25" viewBox="0 0 25 25" fill="none" xmlns="http://www.w3.org/2000/svg">
<mask id="mask0_419_1678" style="mask-type:alpha" maskUnits="userSpaceOnUse" x="0" y="0" width="25" height="25">
<g clip-path="url(#clip0_419_1678)">
<path opacity="0.32" d="M2.87192 4.78658C2.96746 3.96288 3.46718 3.28287 4.27685 3.10381C5.53978 2.82451 7.98773 2.5 12.545 2.5C17.1023 2.5 19.5502 2.82451 20.8132 3.10381C21.6228 3.28287 22.1225 3.96288 22.218 4.78658C22.3625 6.0322 22.545 8.08365 22.545 10.5C22.545 15.0142 20.1625 19.2382 16.1487 21.3039C14.8079 21.994 13.4993 22.5 12.545 22.5C11.5907 22.5 10.2821 21.994 8.94128 21.3039C4.92745 19.2382 2.54498 15.0142 2.54498 10.5C2.54498 8.08365 2.72745 6.0322 2.87192 4.78658Z" fill="#1877F2"/>
<path fill-rule="evenodd" clip-rule="evenodd" d="M9.66603 8.2538C9.73448 6.71355 11.0032 5.5 12.545 5.5C14.0868 5.5 15.3555 6.71355 15.424 8.2538L15.4836 9.5968L15.5526 9.60265C16.3552 9.672 16.9218 10.2301 16.9827 11.0334C17.0185 11.5057 17.045 12.1444 17.045 13C17.045 13.8556 17.0185 14.4943 16.9827 14.9666C16.9218 15.7699 16.3552 16.328 15.5526 16.3974C14.9046 16.4534 13.9447 16.5 12.545 16.5C11.1453 16.5 10.1854 16.4534 9.53738 16.3974C8.73473 16.328 8.16823 15.7699 8.10733 14.9666C8.07153 14.4943 8.04498 13.8556 8.04498 13C8.04498 12.2185 8.06398 11.6179 8.09063 11.1598C8.14128 10.2902 8.74173 9.6729 9.60638 9.5959L9.66603 8.2538ZM13.4259 8.3426L13.4777 9.50755C13.1909 9.5027 12.8806 9.5 12.545 9.5C12.2098 9.5 11.8994 9.5027 11.6123 9.5075L11.6641 8.34265C11.685 7.8713 12.0733 7.5 12.545 7.5C13.0167 7.5 13.405 7.8713 13.4259 8.3426ZM13.545 12.5C13.545 12.9089 13.2995 13.2605 12.948 13.4155L13.0184 14.0415C13.0358 14.1962 13.0105 14.3652 12.8708 14.4338C12.7951 14.4709 12.6896 14.5 12.545 14.5C12.4004 14.5 12.2949 14.4709 12.2192 14.4338C12.0795 14.3652 12.0542 14.1962 12.0716 14.0415L12.142 13.4155C11.7905 13.2605 11.545 12.9089 11.545 12.5C11.545 11.9477 11.9927 11.5 12.545 11.5C13.0973 11.5 13.545 11.9477 13.545 12.5Z" fill="#1877F2"/>
</g>
</mask>
<g mask="url(#mask0_419_1678)">
<rect x="0.544983" y="0.5" width="24" height="24" fill="#637381"/>
</g>
<defs>
<clipPath id="clip0_419_1678">
<rect width="24" height="24" fill="white" transform="translate(0.544983 0.5)"/>
</clipPath>
</defs>
</svg>
