<svg width="25" height="25" viewBox="0 0 25 25" fill="none" xmlns="http://www.w3.org/2000/svg">
<mask id="mask0_419_1657" style="mask-type:alpha" maskUnits="userSpaceOnUse" x="0" y="0" width="25" height="25">
<g clip-path="url(#clip0_419_1657)">
<path opacity="0.32" d="M22.545 11C22.545 13.7058 22.4718 15.8259 22.4046 17.2018C22.3589 18.1385 21.4516 18.811 20.5221 18.6857C18.9981 18.4803 16.4241 18.25 12.545 18.25C8.66588 18.25 6.09193 18.4803 4.56783 18.6857C3.63839 18.811 2.73112 18.1385 2.68537 17.2018C2.61819 15.8259 2.54498 13.7058 2.54498 11C2.54498 8.29427 2.61819 6.17417 2.68537 4.79829C2.73112 3.86156 3.63839 3.18909 4.56783 3.31433C6.09193 3.5197 8.66588 3.75002 12.545 3.75002C16.4241 3.75002 18.9981 3.5197 20.5221 3.31433C21.4516 3.18909 22.3589 3.86156 22.4046 4.79829C22.4718 6.17417 22.545 8.29427 22.545 11Z" fill="#1877F2"/>
<path d="M6.13594 18.5097C5.82883 19.2424 5.49077 20.1106 5.20166 21.0001C5.11348 21.2714 5.27767 21.5577 5.5616 21.5853C6.0259 21.6304 6.5211 21.6092 6.9006 21.5767C7.3137 21.5413 7.6767 21.305 7.90155 20.9567C8.492 20.0421 9.06379 19.0894 9.52366 18.3008C8.17571 18.3484 7.05313 18.4246 6.13594 18.5097Z" fill="#1877F2"/>
<path d="M15.567 18.3009C16.0268 19.0895 16.5986 20.0421 17.1891 20.9567C17.4139 21.305 17.7769 21.5413 18.19 21.5767C18.5695 21.6092 19.0647 21.6304 19.529 21.5853C19.813 21.5577 19.9771 21.2714 19.889 21.0001C19.5999 20.1106 19.2618 19.2424 18.9547 18.5097C18.0375 18.4247 16.915 18.3484 15.567 18.3009Z" fill="#1877F2"/>
</g>
</mask>
<g mask="url(#mask0_419_1657)">
<rect x="0.544983" y="0.5" width="24" height="24" fill="#637381"/>
</g>
<defs>
<clipPath id="clip0_419_1657">
<rect width="24" height="24" fill="white" transform="translate(0.544983 0.5)"/>
</clipPath>
</defs>
</svg>
