<svg width="25" height="25" viewBox="0 0 25 25" fill="none" xmlns="http://www.w3.org/2000/svg">
<mask id="mask0_419_1537" style="mask-type:alpha" maskUnits="userSpaceOnUse" x="0" y="0" width="25" height="25">
<g clip-path="url(#clip0_419_1537)">
<g opacity="0.32">
<path d="M21.545 8.5H13.545C13.2798 8.5 13.0254 8.39464 12.8379 8.20711C12.6504 8.01957 12.545 7.76522 12.545 7.5C12.545 7.23478 12.6504 6.98043 12.8379 6.79289C13.0254 6.60536 13.2798 6.5 13.545 6.5H21.545C21.8102 6.5 22.0646 6.60536 22.2521 6.79289C22.4396 6.98043 22.545 7.23478 22.545 7.5C22.545 7.76522 22.4396 8.01957 22.2521 8.20711C22.0646 8.39464 21.8102 8.5 21.545 8.5ZM21.545 12.5H13.545C13.2798 12.5 13.0254 12.3946 12.8379 12.2071C12.6504 12.0196 12.545 11.7652 12.545 11.5C12.545 11.2348 12.6504 10.9804 12.8379 10.7929C13.0254 10.6054 13.2798 10.5 13.545 10.5H21.545C21.8102 10.5 22.0646 10.6054 22.2521 10.7929C22.4396 10.9804 22.545 11.2348 22.545 11.5C22.545 11.7652 22.4396 12.0196 22.2521 12.2071C22.0646 12.3946 21.8102 12.5 21.545 12.5Z" fill="#1877F2"/>
<path d="M21.545 16.5H3.54498C3.27976 16.5 3.02541 16.3946 2.83787 16.2071C2.65034 16.0196 2.54498 15.7652 2.54498 15.5C2.54498 15.2348 2.65034 14.9804 2.83787 14.7929C3.02541 14.6054 3.27976 14.5 3.54498 14.5H21.545C21.8102 14.5 22.0646 14.6054 22.2521 14.7929C22.4396 14.9804 22.545 15.2348 22.545 15.5C22.545 15.7652 22.4396 16.0196 22.2521 16.2071C22.0646 16.3946 21.8102 16.5 21.545 16.5ZM13.545 20.5H3.54498C3.27976 20.5 3.02541 20.3946 2.83787 20.2071C2.65034 20.0196 2.54498 19.7652 2.54498 19.5C2.54498 19.2348 2.65034 18.9804 2.83787 18.7929C3.02541 18.6054 3.27976 18.5 3.54498 18.5H13.545C13.8102 18.5 14.0646 18.6054 14.2521 18.7929C14.4396 18.9804 14.545 19.2348 14.545 19.5C14.545 19.7652 14.4396 20.0196 14.2521 20.2071C14.0646 20.3946 13.8102 20.5 13.545 20.5Z" fill="#1877F2"/>
</g>
<path d="M8.54498 4.5H4.54498C3.44041 4.5 2.54498 5.39543 2.54498 6.5V10.5C2.54498 11.6046 3.44041 12.5 4.54498 12.5H8.54498C9.64955 12.5 10.545 11.6046 10.545 10.5V6.5C10.545 5.39543 9.64955 4.5 8.54498 4.5Z" fill="#1877F2"/>
</g>
</mask>
<g mask="url(#mask0_419_1537)">
<rect x="0.544983" y="0.5" width="24" height="24" fill="#637381"/>
</g>
<defs>
<clipPath id="clip0_419_1537">
<rect width="24" height="24" fill="white" transform="translate(0.544983 0.5)"/>
</clipPath>
</defs>
</svg>
