<svg width="25" height="25" viewBox="0 0 25 25" fill="none" xmlns="http://www.w3.org/2000/svg">
<mask id="mask0_419_1519" style="mask-type:alpha" maskUnits="userSpaceOnUse" x="0" y="0" width="25" height="25">
<g clip-path="url(#clip0_419_1519)">
<path opacity="0.32" fill-rule="evenodd" clip-rule="evenodd" d="M18.3006 2.80079C17.8969 2.61371 17.6622 2.58917 17.6082 2.58595C16.311 2.53476 14.6535 2.5 12.544 2.5C8.26936 2.5 5.85056 2.64276 4.52473 2.77571C3.58518 2.86993 2.91394 3.54117 2.81972 4.48072C2.68677 5.80655 2.54401 8.22535 2.54401 12.5C2.54401 17.1448 2.71256 20.104 2.85393 21.7694C2.91928 22.539 3.79044 22.878 4.38386 22.3834L6.04401 21L7.41111 22.3671C7.77141 22.7274 8.34501 22.7592 8.74291 22.4408L10.544 21L11.8369 22.2929C12.2274 22.6834 12.8606 22.6834 13.2511 22.2929L14.544 21L16.3451 22.4408C16.743 22.7592 17.3166 22.7274 17.6769 22.3671L19.044 21L20.7042 22.3834C21.2976 22.878 22.1688 22.539 22.2341 21.7694C22.3755 20.104 22.544 17.1448 22.544 12.5C22.544 10.3729 22.5087 8.70528 22.4568 7.40321C22.0193 7.45701 21.4011 7.50045 20.545 7.50045C19.9155 7.50045 19.4146 7.47695 19.0196 7.44315C18.1596 7.3695 17.6009 6.71195 17.5678 5.8494C17.5542 5.49245 17.545 5.04875 17.545 4.50045C17.545 3.61398 17.5689 3.00092 17.5972 2.58594C17.5972 2.58594 17.8375 2.58635 18.3006 2.80079ZM12.2039 15.7672C12.7481 15.7672 13.1412 15.6752 13.3831 15.4912C13.6351 15.3072 13.7611 15.0817 13.7611 14.8149C13.7611 14.5757 13.6653 14.3825 13.4738 14.2352C13.2823 14.088 12.9951 13.9592 12.6121 13.8488L11.7805 13.6004C11.3673 13.4807 10.9943 13.3519 10.6617 13.2139C10.3291 13.0759 10.0469 12.9103 9.81506 12.717C9.58326 12.5238 9.40181 12.2938 9.27081 12.027C9.13976 11.7601 9.07426 11.4427 9.07426 11.0746C9.07426 10.449 9.28591 9.9291 9.70926 9.51505C10.1326 9.101 10.7373 8.82495 11.5235 8.68695V8.2944C11.5235 7.8862 11.8063 7.5214 12.2141 7.50345C12.2665 7.50115 12.3186 7.5 12.3702 7.5C12.7431 7.5 13.0102 7.5598 13.1715 7.6794C13.3428 7.79905 13.4285 8.01525 13.4285 8.3281V8.63175C14.0735 8.69615 14.5977 8.83875 15.0008 9.0596C15.404 9.2712 15.6056 9.55185 15.6056 9.9015C15.6056 10.0572 15.5644 10.2015 15.4931 10.3323C15.3035 10.6803 14.8301 10.6546 14.4546 10.5279C14.3473 10.4916 14.232 10.4577 14.1088 10.426C13.7258 10.3156 13.3075 10.2604 12.854 10.2604C12.35 10.2604 11.972 10.3385 11.7201 10.495C11.4781 10.6422 11.3572 10.8354 11.3572 11.0746C11.3572 11.2679 11.4378 11.4243 11.5991 11.5439C11.7704 11.6635 12.0275 11.7739 12.3702 11.8751L13.2168 12.1098C14.1239 12.3674 14.8194 12.7078 15.3032 13.1311C15.7971 13.5543 16.044 14.1248 16.044 14.8425C16.044 15.4774 15.8223 16.0157 15.3788 16.4573C14.9353 16.8898 14.2852 17.1796 13.4285 17.3268V17.7056C13.4285 18.1138 13.1457 18.4786 12.7379 18.4965C12.6855 18.4988 12.6334 18.5 12.5818 18.5C12.2089 18.5 11.9368 18.4402 11.7654 18.3206C11.6041 18.2009 11.5235 17.9847 11.5235 17.6719V17.3958C10.7877 17.3222 10.188 17.1612 9.72436 16.9128C9.27081 16.6551 9.04401 16.3331 9.04401 15.9466C9.04401 15.7209 9.13066 15.5249 9.26966 15.3601C9.51851 15.0651 9.96161 15.1382 10.3045 15.3155C10.4507 15.3911 10.6101 15.4634 10.7827 15.5326C11.1959 15.689 11.6697 15.7672 12.2039 15.7672Z" fill="#1877F2"/>
<path d="M22.4578 7.4031C22.0202 7.45695 21.4017 7.50045 20.545 7.50045C19.9155 7.50045 19.4146 7.47695 19.0196 7.44315C18.1596 7.3695 17.6009 6.71195 17.5678 5.8494C17.5542 5.49245 17.545 5.04875 17.545 4.50045C17.545 3.61398 17.5689 3.00092 17.5972 2.58594C17.5972 2.58594 18.6322 2.58772 20.545 4.50045C22.4578 6.4132 22.4578 7.4031 22.4578 7.4031Z" fill="#1877F2"/>
<path d="M12.2049 15.7672C12.7491 15.7672 13.1422 15.6752 13.3841 15.4912C13.636 15.3072 13.762 15.0817 13.762 14.8149C13.762 14.5757 13.6663 14.3825 13.4748 14.2352C13.2833 14.088 12.9961 13.9592 12.6131 13.8488L11.7815 13.6004C11.3682 13.4807 10.9953 13.3519 10.6627 13.2139C10.3301 13.0759 10.0479 12.9103 9.81603 12.717C9.58423 12.5238 9.40278 12.2938 9.27178 12.027C9.14073 11.7601 9.07523 11.4427 9.07523 11.0746C9.07523 10.449 9.28688 9.9291 9.71023 9.51505C10.1335 9.101 10.7383 8.82495 11.5245 8.68695V8.2944C11.5245 7.8862 11.8073 7.5214 12.2151 7.50345C12.2675 7.50115 12.3195 7.5 12.3711 7.5C12.744 7.5 13.0111 7.5598 13.1724 7.6794C13.3438 7.79905 13.4294 8.01525 13.4294 8.3281V8.63175C14.0745 8.69615 14.5987 8.83875 15.0018 9.0596C15.405 9.2712 15.6066 9.55185 15.6066 9.9015C15.6066 10.0572 15.5653 10.2015 15.4941 10.3323C15.3044 10.6803 14.8311 10.6546 14.4556 10.5279C14.3482 10.4916 14.233 10.4577 14.1098 10.426C13.7268 10.3156 13.3085 10.2604 12.8549 10.2604C12.351 10.2604 11.973 10.3385 11.7211 10.495C11.4791 10.6422 11.3582 10.8354 11.3582 11.0746C11.3582 11.2679 11.4388 11.4243 11.6001 11.5439C11.7714 11.6635 12.0284 11.7739 12.3711 11.8751L13.2178 12.1098C14.1249 12.3674 14.8204 12.7078 15.3042 13.1311C15.7981 13.5543 16.045 14.1248 16.045 14.8425C16.045 15.4774 15.8233 16.0157 15.3798 16.4573C14.9363 16.8898 14.2862 17.1796 13.4294 17.3268V17.7056C13.4294 18.1138 13.1466 18.4786 12.7388 18.4965C12.6865 18.4988 12.6344 18.5 12.5828 18.5C12.2098 18.5 11.9378 18.4402 11.7664 18.3206C11.6051 18.2009 11.5245 17.9847 11.5245 17.6719V17.3958C10.7887 17.3222 10.189 17.1612 9.72533 16.9128C9.27178 16.6551 9.04498 16.3331 9.04498 15.9466C9.04498 15.7209 9.13163 15.5249 9.27063 15.3601C9.51948 15.0651 9.96258 15.1382 10.3054 15.3155C10.4517 15.3911 10.6111 15.4634 10.7837 15.5326C11.1969 15.689 11.6707 15.7672 12.2049 15.7672Z" fill="#1877F2"/>
</g>
</mask>
<g mask="url(#mask0_419_1519)">
<rect x="0.544983" y="0.5" width="24" height="24" fill="#637381"/>
</g>
<defs>
<clipPath id="clip0_419_1519">
<rect width="24" height="24" fill="white" transform="translate(0.544983 0.5)"/>
</clipPath>
</defs>
</svg>
