<svg width="41" height="41" viewBox="0 0 41 41" fill="none" xmlns="http://www.w3.org/2000/svg">
<path fill-rule="evenodd" clip-rule="evenodd" d="M14.855 22.8104L14.627 23.2243L14.3947 23.6433L14.1724 24.0413L13.9947 24.3572L13.824 24.6585L13.6282 25.0009L13.5032 25.2176L13.324 25.5254L13.2381 25.6714L13.1275 25.858L13.0474 25.9918L12.9445 26.1621L12.8703 26.2838L12.752 26.475L12.6844 26.5828L12.6193 26.6853L12.5566 26.7826L12.4965 26.8748L12.4387 26.9616L12.3657 27.0694L12.3138 27.1441L12.2806 27.191L12.2486 27.2357L12.2025 27.2982L12.1731 27.337L12.1312 27.3909L12.1178 27.4076C11.2772 28.4522 10.3603 29.243 9.23264 29.6994C6.86186 30.8136 3.91467 30.8657 1.63873 29.4881L7.29084 19.7473L7.50959 19.613C11.3578 17.3219 13.219 19.7002 14.855 22.8104Z" fill="url(#paint0_linear_419_1338)"/>
<path fill-rule="evenodd" clip-rule="evenodd" d="M35.2567 18.4473C31.6419 12.1227 27.9051 6.1639 23.6127 14.9048C23.0255 16.0286 22.5975 18.2124 21.6387 18.2124V18.2013C20.68 18.2013 20.252 16.0175 19.6649 14.8937C15.3723 6.15281 11.6356 12.1116 8.02076 18.4362C7.74865 18.9133 7.48733 19.3684 7.26373 19.7641C15.548 14.5198 14.8505 30.363 21.6387 30.4889V30.5C28.4271 30.3741 27.7295 14.5309 36.0137 19.775C35.7903 19.3795 35.5289 18.9244 35.2567 18.4473Z" fill="url(#paint1_linear_419_1338)"/>
<path fill-rule="evenodd" clip-rule="evenodd" d="M35.7012 30.5C37.7722 30.5 39.4512 28.821 39.4512 26.75C39.4512 24.679 37.7722 23 35.7012 23C33.6302 23 31.9512 24.679 31.9512 26.75C31.9512 28.821 33.6302 30.5 35.7012 30.5Z" fill="url(#paint2_linear_419_1338)"/>
<defs>
<linearGradient id="paint0_linear_419_1338" x1="1323.26" y1="136.351" x2="720.918" y2="675.47" gradientUnits="userSpaceOnUse">
<stop stop-color="#007867"/>
<stop offset="1" stop-color="#00A76F"/>
</linearGradient>
<linearGradient id="paint1_linear_419_1338" x1="1444.76" y1="10.5" x2="1444.76" y2="2010.5" gradientUnits="userSpaceOnUse">
<stop stop-color="#5BE49B"/>
<stop offset="1" stop-color="#00A76F"/>
</linearGradient>
<linearGradient id="paint2_linear_419_1338" x1="406.951" y1="23" x2="406.951" y2="773" gradientUnits="userSpaceOnUse">
<stop stop-color="#5BE49B"/>
<stop offset="1" stop-color="#00A76F"/>
</linearGradient>
</defs>
</svg>
