<svg width="21" height="21" viewBox="0 0 21 21" fill="none" xmlns="http://www.w3.org/2000/svg">
<path d="M14.9182 18C14.7849 18.0005 14.6535 17.9691 14.5349 17.9083L10.2849 15.6833L6.03486 17.9083C5.7533 18.0564 5.41202 18.0312 5.15521 17.8435C4.89841 17.6557 4.77088 17.3382 4.82652 17.025L5.65986 12.3333L2.22652 8.99997C2.00824 8.78213 1.92809 8.46156 2.01819 8.16663C2.11673 7.86448 2.37854 7.64469 2.69319 7.59997L7.44319 6.9083L9.53486 2.6333C9.6741 2.34581 9.96542 2.16321 10.2849 2.16321C10.6043 2.16321 10.8956 2.34581 11.0349 2.6333L13.1515 6.89997L17.9015 7.59163C18.2162 7.63636 18.478 7.85615 18.5765 8.1583C18.6666 8.45323 18.5865 8.7738 18.3682 8.99163L14.9349 12.325L15.7682 17.0166C15.8289 17.3356 15.6988 17.6609 15.4349 17.85C15.284 17.9557 15.1023 18.0085 14.9182 18Z" fill="#919EAB" fill-opacity="0.48"/>
</svg>
