<svg width="260" height="247" viewBox="0 0 260 247" fill="none" xmlns="http://www.w3.org/2000/svg">
<path opacity="0.2" d="M0.225006 133.652C0.225006 156.062 8.30371 176.483 21.5983 191.916C36.8497 209.627 58.9663 220.762 83.6192 220.8C94.0906 220.823 104.465 218.796 114.158 214.834C119.051 212.835 124.527 213.064 129.266 215.433C134.964 218.284 141.25 219.766 147.622 219.762C150.337 219.762 152.996 219.495 155.568 218.988C162.909 217.545 169.59 214.128 175.077 209.29C178.525 206.249 182.941 204.719 187.454 204.725H187.531C202.445 204.725 216.297 200.005 227.799 191.916C238.081 184.694 246.477 174.782 252.072 163.145C256.949 153.003 259.695 141.548 259.695 129.423C259.695 87.8386 227.383 54.1215 187.531 54.1215C183.468 54.1215 179.487 54.4799 175.605 55.148C165.323 37.7789 146.909 26.2003 125.905 26.2003C117.306 26.1925 108.819 28.1644 101.104 31.9631C93.9472 35.4697 87.5842 40.4525 82.3792 46.5251C64.7038 46.8192 48.361 52.8442 34.9848 62.899C13.9288 78.7178 0.225006 104.517 0.225006 133.652V133.652Z" fill="url(#paint0_linear_419_371)"/>
<path opacity="0.24" fill-rule="evenodd" clip-rule="evenodd" d="M59.2672 78.8556L59.7061 79.8432L59.6953 79.8481L59.6623 79.8627L59.5283 79.9232C59.4099 79.9773 59.2342 80.0584 59.005 80.1659L58.5461 79.187C58.7785 79.0778 58.958 78.9951 59.0801 78.94L59.2185 78.8767L59.2542 78.8605L59.2672 78.8551V78.8556ZM55.607 80.6276C56.146 80.3535 56.6346 80.1097 57.0666 79.8978L57.5433 80.8681C57.1157 81.0779 56.6314 81.3195 56.0973 81.5908L55.607 80.6276ZM52.7118 82.1455C53.2145 81.8741 53.6956 81.6184 54.1524 81.379L54.6546 82.3363C54.2016 82.5736 53.7248 82.8276 53.2253 83.0968L52.7118 82.1455ZM49.8609 83.7277C50.3479 83.4504 50.8225 83.1833 51.2825 82.9282L51.8069 83.8736C51.3506 84.1266 50.8798 84.3915 50.3966 84.6671L49.8609 83.7277ZM47.0326 85.3845C47.5121 85.0963 47.9829 84.8169 48.4446 84.5466L48.9906 85.4791C48.5327 85.7477 48.0651 86.025 47.59 86.311L47.0326 85.3845ZM44.2666 87.0926C44.732 86.7975 45.1926 86.5094 45.6477 86.2283L46.2153 87.1483C45.7645 87.4272 45.3072 87.7126 44.8455 88.0056L44.2666 87.0926ZM41.5286 88.877C41.9799 88.5749 42.4331 88.2756 42.8881 87.9791L43.4784 88.8845C43.0272 89.1787 42.5778 89.4756 42.1303 89.7754L41.5286 88.877ZM38.8377 90.7316C39.2864 90.4132 39.735 90.1003 40.1805 89.7932L40.7935 90.683C40.3518 90.9878 39.908 91.2976 39.4631 91.6133L38.8377 90.7316ZM36.2035 92.656C36.6384 92.3283 37.0757 92.004 37.5155 91.683L38.1534 92.556C37.7209 92.8722 37.2874 93.1933 36.8538 93.5193L36.2035 92.656ZM33.6245 94.6614C34.0499 94.3198 34.4765 93.9825 34.9035 93.6506L35.5673 94.5041C35.1446 94.8328 34.7224 95.1663 34.3013 95.5042L33.6245 94.6614ZM31.1104 96.7518C31.5239 96.3955 31.9396 96.0436 32.3574 95.6966L33.0488 96.528C32.6358 96.8712 32.2245 97.2188 31.8158 97.5707L31.1104 96.7518ZM28.6724 98.9329C29.0719 98.561 29.4752 98.1934 29.8811 97.8302L30.6017 98.6361C30.2006 98.9951 29.8027 99.3578 29.4081 99.7243L28.6724 98.9329ZM26.3226 101.211C26.7059 100.823 27.0935 100.439 27.4854 100.059L28.2378 100.836C27.8513 101.21 27.4691 101.588 27.0918 101.971L26.3226 101.211ZM24.0755 103.596C24.4398 103.19 24.8101 102.788 25.1853 102.39L25.9718 103.131C25.6026 103.523 25.2388 103.918 24.8804 104.318L24.0755 103.596ZM21.9516 106.095C22.2938 105.669 22.643 105.247 22.9981 104.829L23.822 105.529C23.4738 105.938 23.1314 106.353 22.7949 106.771L21.9516 106.095ZM19.9748 108.715C20.2907 108.268 20.6138 107.825 20.944 107.388L21.8067 108.04C21.4824 108.469 21.1662 108.902 20.8586 109.339L19.9748 108.715ZM18.1758 111.463C18.4587 110.995 18.7501 110.532 19.0499 110.074L19.9542 110.667C19.6616 111.114 19.3772 111.566 19.1012 112.022L18.1758 111.463ZM16.5865 114.351C16.8298 113.86 17.0849 113.374 17.3509 112.892L18.298 113.414C18.0402 113.881 17.7924 114.354 17.5547 114.832L16.5865 114.351ZM15.2541 117.369C15.4519 116.856 15.6622 116.347 15.8854 115.843L16.8747 116.279C16.6584 116.769 16.4541 117.261 16.2627 117.758L15.2541 117.369ZM14.2254 120.508C14.3686 119.976 14.527 119.447 14.6989 118.923L15.726 119.26C15.56 119.766 15.4077 120.276 15.2692 120.789L14.2254 120.508ZM13.548 123.748C13.6291 123.201 13.727 122.657 13.8399 122.117L14.8984 122.338C14.7893 122.858 14.6956 123.381 14.6173 123.907L13.548 123.748ZM13.2956 126.222C13.3107 125.944 13.3307 125.668 13.3545 125.392L14.4313 125.486C14.4086 125.75 14.3897 126.016 14.3751 126.282C14.36 126.55 14.3535 126.815 14.3551 127.076L13.274 127.083C13.2723 126.799 13.2794 126.512 13.2956 126.222ZM13.7399 130.41C13.5855 129.865 13.4694 129.31 13.3924 128.749L14.4637 128.602C14.5346 129.12 14.6411 129.624 14.78 130.116L13.7399 130.41ZM15.0903 133.491C14.7977 133.01 14.5369 132.509 14.3097 131.994L15.2989 131.559C15.5054 132.027 15.7443 132.485 16.0146 132.931L15.0903 133.491ZM17.132 136.124C16.747 135.723 16.3827 135.303 16.0406 134.866L16.8936 134.201C17.213 134.61 17.5531 135.002 17.9125 135.375L17.132 136.124ZM19.6196 138.312C19.184 137.985 18.7605 137.642 18.3499 137.284L19.0612 136.47C19.4429 136.803 19.8461 137.129 20.2694 137.447L19.6196 138.312ZM22.3711 140.129C21.8986 139.853 21.4336 139.565 20.9764 139.265L21.5711 138.361C22.0119 138.651 22.4604 138.929 22.916 139.195L22.3711 140.129ZM25.2745 141.655C24.7802 141.42 24.2907 141.176 23.8063 140.922L24.3085 139.965C24.7717 140.207 25.2491 140.445 25.7383 140.678L25.2745 141.655ZM28.2703 142.956C27.7567 142.751 27.2529 142.542 26.7599 142.328L27.1897 141.337C27.6729 141.546 28.1665 141.751 28.6708 141.952L28.2703 142.956ZM187.659 141.554C187.791 141.609 187.982 141.691 188.225 141.801L187.778 142.785C187.556 142.684 187.333 142.588 187.107 142.497L187.074 142.483L187.066 142.48L187.065 142.48L187.258 141.975L187.45 141.47H187.451L187.452 141.471L187.455 141.472L187.466 141.476L187.507 141.492C187.542 141.506 187.593 141.526 187.659 141.554ZM31.325 144.084C30.806 143.906 30.2947 143.725 29.7914 143.539L30.1655 142.525C30.6601 142.707 31.1633 142.886 31.6753 143.061L31.325 144.084ZM189.718 142.535C190.154 142.765 190.641 143.034 191.168 143.344L190.618 144.276C190.157 144.003 189.688 143.742 189.214 143.492L189.718 142.535ZM34.4219 145.075C33.9002 144.918 33.3851 144.759 32.8764 144.597L33.2056 143.567C33.7072 143.727 34.2164 143.884 34.7321 144.039L34.4219 145.075ZM192.572 144.215C193.033 144.516 193.487 144.826 193.935 145.147L193.305 146.026C192.871 145.715 192.429 145.413 191.981 145.121L192.572 144.215ZM37.5506 145.955C37.0279 145.817 36.5106 145.676 35.9992 145.532L36.2911 144.491C36.7982 144.634 37.3101 144.773 37.8274 144.91L37.5506 145.955ZM40.7037 146.747C40.1756 146.621 39.6523 146.493 39.1334 146.363L39.3961 145.315C39.9107 145.443 40.4297 145.57 40.9535 145.695L40.7037 146.747ZM43.8752 147.463C43.3411 147.348 42.8103 147.231 42.2838 147.113L42.5216 146.058C43.0449 146.176 43.572 146.292 44.1028 146.407L43.8752 147.463ZM195.264 146.145C195.696 146.485 196.121 146.834 196.537 147.194L195.831 148.013C195.427 147.664 195.015 147.325 194.595 146.995L195.264 146.145ZM47.0499 148.117C46.5172 148.012 45.9849 147.905 45.4531 147.795L45.671 146.736C46.1969 146.845 46.7261 146.951 47.2586 147.056L47.0499 148.117ZM50.2284 148.718C49.696 148.621 49.1652 148.523 48.637 148.423L48.8376 147.361C49.3635 147.46 49.8917 147.558 50.422 147.654L50.2284 148.718ZM53.4199 149.277C52.8885 149.187 52.3588 149.096 51.8307 149.004L52.0172 147.939C52.5431 148.031 53.0713 148.122 53.601 148.211L53.4199 149.277ZM197.767 148.304C198.169 148.684 198.562 149.074 198.946 149.473L198.166 150.222C197.795 149.835 197.414 149.458 197.024 149.089L197.767 148.304ZM56.6195 149.802C56.0849 149.717 55.5514 149.631 55.02 149.544L55.1946 148.477C55.7249 148.564 56.2563 148.649 56.7892 148.734L56.6195 149.802ZM59.8191 150.297C59.2839 150.216 58.7499 150.135 58.2163 150.052L58.3817 148.984C58.9137 149.066 59.4461 149.147 59.9802 149.228L59.8191 150.297ZM63.0192 150.769C62.4857 150.692 61.9516 150.614 61.4186 150.535L61.5765 149.466C62.1084 149.544 62.6408 149.622 63.1738 149.699L63.0192 150.769ZM66.2242 151.223C65.6898 151.149 65.1556 151.074 64.6215 150.997L64.7734 149.927L66.3734 150.153L66.2242 151.223ZM69.4281 151.665C68.8946 151.592 68.36 151.519 67.8254 151.445L67.9729 150.374C68.507 150.448 69.0411 150.521 69.5741 150.594L69.4281 151.665ZM200.063 150.692C200.426 151.108 200.778 151.534 201.12 151.967L200.271 152.636C199.941 152.217 199.599 151.805 199.248 151.403L200.063 150.692ZM72.6304 152.099L71.032 151.883L71.1774 150.812L72.7753 151.028L72.6304 152.099ZM75.8387 152.532L74.2364 152.316L74.3808 151.244L75.9835 151.461L75.8387 152.532ZM79.0431 152.967L77.4339 152.748L77.5793 151.676L79.1902 151.896L79.0431 152.967ZM82.2406 153.411L80.6394 153.187L80.7881 152.116C81.3248 152.191 81.8595 152.266 82.3914 152.341L82.2406 153.411ZM85.4277 153.869C84.9028 153.792 84.3747 153.715 83.8439 153.639L83.9974 152.569C84.5298 152.646 85.059 152.722 85.585 152.8L85.4277 153.869ZM88.6289 154.353C88.1035 154.272 87.5737 154.19 87.0397 154.109L87.2013 153.041C87.7364 153.121 88.2678 153.203 88.7954 153.285L88.6289 154.353ZM202.114 153.295C202.433 153.747 202.741 154.207 203.037 154.674L202.124 155.252C201.838 154.801 201.54 154.357 201.231 153.921L202.114 153.295ZM91.8204 154.869C91.2939 154.781 90.762 154.693 90.2247 154.606L90.3971 153.539C90.9366 153.626 91.4707 153.714 91.9999 153.803L91.8204 154.869ZM94.9995 155.428C94.4656 155.33 93.9313 155.234 93.3967 155.14L93.5837 154.075C94.1275 154.171 94.6648 154.267 95.1957 154.365L94.9995 155.428ZM98.1617 156.046C97.6363 155.938 97.1028 155.831 96.5611 155.725L96.7682 154.664C97.3136 154.77 97.8515 154.878 98.3812 154.988L98.1617 156.046ZM101.302 156.744C100.785 156.621 100.256 156.499 99.7175 156.38L99.9515 155.324C100.495 155.445 101.03 155.568 101.554 155.693L101.302 156.744ZM104.411 157.553C103.89 157.405 103.367 157.263 102.842 157.127L103.114 156.081C103.658 156.222 104.188 156.366 104.707 156.513L104.411 157.553ZM203.888 156.1C204.155 156.576 204.414 157.066 204.662 157.569L203.692 158.047C203.456 157.568 203.207 157.095 202.945 156.629L203.888 156.1ZM107.459 158.52C106.947 158.338 106.432 158.166 105.914 158.003L106.239 156.972C106.784 157.144 107.311 157.32 107.821 157.501L107.459 158.52ZM110.379 159.717C109.905 159.491 109.425 159.28 108.938 159.082L109.347 158.081C109.852 158.286 110.352 158.507 110.845 158.741L110.379 159.717ZM205.356 159.077C205.57 159.579 205.775 160.093 205.968 160.62L204.953 160.991C204.769 160.49 204.572 159.993 204.362 159.503L205.356 159.077ZM112.423 160.851C112.214 160.715 112.001 160.583 111.786 160.458L112.33 159.524C112.567 159.662 112.795 159.803 113.015 159.946C113.223 160.083 113.441 160.22 113.667 160.359L113.102 161.28C112.874 161.14 112.648 160.997 112.423 160.851ZM116.031 162.903C115.538 162.653 115.05 162.396 114.566 162.13L115.087 161.183C115.541 161.432 116.019 161.684 116.52 161.938L116.031 162.903ZM206.496 162.192C206.656 162.713 206.805 163.246 206.941 163.79L205.892 164.052C205.762 163.535 205.619 163.02 205.463 162.51L206.496 162.192ZM119.052 164.335C118.523 164.099 118.011 163.864 117.515 163.63L117.978 162.652C118.466 162.883 118.971 163.115 119.492 163.348L119.052 164.335ZM122.092 165.626C121.564 165.412 121.048 165.198 120.544 164.984L120.966 163.989C121.464 164.2 121.975 164.412 122.498 164.624L122.092 165.626ZM125.174 166.826C124.645 166.628 124.124 166.429 123.614 166.231L124.006 165.223C124.512 165.42 125.028 165.617 125.554 165.814L125.174 166.826ZM207.302 165.406C207.408 165.94 207.501 166.484 207.582 167.038L206.512 167.194C206.435 166.666 206.345 166.139 206.242 165.615L207.302 165.406ZM128.287 167.951C127.761 167.768 127.236 167.581 126.712 167.392L127.08 166.375C127.593 166.561 128.115 166.746 128.644 166.931L128.287 167.951ZM131.418 169.011C130.884 168.836 130.355 168.66 129.833 168.483L130.18 167.459C130.699 167.635 131.224 167.81 131.755 167.984L131.418 169.011ZM134.558 170.012C134.03 169.848 133.502 169.683 132.975 169.515L133.303 168.485C133.823 168.65 134.348 168.815 134.877 168.98L134.558 170.012ZM207.781 168.681C207.808 168.956 207.832 169.234 207.852 169.515C207.875 169.817 207.881 170.121 207.869 170.424L206.789 170.383C206.799 170.129 206.794 169.866 206.774 169.594C206.754 169.324 206.731 169.055 206.705 168.785L207.781 168.681ZM137.716 170.963C137.188 170.809 136.661 170.652 136.134 170.494L136.446 169.458C136.967 169.615 137.491 169.771 138.02 169.926L137.716 170.963ZM140.892 171.868C140.361 171.721 139.834 171.573 139.309 171.423L139.606 170.384C140.127 170.533 140.652 170.68 141.18 170.827L140.892 171.868ZM144.082 172.729C143.551 172.59 143.021 172.449 142.491 172.306L142.773 171.262C143.298 171.404 143.826 171.544 144.357 171.683L144.082 172.729ZM207.588 172.168C207.417 172.739 207.169 173.284 206.85 173.788L205.936 173.21C206.202 172.79 206.41 172.336 206.552 171.859L207.588 172.168ZM147.285 173.547C146.748 173.414 146.213 173.279 145.68 173.143L145.948 172.095C146.478 172.231 147.011 172.365 147.545 172.497L147.285 173.547ZM150.494 174.321C149.956 174.195 149.42 174.067 148.885 173.938L149.138 172.887C149.671 173.016 150.205 173.142 150.741 173.268L150.494 174.321ZM153.713 175.052C153.175 174.933 152.638 174.813 152.102 174.691L152.341 173.637C152.875 173.758 153.409 173.878 153.945 173.995L153.713 175.052ZM156.943 175.739C156.404 175.628 155.865 175.515 155.327 175.401L155.552 174.343C156.088 174.458 156.625 174.57 157.161 174.68L156.943 175.739ZM205.726 175.152C205.302 175.553 204.843 175.914 204.353 176.231L203.763 175.325C204.197 175.045 204.603 174.726 204.977 174.371L205.726 175.152ZM160.183 176.382C159.643 176.279 159.101 176.174 158.56 176.066L158.771 175.006C159.31 175.113 159.848 175.218 160.386 175.32L160.183 176.382ZM163.428 176.978C162.888 176.883 162.348 176.786 161.806 176.686L162.001 175.623C162.54 175.722 163.078 175.819 163.616 175.913L163.428 176.978ZM202.835 177.068C202.343 177.299 201.82 177.511 201.269 177.705L200.911 176.685C201.409 176.511 201.898 176.312 202.376 176.089L202.835 177.068ZM166.687 177.525C166.146 177.438 165.604 177.349 165.061 177.258L165.24 176.192C165.78 176.283 166.319 176.371 166.857 176.457L166.687 177.525ZM169.958 178.018C169.412 177.941 168.867 177.861 168.322 177.778L168.484 176.709C169.028 176.792 169.57 176.871 170.11 176.948L169.958 178.018ZM199.668 178.198C199.139 178.34 198.589 178.468 198.019 178.585L197.803 177.525C198.335 177.417 198.864 177.293 199.388 177.153L199.668 178.198ZM173.237 178.453C172.687 178.385 172.138 178.315 171.588 178.242L171.731 177.171C172.279 177.244 172.825 177.313 173.369 177.38L173.237 178.453ZM176.521 178.822C175.97 178.766 175.419 178.707 174.868 178.645L174.989 177.571C175.54 177.633 176.087 177.692 176.631 177.747L176.521 178.822ZM196.375 178.877C195.841 178.959 195.292 179.032 194.728 179.097L194.606 178.022C195.142 177.962 195.677 177.89 196.211 177.808L196.375 178.877ZM179.812 179.118C179.262 179.076 178.713 179.03 178.164 178.98L178.261 177.904C178.81 177.953 179.355 177.999 179.895 178.04L179.812 179.118ZM183.108 179.329C182.561 179.302 182.014 179.271 181.467 179.235L181.536 178.157C182.084 178.192 182.626 178.223 183.162 178.249L183.108 179.329ZM193.051 179.257C192.515 179.3 191.969 179.335 191.412 179.363L191.357 178.284C191.894 178.256 192.43 178.221 192.966 178.179L193.051 179.257ZM186.413 179.439C185.868 179.43 185.322 179.417 184.777 179.399L184.813 178.318C185.359 178.337 185.898 178.35 186.431 178.359L186.413 179.439ZM189.728 179.427C189.191 179.44 188.645 179.448 188.092 179.45L188.089 178.369C188.634 178.367 189.171 178.359 189.7 178.346L189.728 179.427Z" fill="#007867"/>
<path d="M26.1412 92.4565L52.2439 174.069C52.6763 175.386 53.5404 176.519 54.6965 177.285C55.8526 178.051 57.2332 178.404 58.6149 178.288L92.8466 175.39L172.857 168.556C174.068 168.462 175.225 168.01 176.178 167.257C177.132 166.504 177.839 165.484 178.211 164.327C178.457 163.559 178.55 162.75 178.483 161.946C178.425 161.369 178.293 160.801 178.088 160.258L171.689 143.382L160.115 112.441L151.142 88.5326C150.701 87.3632 149.915 86.3558 148.887 85.6448C147.86 84.9338 146.639 84.553 145.39 84.5531H31.9782C30.352 84.5532 28.7924 85.1992 27.6425 86.3491C26.4925 87.4989 25.8463 89.0584 25.846 90.6846C25.8547 91.2868 25.9542 91.8841 26.1412 92.4565Z" fill="white"/>
<path d="M26.1412 92.4565L52.2439 174.069C52.6763 175.386 53.5404 176.519 54.6965 177.285C55.8526 178.051 57.2332 178.404 58.6149 178.288L92.8466 175.39L172.857 168.556C174.068 168.462 175.225 168.01 176.178 167.257C177.132 166.504 177.839 165.484 178.211 164.327C178.457 163.559 178.55 162.75 178.483 161.946C178.425 161.369 178.293 160.801 178.088 160.258L171.689 143.382L160.115 112.441L151.142 88.5326C150.701 87.3632 149.915 86.3558 148.887 85.6448C147.86 84.9338 146.639 84.553 145.39 84.5531H31.9782C30.352 84.5532 28.7924 85.1992 27.6425 86.3491C26.4925 87.4989 25.8463 89.0584 25.846 90.6846C25.8547 91.2868 25.9542 91.8841 26.1412 92.4565Z" fill="white"/>
<path d="M92.4314 175.426L58.6149 178.288C57.2333 178.404 55.8528 178.05 54.6968 177.285C53.5408 176.519 52.6768 175.386 52.2444 174.069L26.1407 92.4565C25.9533 91.8842 25.8538 91.2867 25.8455 90.6846C25.8453 89.8793 26.0038 89.0818 26.3119 88.3378C26.62 87.5937 27.0717 86.9177 27.6411 86.3483C28.2106 85.7789 28.8867 85.3272 29.6308 85.0192C30.3748 84.7112 31.1723 84.5528 31.9776 84.5531H63.0346L92.4314 175.426Z" fill="url(#paint1_linear_419_371)"/>
<path d="M123.407 129.566C124.82 129.478 125.768 128.08 125.328 126.735L120.742 112.737C120.595 112.287 120.304 111.898 119.914 111.63C119.524 111.361 119.057 111.228 118.584 111.25L85.2744 112.851C83.8333 112.92 82.863 114.355 83.3349 115.718L88.3339 130.16C88.4885 130.607 88.7851 130.99 89.1783 131.252C89.5715 131.514 90.0397 131.64 90.5113 131.61L123.407 129.566Z" fill="#F4F6F8"/>
<path d="M132.597 155.512C134.009 155.425 134.958 154.026 134.517 152.681L129.932 138.684C129.784 138.234 129.493 137.845 129.103 137.576C128.713 137.308 128.246 137.175 127.773 137.197L94.4639 138.798C93.0228 138.867 92.0525 140.301 92.5244 141.665L97.5235 156.107C97.678 156.553 97.9746 156.937 98.3678 157.199C98.7611 157.461 99.2293 157.586 99.7008 157.557L132.597 155.512Z" fill="#DFE3E8"/>
<g opacity="0.4">
<path d="M136.994 98.9259L145.615 127.517C145.742 127.978 146.018 128.383 146.399 128.671C146.781 128.958 147.247 129.111 147.724 129.107L169.108 128.489C169.28 128.484 169.448 128.439 169.599 128.356C169.75 128.272 169.878 128.155 169.974 128.012C170.07 127.869 170.131 127.706 170.151 127.535C170.171 127.364 170.15 127.191 170.09 127.03L159.278 98.1642C159.205 97.9682 159.076 97.7978 158.908 97.6735C158.739 97.5493 158.538 97.4766 158.329 97.4642L138.92 96.3242C138.601 96.3105 138.283 96.3753 137.995 96.513C137.707 96.6507 137.457 96.8571 137.267 97.1139C137.077 97.3706 136.952 97.67 136.905 97.9859C136.857 98.3018 136.888 98.6246 136.994 98.9259Z" fill="#919EAB"/>
</g>
<path d="M178.654 120.486L169.738 95.2415C169.601 94.8361 169.348 94.4799 169.011 94.2173C168.673 93.9547 168.266 93.7973 167.839 93.7647L130.261 91.5424C129.941 91.5328 129.624 91.6005 129.336 91.7399C129.048 91.8793 128.797 92.0862 128.606 92.343C128.416 92.5999 128.29 92.8992 128.24 93.2153C128.19 93.5315 128.217 93.855 128.32 94.1582L136.941 122.764C137.07 123.225 137.346 123.631 137.726 123.92C138.107 124.21 138.572 124.367 139.05 124.368L176.938 123.228C177.255 123.21 177.562 123.116 177.835 122.955C178.107 122.794 178.337 122.569 178.505 122.301C178.673 122.032 178.774 121.727 178.8 121.411C178.826 121.096 178.776 120.778 178.654 120.486Z" fill="white"/>
<path d="M159.894 116.46C160.152 117.128 160.282 117.463 160.558 117.652C160.834 117.842 161.193 117.842 161.91 117.842H162.083C163.514 117.842 164.23 117.842 164.552 117.372C164.874 116.902 164.616 116.234 164.1 114.899L160.625 105.92C160.367 105.25 160.237 104.916 159.961 104.727C159.684 104.537 159.326 104.537 158.609 104.537H158.436C157.004 104.537 156.289 104.537 155.966 105.008C155.644 105.477 155.903 106.145 156.419 107.48L159.894 116.46Z" fill="#007867"/>
<g opacity="0.48">
<path d="M165.815 116.456C166.074 117.127 166.203 117.462 166.479 117.652C166.756 117.842 167.115 117.841 167.833 117.841H168.003C169.435 117.841 170.151 117.841 170.473 117.372C170.795 116.901 170.537 116.234 170.019 114.899L169.162 112.684C168.903 112.015 168.774 111.681 168.498 111.492C168.221 111.302 167.863 111.302 167.146 111.302H166.981C165.552 111.302 164.837 111.302 164.515 111.771C164.193 112.24 164.45 112.907 164.963 114.241L165.815 116.456Z" fill="url(#paint2_linear_419_371)"/>
<path d="M153.959 116.457C154.218 117.127 154.347 117.463 154.623 117.652C154.9 117.842 155.259 117.842 155.977 117.842H156.147C157.579 117.842 158.295 117.842 158.617 117.372C158.939 116.901 158.681 116.234 158.164 114.899L156.702 111.122C156.443 110.454 156.313 110.12 156.037 109.93C155.761 109.741 155.402 109.741 154.685 109.741H154.522C153.092 109.741 152.377 109.741 152.055 110.21C151.733 110.68 151.99 111.347 152.504 112.681L153.959 116.457Z" fill="url(#paint3_linear_419_371)"/>
<path d="M148.037 116.46C148.296 117.129 148.425 117.463 148.702 117.652C148.978 117.842 149.337 117.842 150.054 117.842H150.227C151.658 117.842 152.374 117.842 152.696 117.372C153.018 116.902 152.76 116.234 152.243 114.899L147.138 101.701C146.879 101.031 146.75 100.697 146.473 100.508C146.197 100.318 145.838 100.318 145.121 100.318H144.948C143.517 100.318 142.801 100.318 142.479 100.788C142.157 101.258 142.415 101.925 142.931 103.261L148.037 116.46Z" fill="url(#paint4_linear_419_371)"/>
<path d="M142.103 116.459C142.361 117.128 142.491 117.463 142.767 117.652C143.043 117.842 143.402 117.842 144.119 117.842H144.293C145.724 117.842 146.439 117.842 146.762 117.372C147.084 116.903 146.826 116.235 146.31 114.9L139.318 96.8069C139.059 96.1377 138.93 95.8031 138.654 95.6139C138.378 95.4242 138.019 95.4242 137.301 95.4242H137.127C135.696 95.4242 134.981 95.4242 134.659 95.8939C134.337 96.3636 134.595 97.0312 135.11 98.3659L142.103 116.459Z" fill="url(#paint5_linear_419_371)"/>
</g>
<g opacity="0.4">
<path fill-rule="evenodd" clip-rule="evenodd" d="M42.3997 110.079C41.8382 107.996 42.1172 105.776 43.1765 103.897C44.2359 102.018 45.9909 100.63 48.0635 100.032C50.1362 99.4342 52.3607 99.6744 54.258 100.701C56.1553 101.727 57.5736 103.458 58.2074 105.52C58.8412 107.582 58.6399 109.81 57.6467 111.725C56.6535 113.64 54.948 115.088 52.8975 115.758C50.8469 116.427 48.6154 116.265 46.6834 115.305C44.7515 114.346 43.2737 112.666 42.5683 110.627L42.484 110.36L42.3997 110.079ZM50.6129 107.814L48.6723 101.584C49.22 101.415 49.7868 101.316 50.3593 101.289C51.7915 101.235 53.2016 101.653 54.3729 102.479C55.5443 103.305 56.412 104.493 56.8428 105.86C57.0114 106.408 57.1109 106.974 57.1379 107.547C57.1557 108.119 57.1038 108.69 56.9833 109.249C56.7349 110.366 56.1908 111.396 55.4081 112.231C54.6366 113.08 53.6524 113.707 52.5571 114.048C51.4619 114.389 50.2954 114.432 49.1782 114.171C48.6275 114.042 48.094 113.849 47.589 113.594C47.081 113.326 46.6085 112.995 46.1825 112.61C45.3522 111.842 44.7325 110.873 44.3824 109.797L50.6129 107.814ZM60.3872 162.297C59.9642 160.256 60.3281 158.129 61.4059 156.345C62.4838 154.56 64.1961 153.248 66.1999 152.672C68.2038 152.096 70.3513 152.298 72.2124 153.238C74.0735 154.178 75.5109 155.786 76.2368 157.741V158.008C76.2368 158.092 76.2368 158.191 76.3351 158.275C76.8923 160.278 76.6733 162.417 75.7219 164.266C74.7705 166.114 73.1568 167.535 71.2031 168.246C69.2493 168.956 67.0995 168.903 65.183 168.098C63.2665 167.292 61.7245 165.793 60.865 163.9C60.8229 163.767 60.7845 163.633 60.7456 163.499C60.7075 163.365 60.6677 163.232 60.6261 163.099C60.5932 162.992 60.5624 162.885 60.5337 162.777C60.4918 162.615 60.4429 162.455 60.3872 162.297ZM66.4343 154.351L68.4593 160.553L68.502 160.539L70.5269 166.756C71.3334 166.487 72.079 166.061 72.7209 165.504C73.3629 164.946 73.8886 164.268 74.2681 163.507C74.5259 163 74.715 162.461 74.8302 161.904C74.9546 161.35 75.0016 160.782 74.9708 160.216C74.897 158.78 74.3511 157.409 73.4178 156.315C72.4844 155.222 71.216 154.467 69.8096 154.168C68.6873 153.94 67.5254 154.003 66.4343 154.351ZM54.3946 127.559C53.628 128.326 53.0199 129.236 52.6051 130.237C52.1902 131.239 51.9767 132.312 51.9767 133.396V133.973C51.9767 135.057 52.1902 136.13 52.6051 137.132C53.02 138.133 53.628 139.044 54.3946 139.81C55.1612 140.577 56.0713 141.185 57.0728 141.6C58.0744 142.014 59.1479 142.228 60.232 142.228C61.3161 142.228 62.3896 142.014 63.3912 141.6C64.3928 141.185 65.3029 140.577 66.0694 139.81C66.836 139.044 67.4441 138.133 67.859 137.132C68.2738 136.13 68.4874 135.057 68.4874 133.973V133.396C68.4876 131.764 68.0036 130.167 67.0966 128.81C66.1895 127.452 64.9001 126.394 63.3916 125.769C61.883 125.144 60.223 124.98 58.6215 125.299C57.02 125.618 55.549 126.404 54.3946 127.559ZM60.1196 133.663V127.138C61.2612 127.147 62.3807 127.452 63.3683 128.024C63.8844 128.302 64.358 128.652 64.7748 129.064C65.3832 129.669 65.8659 130.388 66.1952 131.18C66.5246 131.971 66.694 132.821 66.6937 133.678C66.6935 134.536 66.5236 135.385 66.1938 136.176C65.864 136.968 65.3808 137.687 64.7721 138.291C63.958 139.098 62.9447 139.675 61.8353 139.964C60.7315 140.273 59.5639 140.273 58.4601 139.964C57.91 139.822 57.3805 139.609 56.8849 139.331L60.1196 133.663Z" fill="white"/>
</g>
<path d="M81.9328 67.2823H59.4728L66.3081 71.4592L81.9328 67.2823Z" fill="url(#paint6_linear_419_371)"/>
<path d="M81.933 67.2823L67.5175 73.9485L69.9505 82.4433L81.933 67.2823Z" fill="url(#paint7_linear_419_371)"/>
<path d="M63.706 77.7037L67.5174 73.9485L81.9329 67.2823L63.706 77.7037Z" fill="url(#paint8_linear_419_371)"/>
<path d="M63.706 77.7037L67.5174 73.9485L81.9329 67.2823L66.3082 71.4592L63.706 77.7037Z" fill="#007867"/>
<defs>
<linearGradient id="paint0_linear_419_371" x1="5058.85" y1="14002.7" x2="16045.9" y2="73.4105" gradientUnits="userSpaceOnUse">
<stop stop-color="#00A76F"/>
<stop offset="1" stop-color="#00A76F" stop-opacity="0"/>
</linearGradient>
<linearGradient id="paint1_linear_419_371" x1="25.846" y1="84.5531" x2="25.846" y2="178.309" gradientUnits="userSpaceOnUse">
<stop stop-color="#5BE49B"/>
<stop offset="1" stop-color="#007867"/>
</linearGradient>
<linearGradient id="paint2_linear_419_371" x1="134.517" y1="95.4242" x2="134.517" y2="117.842" gradientUnits="userSpaceOnUse">
<stop stop-color="#5BE49B"/>
<stop offset="1" stop-color="#007867"/>
</linearGradient>
<linearGradient id="paint3_linear_419_371" x1="134.517" y1="95.4241" x2="134.517" y2="117.842" gradientUnits="userSpaceOnUse">
<stop stop-color="#5BE49B"/>
<stop offset="1" stop-color="#007867"/>
</linearGradient>
<linearGradient id="paint4_linear_419_371" x1="134.517" y1="95.4242" x2="134.517" y2="117.842" gradientUnits="userSpaceOnUse">
<stop stop-color="#5BE49B"/>
<stop offset="1" stop-color="#007867"/>
</linearGradient>
<linearGradient id="paint5_linear_419_371" x1="134.517" y1="95.4242" x2="134.517" y2="117.842" gradientUnits="userSpaceOnUse">
<stop stop-color="#5BE49B"/>
<stop offset="1" stop-color="#007867"/>
</linearGradient>
<linearGradient id="paint6_linear_419_371" x1="59.4728" y1="67.2823" x2="59.4728" y2="82.4433" gradientUnits="userSpaceOnUse">
<stop stop-color="#5BE49B"/>
<stop offset="1" stop-color="#007867"/>
</linearGradient>
<linearGradient id="paint7_linear_419_371" x1="59.4729" y1="67.2823" x2="59.4729" y2="82.4433" gradientUnits="userSpaceOnUse">
<stop stop-color="#5BE49B"/>
<stop offset="1" stop-color="#007867"/>
</linearGradient>
<linearGradient id="paint8_linear_419_371" x1="59.4729" y1="67.2823" x2="59.4729" y2="82.4433" gradientUnits="userSpaceOnUse">
<stop stop-color="#5BE49B"/>
<stop offset="1" stop-color="#007867"/>
</linearGradient>
</defs>
</svg>
