<svg width="261" height="247" viewBox="0 0 261 247" fill="none" xmlns="http://www.w3.org/2000/svg">
<path opacity="0.2" d="M0.814941 133.652C0.814941 156.062 8.89365 176.483 22.1882 191.916C37.4397 209.627 59.5562 220.762 84.2091 220.8C94.6806 220.823 105.055 218.796 114.748 214.834C119.641 212.835 125.117 213.064 129.856 215.433C135.554 218.284 141.84 219.766 148.212 219.762C150.927 219.762 153.586 219.495 156.158 218.988C163.499 217.545 170.18 214.128 175.667 209.29C179.115 206.249 183.53 204.719 188.044 204.725H188.121C203.035 204.725 216.887 200.005 228.389 191.916C238.671 184.694 247.067 174.782 252.662 163.145C257.539 153.003 260.285 141.548 260.285 129.423C260.285 87.8386 227.973 54.1215 188.121 54.1215C184.058 54.1215 180.077 54.4799 176.194 55.148C165.912 37.7789 147.499 26.2003 126.495 26.2003C117.895 26.1925 109.409 28.1644 101.694 31.9631C94.5371 35.4697 88.1742 40.4525 82.9691 46.5251C65.2938 46.8192 48.951 52.8442 35.5747 62.899C14.5187 78.7178 0.814941 104.517 0.814941 133.652V133.652Z" fill="url(#paint0_linear_419_1833)"/>
<path opacity="0.24" fill-rule="evenodd" clip-rule="evenodd" d="M59.8571 78.8556L60.296 79.8432L60.2852 79.8481L60.2522 79.8627L60.1182 79.9232C59.9998 79.9773 59.8241 80.0584 59.5949 80.1659L59.136 79.187C59.3684 79.0778 59.5479 78.9951 59.6701 78.94L59.8084 78.8767L59.8441 78.8605L59.8571 78.8551V78.8556ZM56.1969 80.6276C56.7359 80.3535 57.2246 80.1097 57.6565 79.8978L58.1332 80.8681C57.7057 81.0779 57.2213 81.3195 56.6872 81.5908L56.1969 80.6276ZM53.3017 82.1455C53.8044 81.8741 54.2855 81.6184 54.7423 81.379L55.2445 82.3363C54.7915 82.5736 54.3147 82.8276 53.8152 83.0968L53.3017 82.1455ZM50.4508 83.7277C50.9378 83.4504 51.4124 83.1833 51.8724 82.9282L52.3968 83.8736C51.9406 84.1266 51.4697 84.3915 50.9865 84.6671L50.4508 83.7277ZM47.6225 85.3845C48.102 85.0963 48.5729 84.8169 49.0345 84.5466L49.5805 85.4791C49.1226 85.7477 48.655 86.025 48.1799 86.311L47.6225 85.3845ZM44.8565 87.0926C45.3219 86.7975 45.7825 86.5094 46.2376 86.2283L46.8052 87.1483C46.3544 87.4272 45.8971 87.7126 45.4354 88.0056L44.8565 87.0926ZM42.1185 88.877C42.5698 88.5749 43.023 88.2756 43.478 87.9791L44.0683 88.8845C43.6171 89.1787 43.1677 89.4756 42.7202 89.7754L42.1185 88.877ZM39.4276 90.7316C39.8763 90.4132 40.3249 90.1003 40.7704 89.7932L41.3834 90.683C40.9417 90.9878 40.4979 91.2976 40.053 91.6133L39.4276 90.7316ZM36.7935 92.656C37.2283 92.3283 37.6656 92.004 38.1054 91.683L38.7433 92.556C38.3108 92.8722 37.8773 93.1933 37.4438 93.5193L36.7935 92.656ZM34.2144 94.6614C34.6399 94.3198 35.0664 93.9825 35.4934 93.6506L36.1572 94.5041C35.7345 94.8328 35.3123 95.1663 34.8912 95.5042L34.2144 94.6614ZM31.7003 96.7518C32.1138 96.3955 32.5295 96.0436 32.9474 95.6966L33.6387 96.528C33.2257 96.8712 32.8144 97.2188 32.4057 97.5707L31.7003 96.7518ZM29.2623 98.9329C29.6618 98.561 30.0651 98.1934 30.471 97.8302L31.1916 98.6361C30.7905 98.9951 30.3927 99.3578 29.998 99.7243L29.2623 98.9329ZM26.9125 101.211C27.2958 100.823 27.6834 100.439 28.0753 100.059L28.8277 100.836C28.4412 101.21 28.059 101.588 27.6817 101.971L26.9125 101.211ZM24.6654 103.596C25.0297 103.19 25.4 102.788 25.7752 102.39L26.5617 103.131C26.1925 103.523 25.8287 103.918 25.4703 104.318L24.6654 103.596ZM22.5415 106.095C22.8837 105.669 23.2329 105.247 23.5881 104.829L24.4119 105.529C24.0637 105.938 23.7213 106.353 23.3848 106.771L22.5415 106.095ZM20.5647 108.715C20.8806 108.268 21.2037 107.825 21.5339 107.388L22.3967 108.04C22.0723 108.469 21.7561 108.902 21.4485 109.339L20.5647 108.715ZM18.7657 111.463C19.0486 110.995 19.34 110.532 19.6398 110.074L20.5441 110.667C20.2515 111.114 19.9671 111.566 19.6911 112.022L18.7657 111.463ZM17.1764 114.351C17.4197 113.86 17.6748 113.374 17.9408 112.892L18.8879 113.414C18.6301 113.881 18.3823 114.354 18.1446 114.832L17.1764 114.351ZM15.844 117.369C16.0418 116.856 16.2521 116.347 16.4753 115.843L17.4646 116.279C17.2483 116.769 17.044 117.261 16.8526 117.758L15.844 117.369ZM14.8153 120.508C14.9585 119.976 15.1169 119.447 15.2888 118.923L16.3159 119.26C16.1499 119.766 15.9976 120.276 15.8591 120.789L14.8153 120.508ZM14.1379 123.748C14.219 123.201 14.3169 122.657 14.4298 122.117L15.4883 122.338C15.3792 122.858 15.2855 123.381 15.2072 123.907L14.1379 123.748ZM13.8855 126.222C13.9006 125.944 13.9206 125.668 13.9444 125.392L15.0212 125.486C14.9985 125.75 14.9796 126.016 14.965 126.282C14.9499 126.55 14.9434 126.815 14.945 127.076L13.8639 127.083C13.8623 126.799 13.8693 126.512 13.8855 126.222ZM14.3298 130.41C14.1754 129.865 14.0593 129.31 13.9823 128.749L15.0537 128.602C15.1245 129.12 15.231 129.624 15.3699 130.116L14.3298 130.41ZM15.6802 133.491C15.3876 133.01 15.1268 132.509 14.8996 131.994L15.8888 131.559C16.0953 132.027 16.3342 132.485 16.6045 132.931L15.6802 133.491ZM17.7219 136.124C17.3369 135.723 16.9726 135.303 16.6305 134.866L17.4835 134.201C17.8029 134.61 18.143 135.002 18.5024 135.375L17.7219 136.124ZM20.2095 138.312C19.7739 137.985 19.3504 137.642 18.9398 137.284L19.6511 136.47C20.0328 136.803 20.436 137.129 20.8593 137.447L20.2095 138.312ZM22.961 140.129C22.4885 139.853 22.0235 139.565 21.5663 139.265L22.161 138.361C22.6018 138.651 23.0503 138.929 23.5059 139.195L22.961 140.129ZM25.8644 141.655C25.3701 141.42 24.8806 141.176 24.3962 140.922L24.8984 139.965C25.3616 140.207 25.839 140.445 26.3282 140.678L25.8644 141.655ZM28.8602 142.956C28.3466 142.751 27.8428 142.542 27.3498 142.328L27.7796 141.337C28.2628 141.546 28.7564 141.751 29.2607 141.952L28.8602 142.956ZM188.249 141.554C188.381 141.609 188.572 141.691 188.815 141.801L188.368 142.785C188.146 142.684 187.922 142.588 187.697 142.497L187.664 142.483L187.656 142.48L187.655 142.48L187.848 141.975L188.04 141.47H188.041L188.042 141.471L188.045 141.472L188.056 141.476L188.097 141.492C188.132 141.506 188.183 141.526 188.249 141.554ZM31.9149 144.084C31.3959 143.906 30.8846 143.725 30.3813 143.539L30.7554 142.525C31.25 142.707 31.7532 142.886 32.2652 143.061L31.9149 144.084ZM190.308 142.535C190.744 142.765 191.231 143.034 191.758 143.344L191.208 144.276C190.747 144.003 190.278 143.742 189.804 143.492L190.308 142.535ZM35.0118 145.075C34.4901 144.918 33.975 144.759 33.4663 144.597L33.7955 143.567C34.2971 143.727 34.8063 143.884 35.322 144.039L35.0118 145.075ZM193.161 144.215C193.623 144.516 194.077 144.826 194.525 145.147L193.895 146.026C193.46 145.715 193.019 145.413 192.571 145.121L193.161 144.215ZM38.1405 145.955C37.6178 145.817 37.1005 145.676 36.5891 145.532L36.881 144.491C37.3881 144.634 37.9 144.773 38.4173 144.91L38.1405 145.955ZM41.2936 146.747C40.7655 146.621 40.2422 146.493 39.7233 146.363L39.986 145.315C40.5006 145.443 41.0196 145.57 41.5434 145.695L41.2936 146.747ZM44.4651 147.463C43.931 147.348 43.4002 147.231 42.8737 147.113L43.1115 146.058C43.6348 146.176 44.1619 146.292 44.6927 146.407L44.4651 147.463ZM195.853 146.145C196.286 146.485 196.71 146.834 197.127 147.194L196.421 148.013C196.017 147.664 195.605 147.325 195.185 146.995L195.853 146.145ZM47.6398 148.117C47.1071 148.012 46.5748 147.905 46.043 147.795L46.2609 146.736C46.7868 146.845 47.316 146.951 47.8485 147.056L47.6398 148.117ZM50.8183 148.718C50.2859 148.621 49.7551 148.523 49.2269 148.423L49.4275 147.361C49.9534 147.46 50.4816 147.558 51.0119 147.654L50.8183 148.718ZM54.0098 149.277C53.4785 149.187 52.9487 149.096 52.4206 149.004L52.6071 147.939C53.133 148.031 53.6612 148.122 54.1909 148.211L54.0098 149.277ZM198.357 148.304C198.759 148.684 199.152 149.074 199.536 149.473L198.756 150.222C198.384 149.835 198.004 149.458 197.614 149.089L198.357 148.304ZM57.2094 149.802C56.6748 149.717 56.1413 149.631 55.6099 149.544L55.7845 148.477C56.3148 148.564 56.8462 148.649 57.3792 148.734L57.2094 149.802ZM60.409 150.297C59.8738 150.216 59.3398 150.135 58.8062 150.052L58.9716 148.984C59.5036 149.066 60.036 149.147 60.5701 149.228L60.409 150.297ZM63.6091 150.769C63.0756 150.692 62.5415 150.614 62.0085 150.535L62.1664 149.466C62.6983 149.544 63.2307 149.622 63.7637 149.699L63.6091 150.769ZM66.8141 151.223C66.2797 151.149 65.7455 151.074 65.2114 150.997L65.3633 149.927L66.9633 150.153L66.8141 151.223ZM70.018 151.665C69.4845 151.592 68.9499 151.519 68.4153 151.445L68.5628 150.374C69.0969 150.448 69.631 150.521 70.164 150.594L70.018 151.665ZM200.653 150.692C201.016 151.108 201.368 151.534 201.71 151.967L200.861 152.636C200.53 152.217 200.189 151.805 199.838 151.403L200.653 150.692ZM73.2203 152.099L71.6219 151.883L71.7673 150.812L73.3652 151.028L73.2203 152.099ZM76.4286 152.532L74.8263 152.316L74.9707 151.244L76.5734 151.461L76.4286 152.532ZM79.633 152.967L78.0238 152.748L78.1692 151.676L79.7801 151.896L79.633 152.967ZM82.8305 153.411L81.2293 153.187L81.378 152.116C81.9147 152.191 82.4494 152.266 82.9813 152.341L82.8305 153.411ZM86.0176 153.869C85.4927 153.792 84.9646 153.715 84.4338 153.639L84.5873 152.569C85.1197 152.646 85.649 152.722 86.1749 152.8L86.0176 153.869ZM89.2188 154.353C88.6934 154.272 88.1636 154.19 87.6296 154.109L87.7912 153.041C88.3264 153.121 88.8577 153.203 89.3853 153.285L89.2188 154.353ZM202.703 153.295C203.023 153.747 203.331 154.207 203.627 154.674L202.714 155.252C202.428 154.801 202.13 154.357 201.821 153.921L202.703 153.295ZM92.4103 154.869C91.8838 154.781 91.3519 154.693 90.8146 154.606L90.987 153.539C91.5265 153.626 92.0606 153.714 92.5898 153.803L92.4103 154.869ZM95.5894 155.428C95.0555 155.33 94.5212 155.234 93.9866 155.14L94.1736 154.075C94.7174 154.171 95.2547 154.267 95.7856 154.365L95.5894 155.428ZM98.7516 156.046C98.2262 155.938 97.6927 155.831 97.151 155.725L97.3581 154.664C97.9035 154.77 98.4414 154.878 98.9711 154.988L98.7516 156.046ZM101.892 156.744C101.374 156.621 100.846 156.499 100.307 156.38L100.541 155.324C101.085 155.445 101.62 155.568 102.144 155.693L101.892 156.744ZM105.001 157.553C104.48 157.405 103.957 157.263 103.432 157.127L103.704 156.081C104.248 156.222 104.778 156.366 105.297 156.513L105.001 157.553ZM204.478 156.1C204.745 156.576 205.004 157.066 205.252 157.569L204.282 158.047C204.046 157.568 203.797 157.095 203.535 156.629L204.478 156.1ZM108.049 158.52C107.537 158.338 107.022 158.166 106.504 158.003L106.829 156.972C107.374 157.144 107.901 157.32 108.411 157.501L108.049 158.52ZM110.969 159.717C110.495 159.491 110.015 159.28 109.528 159.082L109.936 158.081C110.442 158.286 110.942 158.507 111.435 158.741L110.969 159.717ZM205.946 159.077C206.16 159.579 206.365 160.093 206.558 160.62L205.542 160.991C205.359 160.49 205.162 159.993 204.952 159.503L205.946 159.077ZM113.013 160.851C112.804 160.715 112.591 160.583 112.375 160.458L112.92 159.524C113.157 159.662 113.385 159.803 113.605 159.946C113.813 160.083 114.031 160.22 114.257 160.359L113.692 161.28C113.464 161.14 113.237 160.997 113.013 160.851ZM116.621 162.903C116.128 162.653 115.64 162.396 115.156 162.13L115.677 161.183C116.131 161.432 116.609 161.684 117.11 161.938L116.621 162.903ZM207.086 162.192C207.246 162.713 207.394 163.246 207.531 163.79L206.482 164.052C206.352 163.535 206.209 163.02 206.053 162.51L207.086 162.192ZM119.642 164.335C119.113 164.099 118.601 163.864 118.105 163.63L118.568 162.652C119.056 162.883 119.561 163.115 120.082 163.348L119.642 164.335ZM122.682 165.626C122.154 165.412 121.637 165.198 121.134 164.984L121.556 163.989C122.054 164.2 122.565 164.412 123.088 164.624L122.682 165.626ZM125.764 166.826C125.235 166.628 124.714 166.429 124.203 166.231L124.596 165.223C125.102 165.42 125.618 165.617 126.144 165.814L125.764 166.826ZM207.892 165.406C207.998 165.94 208.091 166.484 208.172 167.038L207.102 167.194C207.025 166.666 206.935 166.139 206.832 165.615L207.892 165.406ZM128.877 167.951C128.351 167.768 127.826 167.581 127.302 167.392L127.67 166.375C128.183 166.561 128.705 166.746 129.233 166.931L128.877 167.951ZM132.008 169.011C131.474 168.836 130.945 168.66 130.423 168.483L130.77 167.459C131.289 167.635 131.814 167.81 132.345 167.984L132.008 169.011ZM135.148 170.012C134.619 169.848 134.092 169.683 133.565 169.515L133.893 168.485C134.413 168.65 134.937 168.815 135.467 168.98L135.148 170.012ZM208.371 168.681C208.398 168.956 208.421 169.234 208.442 169.515C208.465 169.817 208.47 170.121 208.459 170.424L207.379 170.383C207.388 170.129 207.384 169.866 207.364 169.594C207.344 169.324 207.321 169.055 207.295 168.785L208.371 168.681ZM138.306 170.963C137.778 170.809 137.251 170.652 136.724 170.494L137.036 169.458C137.556 169.615 138.081 169.771 138.609 169.926L138.306 170.963ZM141.481 171.868C140.951 171.721 140.424 171.573 139.899 171.423L140.195 170.384C140.717 170.533 141.242 170.68 141.77 170.827L141.481 171.868ZM144.672 172.729C144.141 172.59 143.611 172.449 143.081 172.306L143.363 171.262C143.888 171.404 144.416 171.544 144.946 171.683L144.672 172.729ZM208.178 172.168C208.007 172.739 207.759 173.284 207.44 173.788L206.526 173.21C206.792 172.79 207 172.336 207.141 171.859L208.178 172.168ZM147.875 173.547C147.338 173.414 146.803 173.279 146.27 173.143L146.538 172.095C147.068 172.231 147.601 172.365 148.135 172.497L147.875 173.547ZM151.084 174.321C150.546 174.195 150.01 174.067 149.475 173.938L149.728 172.887C150.261 173.016 150.795 173.142 151.331 173.268L151.084 174.321ZM154.303 175.052C153.765 174.933 153.228 174.813 152.692 174.691L152.931 173.637C153.465 173.758 153.999 173.878 154.535 173.995L154.303 175.052ZM157.533 175.739C156.994 175.628 156.455 175.515 155.917 175.401L156.142 174.343C156.678 174.458 157.215 174.57 157.751 174.68L157.533 175.739ZM206.315 175.152C205.892 175.553 205.433 175.914 204.942 176.231L204.353 175.325C204.786 175.045 205.193 174.726 205.567 174.371L206.315 175.152ZM160.773 176.382C160.233 176.279 159.691 176.174 159.15 176.066L159.361 175.006C159.9 175.113 160.438 175.218 160.976 175.32L160.773 176.382ZM164.018 176.978C163.478 176.883 162.937 176.786 162.396 176.686L162.591 175.623C163.13 175.722 163.668 175.819 164.206 175.913L164.018 176.978ZM203.425 177.068C202.933 177.299 202.41 177.511 201.859 177.705L201.501 176.685C201.999 176.511 202.487 176.312 202.966 176.089L203.425 177.068ZM167.277 177.525C166.736 177.438 166.194 177.349 165.651 177.258L165.829 176.192C166.37 176.283 166.909 176.371 167.447 176.457L167.277 177.525ZM170.548 178.018C170.002 177.941 169.457 177.861 168.912 177.778L169.074 176.709C169.618 176.792 170.16 176.871 170.699 176.948L170.548 178.018ZM200.258 178.198C199.729 178.34 199.179 178.468 198.609 178.585L198.393 177.525C198.925 177.417 199.453 177.293 199.978 177.153L200.258 178.198ZM173.827 178.453C173.277 178.385 172.727 178.315 172.178 178.242L172.321 177.171C172.869 177.244 173.415 177.313 173.958 177.38L173.827 178.453ZM177.111 178.822C176.56 178.766 176.009 178.707 175.458 178.645L175.579 177.571C176.13 177.633 176.677 177.692 177.221 177.747L177.111 178.822ZM196.965 178.877C196.431 178.959 195.882 179.032 195.318 179.097L195.196 178.022C195.732 177.962 196.267 177.89 196.8 177.808L196.965 178.877ZM180.401 179.118C179.852 179.076 179.303 179.03 178.754 178.98L178.851 177.904C179.4 177.953 179.945 177.999 180.485 178.04L180.401 179.118ZM183.698 179.329C183.151 179.302 182.604 179.271 182.057 179.235L182.126 178.157C182.673 178.192 183.216 178.223 183.752 178.249L183.698 179.329ZM193.641 179.257C193.105 179.3 192.559 179.335 192.002 179.363L191.947 178.284C192.484 178.256 193.02 178.221 193.555 178.179L193.641 179.257ZM187.003 179.439C186.458 179.43 185.912 179.417 185.367 179.399L185.403 178.318C185.949 178.337 186.488 178.35 187.021 178.359L187.003 179.439ZM190.318 179.427C189.781 179.44 189.235 179.448 188.682 179.45L188.679 178.369C189.224 178.367 189.761 178.359 190.29 178.346L190.318 179.427Z" fill="#007867"/>
<path d="M26.7312 92.4565L52.8339 174.069C53.2663 175.386 54.1304 176.519 55.2865 177.285C56.4426 178.051 57.8232 178.404 59.2049 178.288L93.4366 175.39L173.447 168.556C174.658 168.462 175.815 168.01 176.768 167.257C177.722 166.504 178.429 165.484 178.801 164.327C179.047 163.559 179.14 162.75 179.073 161.946C179.015 161.369 178.883 160.801 178.678 160.258L172.279 143.382L160.705 112.441L151.732 88.5326C151.291 87.3632 150.505 86.3558 149.477 85.6448C148.449 84.9338 147.229 84.553 145.98 84.5531H32.5682C30.942 84.5532 29.3824 85.1992 28.2324 86.3491C27.0825 87.4989 26.4363 89.0584 26.436 90.6846C26.4447 91.2868 26.5441 91.8841 26.7312 92.4565Z" fill="white"/>
<path d="M26.7312 92.4565L52.8339 174.069C53.2663 175.386 54.1304 176.519 55.2865 177.285C56.4426 178.051 57.8232 178.404 59.2049 178.288L93.4366 175.39L173.447 168.556C174.658 168.462 175.815 168.01 176.768 167.257C177.722 166.504 178.429 165.484 178.801 164.327C179.047 163.559 179.14 162.75 179.073 161.946C179.015 161.369 178.883 160.801 178.678 160.258L172.279 143.382L160.705 112.441L151.732 88.5326C151.291 87.3632 150.505 86.3558 149.477 85.6448C148.449 84.9338 147.229 84.553 145.98 84.5531H32.5682C30.942 84.5532 29.3824 85.1992 28.2324 86.3491C27.0825 87.4989 26.4363 89.0584 26.436 90.6846C26.4447 91.2868 26.5441 91.8841 26.7312 92.4565Z" fill="white"/>
<path d="M93.0214 175.426L59.2049 178.288C57.8232 178.404 56.4428 178.05 55.2868 177.285C54.1308 176.519 53.2667 175.386 52.8343 174.069L26.7306 92.4565C26.5433 91.8842 26.4437 91.2867 26.4354 90.6846C26.4352 89.8793 26.5937 89.0818 26.9018 88.3378C27.2099 87.5937 27.6616 86.9177 28.231 86.3483C28.8005 85.7789 29.4766 85.3272 30.2207 85.0192C30.9648 84.7112 31.7622 84.5528 32.5676 84.5531H63.6245L93.0214 175.426Z" fill="url(#paint1_linear_419_1833)"/>
<path d="M123.997 129.566C125.41 129.478 126.358 128.08 125.918 126.735L121.332 112.737C121.185 112.287 120.894 111.898 120.504 111.63C120.114 111.361 119.647 111.228 119.174 111.25L85.8643 112.851C84.4232 112.92 83.4529 114.355 83.9248 115.718L88.9238 130.16C89.0784 130.607 89.375 130.99 89.7682 131.252C90.1614 131.514 90.6296 131.64 91.1012 131.61L123.997 129.566Z" fill="#F4F6F8"/>
<path d="M133.187 155.512C134.599 155.425 135.548 154.026 135.107 152.681L130.522 138.684C130.374 138.234 130.083 137.845 129.693 137.576C129.303 137.308 128.836 137.175 128.363 137.197L95.0539 138.798C93.6128 138.867 92.6425 140.301 93.1144 141.665L98.1134 156.107C98.268 156.553 98.5646 156.937 98.9578 157.199C99.351 157.461 99.8192 157.586 100.291 157.557L133.187 155.512Z" fill="#DFE3E8"/>
<g opacity="0.4">
<path d="M137.584 98.9259L146.204 127.517C146.332 127.978 146.607 128.383 146.989 128.671C147.371 128.958 147.837 129.111 148.314 129.107L169.698 128.489C169.87 128.484 170.038 128.439 170.189 128.356C170.34 128.272 170.468 128.155 170.564 128.012C170.66 127.869 170.721 127.706 170.741 127.535C170.761 127.364 170.74 127.191 170.68 127.03L159.868 98.1642C159.795 97.9682 159.666 97.7978 159.498 97.6735C159.329 97.5493 159.128 97.4766 158.919 97.4642L139.51 96.3242C139.191 96.3105 138.873 96.3753 138.585 96.513C138.297 96.6507 138.047 96.8571 137.857 97.1139C137.667 97.3706 137.542 97.67 137.495 97.9859C137.447 98.3018 137.478 98.6246 137.584 98.9259Z" fill="#919EAB"/>
</g>
<path d="M179.244 120.486L170.328 95.2415C170.191 94.8361 169.938 94.4799 169.601 94.2173C169.263 93.9547 168.856 93.7973 168.429 93.7647L130.851 91.5424C130.531 91.5328 130.214 91.6005 129.926 91.7399C129.637 91.8793 129.387 92.0862 129.196 92.343C129.005 92.5999 128.88 92.8992 128.83 93.2153C128.78 93.5315 128.807 93.855 128.91 94.1582L137.531 122.764C137.66 123.225 137.935 123.631 138.316 123.92C138.697 124.21 139.162 124.367 139.64 124.368L177.528 123.228C177.845 123.21 178.152 123.116 178.425 122.955C178.697 122.794 178.927 122.569 179.095 122.301C179.263 122.032 179.364 121.727 179.39 121.411C179.416 121.096 179.366 120.778 179.244 120.486Z" fill="white"/>
<path d="M160.483 116.46C160.742 117.128 160.872 117.463 161.148 117.652C161.424 117.842 161.782 117.842 162.5 117.842H162.673C164.104 117.842 164.82 117.842 165.142 117.372C165.464 116.902 165.206 116.234 164.69 114.899L161.215 105.92C160.956 105.25 160.827 104.916 160.551 104.727C160.274 104.537 159.916 104.537 159.199 104.537H159.026C157.594 104.537 156.879 104.537 156.556 105.008C156.234 105.477 156.493 106.145 157.009 107.48L160.483 116.46Z" fill="#007867"/>
<g opacity="0.48">
<path d="M166.405 116.456C166.664 117.127 166.793 117.462 167.069 117.652C167.346 117.842 167.705 117.841 168.423 117.841H168.593C170.025 117.841 170.741 117.841 171.063 117.372C171.385 116.901 171.127 116.234 170.609 114.899L169.752 112.684C169.493 112.015 169.364 111.681 169.088 111.492C168.811 111.302 168.452 111.302 167.736 111.302H167.571C166.142 111.302 165.427 111.302 165.105 111.771C164.783 112.24 165.039 112.907 165.553 114.241L166.405 116.456Z" fill="url(#paint2_linear_419_1833)"/>
<path d="M154.549 116.457C154.808 117.127 154.937 117.463 155.213 117.652C155.49 117.842 155.849 117.842 156.567 117.842H156.737C158.169 117.842 158.885 117.842 159.207 117.372C159.529 116.901 159.27 116.234 158.754 114.899L157.291 111.122C157.032 110.454 156.903 110.12 156.627 109.93C156.351 109.741 155.992 109.741 155.275 109.741H155.111C153.682 109.741 152.967 109.741 152.645 110.21C152.323 110.68 152.58 111.347 153.094 112.681L154.549 116.457Z" fill="url(#paint3_linear_419_1833)"/>
<path d="M148.627 116.46C148.886 117.129 149.015 117.463 149.292 117.652C149.568 117.842 149.927 117.842 150.644 117.842H150.817C152.248 117.842 152.964 117.842 153.286 117.372C153.608 116.902 153.35 116.234 152.833 114.899L147.728 101.701C147.469 101.031 147.34 100.697 147.063 100.508C146.787 100.318 146.428 100.318 145.711 100.318H145.538C144.107 100.318 143.391 100.318 143.069 100.788C142.747 101.258 143.005 101.925 143.521 103.261L148.627 116.46Z" fill="url(#paint4_linear_419_1833)"/>
<path d="M142.692 116.459C142.951 117.128 143.081 117.463 143.357 117.652C143.633 117.842 143.992 117.842 144.709 117.842H144.883C146.314 117.842 147.029 117.842 147.351 117.372C147.674 116.903 147.416 116.235 146.9 114.9L139.908 96.8069C139.649 96.1377 139.52 95.8031 139.244 95.6139C138.967 95.4242 138.609 95.4242 137.891 95.4242H137.717C136.286 95.4242 135.571 95.4242 135.249 95.8939C134.927 96.3636 135.185 97.0312 135.7 98.3659L142.692 116.459Z" fill="url(#paint5_linear_419_1833)"/>
</g>
<g opacity="0.4">
<path fill-rule="evenodd" clip-rule="evenodd" d="M42.9897 110.079C42.4282 107.996 42.7071 105.776 43.7665 103.897C44.8259 102.018 46.5809 100.63 48.6535 100.032C50.7262 99.4342 52.9507 99.6744 54.848 100.701C56.7453 101.727 58.1636 103.458 58.7974 105.52C59.4312 107.582 59.2299 109.81 58.2367 111.725C57.2435 113.64 55.538 115.088 53.4875 115.758C51.4369 116.427 49.2054 116.265 47.2734 115.305C45.3415 114.346 43.8637 112.666 43.1583 110.627L43.074 110.36L42.9897 110.079ZM51.2029 107.814L49.2623 101.584C49.81 101.415 50.3768 101.316 50.9493 101.289C52.3815 101.235 53.7916 101.653 54.9629 102.479C56.1342 103.305 57.002 104.493 57.4327 105.86C57.6014 106.408 57.7009 106.974 57.7279 107.547C57.7457 108.119 57.6938 108.69 57.5733 109.249C57.3248 110.366 56.7808 111.396 55.9981 112.231C55.2266 113.08 54.2424 113.707 53.1471 114.048C52.0519 114.389 50.8854 114.432 49.7682 114.171C49.2175 114.042 48.684 113.849 48.179 113.594C47.671 113.326 47.1985 112.995 46.7725 112.61C45.9422 111.842 45.3225 110.873 44.9724 109.797L51.2029 107.814ZM60.9772 162.297C60.5542 160.256 60.9181 158.129 61.9959 156.345C63.0738 154.56 64.7861 153.248 66.7899 152.672C68.7938 152.096 70.9413 152.298 72.8024 153.238C74.6635 154.178 76.1009 155.786 76.8268 157.741V158.008C76.8268 158.092 76.8267 158.191 76.9251 158.275C77.4823 160.278 77.2633 162.417 76.3119 164.266C75.3605 166.114 73.7468 167.535 71.793 168.246C69.8393 168.956 67.6895 168.903 65.773 168.098C63.8565 167.292 62.3145 165.793 61.455 163.9C61.4128 163.767 61.3745 163.633 61.3355 163.499C61.2975 163.365 61.2577 163.232 61.2161 163.099C61.1832 162.992 61.1524 162.885 61.1237 162.777C61.0818 162.615 61.0329 162.455 60.9772 162.297ZM67.0243 154.351L69.0493 160.553L69.092 160.539L71.1169 166.756C71.9234 166.487 72.6689 166.061 73.3109 165.504C73.9528 164.946 74.4786 164.268 74.8581 163.507C75.1159 163 75.305 162.461 75.4202 161.904C75.5446 161.35 75.5916 160.782 75.5608 160.216C75.487 158.78 74.9411 157.409 74.0078 156.315C73.0744 155.222 71.806 154.467 70.3996 154.168C69.2773 153.94 68.1154 154.003 67.0243 154.351ZM54.9846 127.559C54.218 128.326 53.6099 129.236 53.1951 130.237C52.7802 131.239 52.5667 132.312 52.5667 133.396V133.973C52.5667 135.057 52.7802 136.13 53.1951 137.132C53.61 138.133 54.218 139.044 54.9846 139.81C55.7512 140.577 56.6613 141.185 57.6628 141.6C58.6644 142.014 59.7379 142.228 60.822 142.228C61.9061 142.228 62.9796 142.014 63.9812 141.6C64.9828 141.185 65.8929 140.577 66.6594 139.81C67.426 139.044 68.0341 138.133 68.449 137.132C68.8638 136.13 69.0774 135.057 69.0774 133.973V133.396C69.0776 131.764 68.5936 130.167 67.6866 128.81C66.7795 127.452 65.4901 126.394 63.9815 125.769C62.473 125.144 60.8129 124.98 59.2115 125.299C57.61 125.618 56.139 126.404 54.9846 127.559ZM60.7096 133.663V127.138C61.8512 127.147 62.9707 127.452 63.9583 128.024C64.4744 128.302 64.948 128.652 65.3648 129.064C65.9732 129.669 66.4559 130.388 66.7852 131.18C67.1146 131.971 67.284 132.821 67.2837 133.678C67.2835 134.536 67.1136 135.385 66.7838 136.176C66.454 136.968 65.9708 137.687 65.3621 138.291C64.548 139.098 63.5347 139.675 62.4253 139.964C61.3215 140.273 60.1539 140.273 59.0501 139.964C58.5 139.822 57.9705 139.609 57.4749 139.331L60.7096 133.663Z" fill="white"/>
</g>
<path d="M82.5228 67.2823H60.0627L66.8981 71.4592L82.5228 67.2823Z" fill="url(#paint6_linear_419_1833)"/>
<path d="M82.5229 67.2823L68.1074 73.9485L70.5405 82.4433L82.5229 67.2823Z" fill="url(#paint7_linear_419_1833)"/>
<path d="M64.2959 77.7037L68.1073 73.9485L82.5228 67.2823L64.2959 77.7037Z" fill="url(#paint8_linear_419_1833)"/>
<path d="M64.2959 77.7037L68.1073 73.9485L82.5228 67.2823L66.8981 71.4592L64.2959 77.7037Z" fill="#007867"/>
<defs>
<linearGradient id="paint0_linear_419_1833" x1="5059.44" y1="14002.7" x2="16046.5" y2="73.4105" gradientUnits="userSpaceOnUse">
<stop stop-color="#00A76F"/>
<stop offset="1" stop-color="#00A76F" stop-opacity="0"/>
</linearGradient>
<linearGradient id="paint1_linear_419_1833" x1="26.436" y1="84.5531" x2="26.436" y2="178.309" gradientUnits="userSpaceOnUse">
<stop stop-color="#5BE49B"/>
<stop offset="1" stop-color="#007867"/>
</linearGradient>
<linearGradient id="paint2_linear_419_1833" x1="135.107" y1="95.4242" x2="135.107" y2="117.842" gradientUnits="userSpaceOnUse">
<stop stop-color="#5BE49B"/>
<stop offset="1" stop-color="#007867"/>
</linearGradient>
<linearGradient id="paint3_linear_419_1833" x1="135.107" y1="95.4241" x2="135.107" y2="117.842" gradientUnits="userSpaceOnUse">
<stop stop-color="#5BE49B"/>
<stop offset="1" stop-color="#007867"/>
</linearGradient>
<linearGradient id="paint4_linear_419_1833" x1="135.107" y1="95.4242" x2="135.107" y2="117.842" gradientUnits="userSpaceOnUse">
<stop stop-color="#5BE49B"/>
<stop offset="1" stop-color="#007867"/>
</linearGradient>
<linearGradient id="paint5_linear_419_1833" x1="135.107" y1="95.4242" x2="135.107" y2="117.842" gradientUnits="userSpaceOnUse">
<stop stop-color="#5BE49B"/>
<stop offset="1" stop-color="#007867"/>
</linearGradient>
<linearGradient id="paint6_linear_419_1833" x1="60.0627" y1="67.2823" x2="60.0627" y2="82.4433" gradientUnits="userSpaceOnUse">
<stop stop-color="#5BE49B"/>
<stop offset="1" stop-color="#007867"/>
</linearGradient>
<linearGradient id="paint7_linear_419_1833" x1="60.0629" y1="67.2823" x2="60.0629" y2="82.4433" gradientUnits="userSpaceOnUse">
<stop stop-color="#5BE49B"/>
<stop offset="1" stop-color="#007867"/>
</linearGradient>
<linearGradient id="paint8_linear_419_1833" x1="60.0628" y1="67.2823" x2="60.0628" y2="82.4433" gradientUnits="userSpaceOnUse">
<stop stop-color="#5BE49B"/>
<stop offset="1" stop-color="#007867"/>
</linearGradient>
</defs>
</svg>
