<svg width="268" height="269" viewBox="0 0 268 269" fill="none" xmlns="http://www.w3.org/2000/svg">
<path d="M134.045 2.37805C152.106 2.37805 169.976 6.08116 186.55 13.2586L181.299 25.3828C166.383 18.923 150.3 15.5902 134.045 15.5902V2.37805Z" fill="#00A76F" stroke="white" stroke-width="3" stroke-linecap="round"/>
<path d="M186.55 13.2586C204.614 21.0814 220.702 32.842 233.637 47.6805C246.573 62.5191 256.029 80.0607 261.315 99.023C266.601 117.985 267.582 137.889 264.188 157.28C260.794 176.67 253.11 195.057 241.698 211.097L230.932 203.437C241.204 189.002 248.119 172.453 251.174 155.002C254.229 137.55 253.345 119.637 248.588 102.571C243.83 85.5046 235.32 69.7172 223.678 56.3625C212.036 43.0078 197.557 32.4233 181.299 25.3827L186.55 13.2586Z" fill="#FFAB00" stroke="white" stroke-width="3" stroke-linecap="round"/>
<path d="M241.698 211.097C222.598 237.941 194.157 256.681 161.955 263.64C129.753 270.6 96.1123 265.277 67.6313 248.717L74.2727 237.295C99.9055 252.2 130.182 256.99 159.164 250.726C188.146 244.463 213.742 227.597 230.933 203.437L241.698 211.097Z" fill="#00B8D9" stroke="white" stroke-width="3" stroke-linecap="round"/>
<path d="M67.6314 248.717C42.5202 234.115 22.9209 211.645 11.8658 184.784C0.81062 157.922 -1.08406 128.166 6.47486 100.119C14.0338 72.0717 30.6249 47.2975 53.6814 29.6291C76.7378 11.9608 104.974 2.38312 134.022 2.37805L134.024 15.5902C107.881 15.5948 82.4685 24.2147 61.7177 40.1162C40.9669 56.0177 26.0349 78.3145 19.2319 103.557C12.4288 128.799 14.1341 155.58 24.0837 179.755C34.0333 203.931 51.6727 224.154 74.2727 237.295L67.6314 248.717Z" fill="#FF5630" stroke="white" stroke-width="3" stroke-linecap="round"/>
</svg>
